<svg width="20" height="20" viewBox="0 0 20 20" fill="none" xmlns="http://www.w3.org/2000/svg">
    <path fill-rule="evenodd" clip-rule="evenodd" d="M2.5 1.667a.833.833 0 00-.833.833v15c0 .46.373.833.833.833H5c.46 0 .833-.373.833-.833V5.833h3.333V7.5h-.833c-.92 0-1.667.746-1.667 1.667v5c0 .92.747 1.666 1.667 1.666h8.333c.921 0 1.667-.746 1.667-1.666v-5c0-.92-.746-1.667-1.666-1.667h-.834V5.833H17.5c.46 0 .833-.373.833-.833V2.5a.833.833 0 00-.833-.833h-15zm12.5 2.5h1.666v-.834H3.333v13.334h.833V5c0-.46.374-.833.834-.833h10zm-.834 1.666V7.5h-3.333V5.833h3.333zM10 14.167h6.666v-5H8.333v5H10z" fill="#1C294D" fill-opacity=".5"/>
</svg>
