<svg class="deliveryMan" width="98" height="101" viewBox="0 0 98 101" fill="none" xmlns="http://www.w3.org/2000/svg">
    <path fill-rule="evenodd" clip-rule="evenodd" d="M97.778 59.293V59.746c0 .075-.003.148-.005.223 0 .04 0 .079-.004.118-.003.04 0 .075-.003.112 0 .063-.004.127-.007.19v.047l-.013.277-.004.071-.011.188-.01.172a32.536 32.536 0 01-.114 1.311l-.053.449-.029.223a40.867 40.867 0 01-.197 1.32l-.038.216c-.026.143-.052.286-.08.429-.04.214-.084.426-.128.637l-.091.419-.143.619a38.198 38.198 0 01-.593 2.174 38.57 38.57 0 01-.54 1.651 42.97 42.97 0 01-.754 1.996l-.126.306c-.02.051-.042.101-.063.152l-.125.295c-.105.243-.208.478-.31.705l-.12.266a40.877 40.877 0 01-.684 1.42l-.155.304a7.845 7.845 0 01-.098.19l-.048.092-.093.175c-.047.085-.089.167-.131.244l-.082.15c-.04.072-.078.142-.114.204a13.31 13.31 0 01-.219.382l-.048.084-.022.038-.04.066c-.06.102-.096.154-.096.154-4.921 7.42-12.645 14.086-21.873 18.343-.944.435-1.903.845-2.876 1.228-4.065 1.6-8.378 2.729-12.84 3.259a48.327 48.327 0 01-5.296.352 49.477 49.477 0 01-2.692-.047 47.455 47.455 0 01-12.106-2.162c-7.032-2.224-14.069-6.218-20.767-12.42a23.7 23.7 0 01-.226-.212c-.106-.099-.212-.2-.316-.3l-.057-.054c-.099-.095-.197-.19-.294-.286l-.004-.004-.105-.103c-.048-.044-.09-.089-.134-.132a12.958 12.958 0 01-.11-.111c-.06-.058-.116-.117-.174-.174l-.104-.107-.243-.248-.251-.263c-.022-.023-.044-.048-.065-.068l-.09-.095-.179-.19c-.025-.027-.048-.054-.074-.08l-.16-.175-.01-.01-.015-.018a37.692 37.692 0 01-.176-.19l-.069-.077c-.07-.079-.143-.157-.21-.239-.018-.019-.035-.04-.053-.058l-.068-.078a37.241 37.241 0 01-.473-.552l-.034-.04-.022-.025-.055-.066a9.614 9.614 0 01-.114-.136l-.025-.031-.052-.062-.207-.251-.169-.209-.148-.185-.084-.106-.078-.099-.005-.007c-.058-.072-.115-.142-.17-.218a62.42 62.42 0 01-.305-.397l-.052-.07a24.138 24.138 0 01-.128-.17l-.042-.056-.016-.02a43.078 43.078 0 01-.228-.311l-.003-.004-.02-.028c-.071-.095-.14-.193-.21-.29l-.047-.07-.175-.249-.048-.069-.048-.07-.122-.176-.025-.036a18.01 18.01 0 01-.196-.29l-.108-.16-.087-.131-.02-.031-.023-.035-.085-.13-.05-.077-.05-.077-.027-.042a46.498 46.498 0 01-.39-.617l-.023-.035-.112-.182-.093-.151a52.002 52.002 0 01-.37-.619l-.003-.007-.184-.318c0-.003-.003-.005-.004-.007-.048-.082-.095-.164-.14-.246l-.048-.088a35.33 35.33 0 01-.128-.23l-.047-.082a21.058 21.058 0 01-.076-.142l-.13-.239-.034-.063a14.33 14.33 0 01-.089-.168l-.042-.08-.005-.008-.087-.167a13.687 13.687 0 01-.086-.168c0-.006-.006-.012-.01-.018l-.03-.058-.047-.096-.086-.17-.028-.054-.143-.286-.166-.342a50.41 50.41 0 01-.158-.333l-.032-.069-.053-.113c-.017-.038-.03-.063-.043-.095l-.036-.078c-.048-.108-.098-.214-.147-.322l-.02-.048-.08-.176-.063-.143c-.04-.091-.08-.182-.118-.273l-.034-.08c-.02-.043-.037-.086-.056-.13l-.088-.209a12.907 12.907 0 01-.086-.21l-.052-.128-.033-.084-.12-.297c-.02-.048-.039-.098-.058-.148l-.073-.187-.064-.168a24.53 24.53 0 01-.133-.353c-.023-.062-.048-.124-.068-.186a46.211 46.211 0 01-.128-.356c-.041-.117-.083-.233-.122-.35l-.028-.078a21.174 21.174 0 01-.095-.277l-.032-.095-.018-.053-.035-.104c-.012-.034-.022-.068-.033-.103-.026-.075-.048-.15-.073-.225l-.043-.132v-.005l-.024-.077v-.004c-.025-.079-.048-.159-.074-.238-.005-.01-.008-.022-.011-.033l-.05-.166-.055-.177a.224.224 0 00-.007-.024l-.062-.209-.065-.223-.08-.28a1.1 1.1 0 00-.012-.042l-.027-.098a5.97 5.97 0 01-.06-.22l-.054-.2a18.697 18.697 0 01-.047-.177c-.007-.026-.015-.052-.021-.079-.024-.09-.048-.18-.07-.27a147.415 147.415 0 01-.144-.582c0-.008-.004-.015-.006-.022l-.052-.216-.008-.036-.056-.244c-.016-.07-.031-.14-.048-.208a5.77 5.77 0 01-.047-.224 21.99 21.99 0 01-.055-.255l-.022-.105a32.41 32.41 0 01-.107-.525l-.01-.052a23.926 23.926 0 01-.095-.493 31.2 31.2 0 01-.056-.306c-.048-.272-.096-.543-.138-.816l-.009-.05-.01-.063a54.683 54.683 0 01-.091-.605l-.062-.435c-.04-.29-.076-.581-.11-.873a39.85 39.85 0 01-.136-1.31 46.059 46.059 0 01-.132-1.919L.05 55.74a49.207 49.207 0 01.008-4.628 51.208 51.208 0 01.103-1.619 51.81 51.81 0 01.199-2.02l.047-.402.03-.226A52.812 52.812 0 01.828 44.3a55.415 55.415 0 01.294-1.517 54.482 54.482 0 011.584-5.92 55.332 55.332 0 015.055-11.097c.16-.268.323-.534.487-.798C15.575 13.196 27.307 4.568 41.534 3.596 62.681 2.15 68.113 9.5 72.745 18.768l.159.32c.211.425.421.854.63 1.285 1.156 2.381 2.314 4.864 3.715 7.333.349.617.715 1.232 1.099 1.846.095.155.193.31.295.465l.131.204c.143.222.292.443.442.666l.227.331c.109.157.219.313.33.469l.157.218.204.279A37.848 37.848 0 0081.568 34c.048.053.091.107.137.16a28.611 28.611 0 00.56.64 36.918 36.918 0 00.885.95l.308.313a33.557 33.557 0 00.635.621 34.349 34.349 0 003.397 2.842 28.702 28.702 0 011.077.826l.173.139.17.14.17.143c.23.194.456.389.676.585l.138.124a22.249 22.249 0 01.312.286l.154.143.151.142.15.143.148.143.145.146c.051.051.096.096.143.147.048.05.096.095.143.146.095.095.188.196.28.295.047.047.092.098.136.148l.136.148c.185.205.366.412.541.62l.153.181c.094.112.186.226.276.34l.102.127.027.035.143.182.012.016.014.019.01.013.13.17.04.054a.103.103 0 01.007.008l.04.054.076.103.051.072.048.063.071.098c.017.023.033.047.048.07.01.014.018.027.028.039l.082.117.016.024.123.178.073.107.056.084.044.067.079.12.032.047.016.024.074.116.007.01.056.089c.033.05.064.101.096.152l.043.07c.015.024.035.056.05.083l.073.119.014.022.1.168c.01.02.021.038.032.056l.105.18v.005l.02.037.006.01.105.186.017.03.114.207.047.088.048.088.02.04.012.022.104.2.028.053.079.158c.008.015.015.032.024.047.028.056.056.112.082.168l.029.058.01.022c0 .003.003.005.004.008l.005.01.075.159.014.029c.01.024.022.047.034.073l.026.056c.008.02.017.038.026.057a5.589 5.589 0 00.046.101l.043.095.027.063.023.052.017.038.063.145.03.074.007.015.092.22.015.036.045.113.041.102a2.492 2.492 0 00.064.159l.028.073a.135.135 0 01.01.026c.01.025.019.048.028.075.01.027.016.04.023.062.017.044.033.088.048.133l.02.056a4.265 4.265 0 01.051.14l.01.03a25.377 25.377 0 01.074.213l.028.08.03.092.023.065.012.039.01.028v.005l.039.122v.007l.01.029.004.016a14.394 14.394 0 01.076.242l.012.038.055.185.02.068.055.19.014.048a36.2 36.2 0 01.117.433l.054.214v.005l.038.156v.004l.014.065.01.038.012.053c.014.063.03.127.043.19a6.8 6.8 0 01.028.13l.022.102.003.017c.008.033.015.067.021.1l.02.1a8.686 8.686 0 01.039.193l.016.082.027.143.013.068c.01.05.018.101.027.151l.014.085c0 .013.005.026.007.038a.545.545 0 01.005.034l.015.085.02.122.007.048.024.16a6.173 6.173 0 01.034.23c0 .016.005.032.007.047a31.278 31.278 0 01.059.456l.007.063c.01.076.017.153.026.228l.02.203v.015l.004.03v.02c.013.123.023.245.033.367l.012.146c0 .027.004.055.006.083l.007.087.01.152v.006c0 .022.003.043.004.065l.005.092.007.124v.034c.004.075.008.15.01.226l.005.114v.06a.482.482 0 00.003.072c0 .055.004.11.005.166 0 .055.003.098.004.148l.003.152V59.038c.01.089.01.172.01.255z" fill="#F6F2FF"/>
    <path fill-rule="evenodd" clip-rule="evenodd" d="M97.778 59.293V59.747c0 .074-.003.148-.005.222 0 .04 0 .08-.004.119-.003.04 0 .074-.003.111 0 .064-.004.127-.007.19v.047l-.013.277-.004.072-.011.187-.01.172a32.536 32.536 0 01-.114 1.311l-.053.449-.029.224a40.867 40.867 0 01-.197 1.319l-.038.217a33.32 33.32 0 01-.208 1.065l-.091.42-.143.618a37.81 37.81 0 01-.593 2.174 38.57 38.57 0 01-.54 1.652 43.018 43.018 0 01-.754 1.995l-.126.307-.063.151a49.704 49.704 0 01-.434 1l-.122.267a40.897 40.897 0 01-.683 1.42c-.053.105-.104.206-.155.303a7.845 7.845 0 01-.098.191l-.048.091-.093.176c-.047.085-.089.166-.131.243l-.082.15c-.04.072-.078.143-.114.204a12.706 12.706 0 01-.219.383l-.048.083-.022.038-.04.067c-.06.101-.096.153-.096.153-4.921 7.42-12.645 14.086-21.873 18.343-.944.436-1.903.845-2.876 1.229a51.805 51.805 0 01-12.84 3.259 48.576 48.576 0 01-5.296.352 47.432 47.432 0 01-14.799-2.21c-7.031-2.223-14.068-6.218-20.766-12.42a23.7 23.7 0 01-.226-.211l-.316-.3-.057-.055-.294-.285-.004-.004-.105-.104c-.048-.044-.09-.088-.134-.132a12.958 12.958 0 01-.11-.11l-.174-.175-.104-.106-.243-.248c-.084-.088-.168-.175-.251-.264l-.065-.068-.09-.095-.179-.19-.074-.08-.16-.174-.01-.011-.19-.21-.07-.077c-.07-.079-.142-.157-.21-.238l-.052-.06-.068-.077a40.478 40.478 0 01-.53-.617l-.054-.066a9.614 9.614 0 01-.114-.136l-.026-.031-.051-.062-.208-.25-.169-.21-.148-.185-.084-.106-.078-.099-.005-.007c-.057-.072-.114-.142-.17-.218a61.628 61.628 0 01-.305-.397l-.052-.07a24.45 24.45 0 01-.128-.17l-.042-.055-.015-.021a43.384 43.384 0 01-.229-.31l-.023-.033c-.07-.095-.14-.193-.209-.29l-.047-.07c-.06-.083-.117-.166-.176-.249l-.048-.069-.047-.069-.123-.177-.002-.004-.022-.032c-.066-.095-.132-.19-.197-.29l-.107-.16-.088-.131-.02-.031c-.005-.01-.015-.023-.022-.034l-.086-.13-.05-.078a3.206 3.206 0 01-.037-.058l-.013-.019-.027-.042a46.134 46.134 0 01-.39-.617l-.022-.035-.113-.182-.092-.15a52.138 52.138 0 01-.37-.62l-.004-.007-.184-.318c0-.002-.003-.004-.003-.007a10.727 10.727 0 01-.14-.246l-.048-.088a34.865 34.865 0 01-.128-.23l-.048-.081-.076-.143-.129-.238-.034-.064a14.33 14.33 0 01-.09-.168l-.042-.08-.004-.008a13.55 13.55 0 01-.174-.335c0-.006-.006-.012-.009-.018l-.03-.058c-.017-.031-.032-.063-.048-.096l-.086-.17-.027-.054-.143-.286-.166-.341c-.054-.111-.107-.223-.159-.334 0-.003-.003-.006-.004-.01l-.028-.058-.052-.114-.044-.095-.036-.078c-.047-.108-.098-.214-.146-.322a1.428 1.428 0 00-.021-.047l-.079-.177-.063-.143c-.04-.091-.08-.181-.118-.273l-.035-.079-.055-.13-.088-.21a13.093 13.093 0 01-.086-.21l-.052-.128-.034-.083a25.13 25.13 0 01-.12-.298l-.058-.148-.072-.187-.064-.168a1.735 1.735 0 01-.018-.044l-.047-.123c-.024-.062-.048-.124-.07-.186-.022-.062-.047-.124-.068-.186a47.093 47.093 0 01-.128-.356l-.122-.35-.028-.078-.06-.174a1.274 1.274 0 01-.012-.04l-.055-.16-.017-.053c-.007-.017-.016-.047-.024-.071a8.72 8.72 0 01-.118-.36c-.015-.044-.028-.089-.042-.133v-.005c-.008-.026-.017-.05-.024-.077v-.003c-.025-.08-.048-.16-.075-.238l-.01-.034c-.018-.055-.034-.11-.051-.166l-.054-.177a.229.229 0 00-.008-.024l-.061-.208-.066-.224-.064-.224c-.01-.034-.018-.066-.028-.096-.01-.03-.018-.065-.027-.098l-.012-.044a5.939 5.939 0 01-.048-.176l-.053-.2-.048-.177-.02-.078a30.415 30.415 0 01-.057-.219l-.013-.05a119.96 119.96 0 01-.144-.584c0-.007-.004-.014-.006-.021l-.052-.217-.008-.036-.056-.243c-.016-.07-.031-.14-.048-.209a5.692 5.692 0 01-.047-.223c-.02-.085-.037-.17-.055-.256l-.022-.104-.038-.179c-.024-.116-.048-.231-.07-.347l-.01-.051c-.015-.073-.028-.146-.042-.22l-.02-.109a31.2 31.2 0 01-.088-.47 45.24 45.24 0 01-.12-.704l-.018-.113-.009-.05-.01-.062a53.975 53.975 0 01-.091-.606l-.062-.434a54.745 54.745 0 01-.205-1.747l-.04-.436a49.59 49.59 0 01-.133-1.92L.05 55.74a48.97 48.97 0 01.009-4.628 51.208 51.208 0 01.102-1.619 55.479 55.479 0 01.199-2.02l.047-.403.03-.226A52.636 52.636 0 01.828 44.3a55.415 55.415 0 01.294-1.517 54.486 54.486 0 011.584-5.92 55.327 55.327 0 015.055-11.098c.16-.267.323-.533.487-.797 17.302-2.147 32.605 9.634 48.015 10.288 19.827.841 16.508-16.309 16.47-16.5l.158.317c.211.426.421.855.63 1.286 1.156 2.38 2.314 4.864 3.715 7.333.349.617.715 1.232 1.099 1.846.095.155.193.31.295.465l.131.203c.144.223.292.445.442.667a43.447 43.447 0 00.557.8l.158.218.203.279a37.77 37.77 0 001.434 1.815c.048.054.091.107.137.162a28.602 28.602 0 00.56.64 30.508 30.508 0 00.885.949l.308.313a34.342 34.342 0 004.032 3.462 29.13 29.13 0 011.078.826l.172.14.17.14c.058.047.114.095.17.142.23.194.457.39.677.586l.137.124a28.15 28.15 0 01.313.285l.153.143.151.143.15.143.148.143.146.146c.05.051.095.095.142.146.048.051.096.096.143.147.096.095.188.196.28.294.047.048.092.099.136.148l.136.149c.185.205.366.411.542.619l.152.182c.094.112.186.225.277.34l.101.127.027.035.143.182.026.034.01.013.13.171.04.054a.103.103 0 01.007.008l.04.054.038.053.038.048.052.07c.015.022.03.043.047.064l.071.098.048.07.028.04.082.116c.005.009.01.017.016.024l.123.179.073.107.056.084.044.066.079.12.032.047.016.024c.025.039.048.078.075.116l.006.01.056.09c.033.05.064.1.096.151l.043.071c.015.023.035.055.05.082l.073.119.014.022.1.169.032.055.105.181v.004l.02.037.006.01.105.186.017.031.114.206.022.044.092.172.012.022.104.2.102.202c0 .003.003.006.004.009l.025.047.082.169.028.058.011.021c0 .003.003.006.004.009l.005.01.075.158.014.029c.01.025.022.047.033.074.006.01.01.022.016.034l.037.078.042.093a8.768 8.768 0 00.074.166l.023.052.017.038.095.22.006.014a27.34 27.34 0 01.107.256l.072.18.014.035.016.04.072.187v.006a.12.12 0 01.01.026c.01.024.02.047.029.075l.023.061c.016.044.033.088.047.133.007.018.015.037.021.056a4.73 4.73 0 01.05.141l.01.03a28.217 28.217 0 01.134.385l.022.065.012.038.01.029a1.869 1.869 0 01.031.103c.003.008.006.015.007.023a.02.02 0 010 .008l.01.028.005.016a13.928 13.928 0 01.076.242l.011.039c.02.061.038.123.056.184l.02.069c.018.064.036.128.055.19l.014.048a36.311 36.311 0 01.116.432l.055.215v.005l.037.155v.004l.015.065.01.039.012.052c.014.064.03.127.043.19a6.794 6.794 0 01.027.13l.023.102.003.017a7.3 7.3 0 01.021.101l.02.1a45.512 45.512 0 01.055.274l.028.142.012.068c.01.05.018.101.027.152l.015.084c0 .013.004.026.006.039a.545.545 0 01.006.034l.034.207.007.047.024.16c.006.03.01.06.014.09l.02.14c0 .016.005.032.007.047a31.278 31.278 0 01.059.456l.007.063c.01.076.018.153.026.229l.021.203v.015l.004.03v.02c.012.122.022.244.032.366l.012.146c0 .028.004.056.007.083l.006.088.01.152v.005c0 .022.003.044.004.065l.012.216v.023l.012.238.007.174a.487.487 0 00.003.072c0 .055.004.11.005.165 0 .022 0 .043.002.064v.085c0 .05.003.101.003.152V59.02c.022.106.023.19.022.272z" fill="#EDE4FF"/>
    <path fill-rule="evenodd" clip-rule="evenodd" d="M97.78 59.293V59.746c0 .075-.003.149-.006.223v.119c0 .036 0 .074-.003.111 0 .064-.004.127-.007.19v.047a25.61 25.61 0 01-.014.277l-.003.071-.011.188-.01.172c-.014.212-.03.423-.049.633-.019.228-.041.454-.066.679-.017.15-.034.299-.053.448l-.028.224c-.043.333-.093.666-.143.993l-.055.326-.037.217-.08.428c-.04.214-.083.427-.128.637l-.091.42-.143.618a38.197 38.197 0 01-.593 2.174 38.882 38.882 0 01-.54 1.652 43.021 43.021 0 01-.754 1.995l-.126.307-.063.151c-.042.1-.083.198-.126.295-.104.243-.207.478-.309.705l-.121.267a41.263 41.263 0 01-.683 1.42c-.053.104-.104.206-.155.303a7.85 7.85 0 01-.099.19l-.047.092-.093.175c-.048.086-.09.167-.132.244l-.082.15a12.156 12.156 0 01-.333.587l-.047.083-.022.038-.04.067c-.061.101-.096.153-.096.153-4.922 7.42-12.645 14.086-21.873 18.343-.944.436-1.903.845-2.877 1.229a51.803 51.803 0 01-12.84 3.259 48.638 48.638 0 01-5.298.352 47.428 47.428 0 01-14.799-2.21c-7.032-2.223-14.068-6.218-20.766-12.42l-.226-.211-.317-.3-.057-.055a61.94 61.94 0 01-.294-.285l-.109-.108c-.047-.044-.09-.088-.133-.132a11.568 11.568 0 01-.111-.11l-.174-.175-.104-.106a40.717 40.717 0 01-.242-.248l-.252-.264c-.022-.023-.043-.047-.065-.068l-.09-.095-.179-.19c-.024-.027-.047-.053-.073-.08l-.16-.174-.01-.011a59.495 59.495 0 01-.26-.287c-.07-.079-.143-.157-.21-.238l-.053-.06-.068-.077a44.96 44.96 0 01-.474-.552l-.034-.04a30.884 30.884 0 01-.19-.227l-.026-.031-.052-.062-.207-.251-.169-.209-.148-.185-.084-.106-.078-.099-.005-.007c-.058-.072-.114-.142-.17-.218a56.167 56.167 0 01-.305-.397l-.052-.07a24.45 24.45 0 01-.128-.17l-.042-.056-.015-.02a72.429 72.429 0 01-.229-.311l-.003-.004a44.066 44.066 0 01-.229-.318l-.047-.07c-.06-.083-.117-.166-.176-.249l-.048-.069-.173-.25-.219-.321-.107-.161-.107-.162-.023-.035-.173-.265-.013-.019L7 78.118l-.184-.29a44.632 44.632 0 01-.206-.326l-.022-.036-.112-.182-.093-.15a63.456 63.456 0 01-.37-.62l-.003-.007-.184-.318c0-.003-.003-.004-.004-.007l-.19-.333a34.866 34.866 0 01-.25-.454l-.13-.238-.123-.231-.042-.08-.005-.008-.173-.333c0-.006-.006-.012-.01-.018-.025-.051-.05-.102-.077-.152l-.086-.17-.027-.054-.143-.286-.166-.342-.163-.343-.028-.059-.052-.113-.08-.172c-.047-.108-.098-.214-.146-.322l-.021-.047-.143-.322c-.04-.091-.08-.182-.118-.273l-.035-.08-.143-.34v-.003a66.77 66.77 0 01-.137-.333l-.034-.084-.12-.297-.13-.334-.064-.167-.064-.168c-.021-.056-.048-.124-.07-.186-.021-.062-.047-.123-.068-.185a45.543 45.543 0 01-.127-.356c-.042-.117-.083-.233-.123-.35a18.026 18.026 0 01-.1-.292l-.022-.063c-.01-.033-.022-.065-.032-.095l-.018-.053-.023-.072-.012-.032c-.01-.034-.022-.068-.034-.103l-.045-.14a2.604 2.604 0 01-.027-.085l-.043-.132v-.006l-.024-.076v-.004c-.025-.08-.048-.159-.074-.238-.005-.01-.008-.023-.011-.034l-.05-.165-.055-.177a.238.238 0 00-.007-.024l-.062-.209-.065-.224c-.022-.075-.044-.15-.064-.224l-.016-.055-.012-.043-.027-.098a6.11 6.11 0 01-.06-.22l-.054-.2a19.001 19.001 0 01-.047-.177l-.021-.078a29.767 29.767 0 01-.057-.218l-.013-.052a162.193 162.193 0 01-.145-.583c0-.007-.003-.014-.005-.021l-.052-.217-.008-.036-.056-.243c-.016-.07-.031-.14-.048-.209a5.752 5.752 0 01-.047-.223c-.02-.085-.037-.17-.055-.256l-.022-.104-.038-.179c-.024-.116-.048-.231-.07-.346l-.01-.052a10.987 10.987 0 01-.042-.22 11.197 11.197 0 01-.052-.274 45.228 45.228 0 01-.176-1.01l-.019-.112c-.006-.037-.011-.075-.018-.112a54.707 54.707 0 01-.092-.606c12.267-19.065 38.348-9.795 54.96-3.483 14.918 5.667 30.251-6.677 36.875-13.072.052.06.102.121.153.182.093.112.185.226.276.34l.102.127.027.035.143.182.012.016.014.019.01.012.13.171.04.054.085.115.038.048.051.07.048.064.07.098c.018.024.034.048.048.07l.028.04c.028.038.056.077.082.116l.017.024.122.179.13.19.044.066.078.12c.01.017.022.033.033.048l.016.024c.024.038.047.077.074.116l.007.01.056.089.095.152.044.07.05.083.073.118.013.023.1.169.032.055.105.18v.005l.021.037.006.01.105.186.017.03.113.207.023.043.024.045.048.088.02.04.012.022a10.904 10.904 0 01.132.253c.025.047.047.099.074.148 0 .003.003.006.005.01l.024.047c.028.056.056.112.082.168l.029.058.01.022c0 .003.003.005.004.008l.005.01.075.159.014.028.034.074.016.035.01.021.026.057a4.866 4.866 0 00.046.101l.043.095.027.063c.01.02.016.034.023.052l.017.038.063.145.03.074.007.014.092.22.015.037.045.112c.01.022.019.045.027.067l.014.035c.006.012.01.027.016.041.015.04.031.079.048.118.01.023.017.048.026.069v.005a.136.136 0 01.01.026c.01.025.019.048.028.075.01.027.016.04.023.062.017.044.034.088.048.133l.02.056a4.265 4.265 0 01.051.14l.01.03a30.078 30.078 0 01.075.213c.01.026.018.053.027.08l.031.092.034.104.01.028a1.872 1.872 0 01.031.103l.008.023a.02.02 0 010 .008.38.38 0 01.01.029l.004.016a14.394 14.394 0 01.076.242l.012.038c.019.062.038.124.055.185l.02.068.055.19.014.048a36.311 36.311 0 01.117.433l.054.214a13.715 13.715 0 01.038.16v.005l.024.103.013.053.043.19a6.05 6.05 0 01.027.13l.022.102.004.016a7.3 7.3 0 01.02.102l.021.099a8.683 8.683 0 01.038.193l.016.082.028.143.012.068c.01.05.018.101.027.151l.015.085c0 .013.004.025.007.038a.665.665 0 01.005.034l.014.085.02.122.007.048.024.16c.006.03.01.06.014.09l.02.14c0 .016.005.032.007.047a31.278 31.278 0 01.059.456l.007.063c.01.076.018.152.026.228l.021.203v.015l.004.03v.02c.012.123.022.245.032.366l.012.147c0 .027.005.055.007.082l.006.088.01.152v.006c0 .022.003.043.004.065l.006.092.006.124v.033c.004.076.008.152.01.227l.006.114c0 .04.003.083.004.124v.008c0 .055.004.11.006.165V58.613l.003.152V59.048c.01.08.01.163.01.245z" fill="#E4DBFA"/>
    <path fill-rule="evenodd" clip-rule="evenodd" d="M97.779 59.292V59.746c0 .075-.003.148-.005.223v.118c0 .037 0 .074-.004.112 0 .063-.004.127-.007.19v.047l-.013.276-.004.072-.011.188-.01.172a26.063 26.063 0 01-.114 1.311l-.053.448-.029.224a41.146 41.146 0 01-.197 1.32l-.038.216c-.026.143-.052.286-.08.429-.04.214-.083.426-.128.636l-.091.42-.143.619a38.686 38.686 0 01-.948 3.289 42.973 42.973 0 01-.938 2.532l-.127.306a21.111 21.111 0 01-.189.447 49.7 49.7 0 01-.308.704l-.122.267a40.497 40.497 0 01-.683 1.42l-.155.304a8.224 8.224 0 01-.098.19l-.048.092-.093.175c-.047.085-.089.167-.131.244l-.082.15c-.04.072-.078.142-.114.204a12.156 12.156 0 01-.219.382l-.048.084-.022.038-.04.066c-.06.102-.096.154-.096.154-4.921 7.42-12.645 14.086-21.873 18.343-.944.435-1.903.844-2.877 1.228-4.064 1.6-8.376 2.729-12.84 3.259a48.387 48.387 0 01-5.298.352 47.4 47.4 0 01-14.799-2.21c-7.032-2.223-14.068-6.217-20.766-12.42l-.226-.21-.317-.3-.056-.055-.295-.286-.108-.108c-.048-.043-.09-.088-.134-.131a11.59 11.59 0 01-.111-.111c-.059-.058-.116-.117-.173-.175l-.105-.106-.242-.248-.251-.263c-.022-.023-.044-.048-.065-.068l-.09-.096-.18-.19c-.024-.026-.047-.053-.073-.08l-.16-.174-.01-.01-.016-.018-.244-.27c-.07-.079-.143-.157-.21-.238l-.053-.06-.068-.077a40.49 40.49 0 01-.474-.552l-.034-.04a28.919 28.919 0 01-.19-.226l-.026-.032-.051-.062-.208-.25-.168-.21-.148-.184-.085-.107-.078-.099-.005-.006c-.057-.073-.114-.143-.17-.218a56.825 56.825 0 01-.305-.397l-.052-.07a22.02 22.02 0 01-.127-.17l-.043-.056-.015-.02a72.454 72.454 0 01-.228-.312l-.003-.004a44.066 44.066 0 01-.23-.318l-.047-.07-.176-.248-.047-.07-.174-.25-.218-.321-.107-.16-.107-.163-.023-.034-.174-.265-.013-.02L7 78.119l-.185-.29a46.153 46.153 0 01-.206-.327l-.022-.035-.112-.183-.092-.15a64.867 64.867 0 01-.37-.62l-.004-.007-.184-.317c0-.003-.003-.005-.004-.007l-.19-.334a35.33 35.33 0 01-.25-.453l-.13-.238a37.997 37.997 0 01-.123-.232l-.042-.08-.004-.008-.174-.333c0-.006-.006-.011-.01-.018a11.504 11.504 0 01-.163-.322l-.027-.054-.143-.285-.166-.342-.162-.343-.029-.06-.052-.113-.08-.171c-.047-.108-.098-.215-.146-.322l-.021-.048-.143-.322c-.04-.09-.08-.181-.118-.273l-.034-.079-.143-.34a66.773 66.773 0 01-.138-.337c-.01-.028-.023-.055-.034-.083l-.12-.298-.13-.333-.064-.168c-.02-.056-.042-.111-.064-.168l-.07-.185c-.021-.062-.047-.124-.068-.186a46.211 46.211 0 01-.127-.356c-.041-.117-.083-.233-.123-.35a18.331 18.331 0 01-.1-.292l-.022-.063-.032-.095-.018-.053-.023-.071-.011-.033-.034-.103-.045-.14a2.505 2.505 0 01-.028-.085l-.042-.132v-.005l-.025-.077v-.003c-.025-.08-.047-.16-.074-.239l-.011-.033-.05-.166-.055-.177a.24.24 0 00-.007-.024l-.061-.209-.066-.223-.064-.225-.016-.055-.012-.042c-.008-.033-.018-.066-.027-.098l-.012-.045a6.11 6.11 0 01-.048-.176l-.053-.199c-.017-.059-.032-.118-.048-.178l-.021-.078a31.062 31.062 0 01-.056-.218c-.004-.017-.01-.034-.013-.051 13.172-.91 28.186 7.09 42.775 11.993 7.405 2.489 14.7 4.18 21.59 3.504 2.453-.24 4.857-.78 7.193-1.692 19.879-7.753 24.727-20.59 24.764-20.69V58.626c0 .05.003.102.004.152V59.06c-.005.067-.004.15-.005.232z" fill="#BEB2DA"/>
    <path d="M50.939 1.003C66.202.786 72.051 14.444 72.051 14.444M48.506 1.324s-5.31.155-7.309.62" stroke="#E4DBFA" stroke-width=".152" stroke-linecap="round"/>
    <path fill-rule="evenodd" clip-rule="evenodd" d="M15.954 74.298s.333 4.547 1.508 5.084c1.174.536 2.759-.588 2.606-1.482-.153-.894-2.095-5.595-3.194-4.803-1.098.792-.92 1.2-.92 1.2z" fill="#FED194"/>
    <path fill-rule="evenodd" clip-rule="evenodd" d="M16.139 75.886s.598.744.922 1.034c.323.289.596.545.698.46.102-.086.536-1.572.017-1.96-.519-.387-1.755-.425-1.755-.425l.118.891z" fill="#F59D4E"/>
    <path fill-rule="evenodd" clip-rule="evenodd" d="M70.505 96.166c-.943.436-1.902.845-2.876 1.229-4.064 1.6-8.377 2.729-12.84 3.259-.308-1.068-3.38-11.66-4.038-10.567-.363.605-.86 5.965-1.25 10.908a47.4 47.4 0 01-14.8-2.211c-.38-6.003-.744-13.254-.964-17.815-.13-2.699-.208-4.456-.208-4.456l.561.044 10.131.783 21.014 1.625.576 1.879 3.653 11.922v.003l.17.555a.043.043 0 01.002.01l.138.448.731 2.385z" fill="#663E36"/>
    <path fill-rule="evenodd" clip-rule="evenodd" d="M70.505 96.166c-.944.436-1.903.845-2.877 1.229-5.289-13.852-13.501-11.754-19.79-11.754-6.964 0-14.1-4.672-14.1-4.672-.13-2.699-.209-4.456-.209-4.456l.561.044 10.131.784 21.014 1.625.576 1.879 3.653 11.922v.003l.17.554a.042.042 0 01.002.01l.138.449.731 2.383z" fill="#59302A"/>
    <path fill-rule="evenodd" clip-rule="evenodd" d="M65.234 78.965l4.23 13.804c-2.127-6.493-8.08-9.439-16.974-9.81-9.142-.382-16.611-3.276-16.611-3.276s-.929-1.06-1.79-3.125l31.145 2.407z" fill="#42211D"/>
    <path fill-rule="evenodd" clip-rule="evenodd" d="M35.879 79.68s16.729 4.29 29.865.948l-1.088-3.594-28.777 2.647z" fill="#27140E"/>
    <path fill-rule="evenodd" clip-rule="evenodd" d="M32.023 76.597v2.682s16.428 2.07 28.385.46c0 0 4.54-.404 5.336-1.007l-.584-3.975-33.137 1.84z" fill="#fff"/>
    <path fill-rule="evenodd" clip-rule="evenodd" d="M53.458 24.461s-1.703 1.498-1.148 2.572c.556 1.073-3.545-.942-2.44-2.45 1.104-1.51 5.057-5.164 5.214-3.243.157 1.921-1.626 3.121-1.626 3.121z" fill="#72120C"/>
    <path fill-rule="evenodd" clip-rule="evenodd" d="M41.88 14.498s-1.096 2.65-1.101 5.15c-.005 2.498.13 5.165 1.298 6.618 1.169 1.453 3.132 1.69 3.132 1.69s.005 3.1-.49 3.866c-.496.765 1.035 4.837 2.147 4.576 1.112-.26 2.498-.663 3.306-2.803.808-2.14 1.271-1.036 1.271-1.036s-.86-5.044-.443-5.885c.417-.84 1.907-2.959 2.2-4.18 0 0 1.143.066 1.887-.596.744-.662 1-2.717-.139-2.849 0 0 .908-3.36.358-4.513-.55-1.152-5.988-3.512-6.939-3.584-.95-.073-6.488 3.546-6.488 3.546z" fill="#FED194"/>
    <path fill-rule="evenodd" clip-rule="evenodd" d="M44.67 35.463s-1.482 1.428-.256 3.662c1.227 2.234.033 5.79 3.73 3.372s5.417-3.168 4.003-4.837c-1.143-1.35-3.088-3.004-4.292-2.947l-.476.869-.449-.839c-.636-.088-2.26.72-2.26.72z" fill="#BBC3C4"/>
    <path fill-rule="evenodd" clip-rule="evenodd" d="M65.584 76.865s-14.832 3.027-31.311.574c0 0-.945-.127-3.398-.179l2.453-41.035s1.876-.88 4.017-1.732c1.68-.667 3.523-1.318 4.746-1.509 2.785-.434 1.993 3.45 1.993 3.45s1.265 3.832 3.296 3.525c2.032-.306 3.372-3.734 3.372-3.734s2.606-3.433 3.833-3.394c0 0 1.303.19 2.99.498 1.686.308 4.406 1.19 4.866 1.762l1.169 14.238.095 1.168s2.721 19.967 1.879 26.368z" fill="#6D378F"/>
    <path fill-rule="evenodd" clip-rule="evenodd" d="M65.584 76.865S54 79.229 39.932 78.086a85.593 85.593 0 01-5.659-.647s-.945-.127-3.398-.179l1.652-27.636.801-13.4s1.876-.88 4.017-1.731c0 0 3.757 19.8 11.879 22.29 8.12 2.491 13.333-7.243 13.333-7.243s.4-.104 1.054-.21l.095 1.168s.135.987.333 2.593c.474 3.8 1.314 11.066 1.603 16.909.14 2.79.154 5.256-.058 6.865z" fill="#582279"/>
    <path fill-rule="evenodd" clip-rule="evenodd" d="M65.641 69.998c-5.527 2.255-15.97 6.194-25.714 8.086a85.526 85.526 0 01-5.658-.647s-.945-.127-3.398-.178l1.652-27.637c.486-.511.926-.788 1.285-.774 3.755.154 8.431 4.934 8.431 4.934s2.836 15.17 20.388.442c.491-.412.96-.79 1.408-1.134.477 3.801 1.317 11.067 1.606 16.908z" fill="#42115F"/>
    <path fill-rule="evenodd" clip-rule="evenodd" d="M13.843 33.093l5.192 19.971 17.067-4.043 3.996-3.254-3.99-16.682-4.761-.672-17.504 4.68z" fill="#FDAC2A"/>
    <path opacity=".5" fill-rule="evenodd" clip-rule="evenodd" d="M36.002 28.68l4.094 17.087-3.974 3.24-.022.013-1.685-7.029-3.244-13.531v-.002h.004l.73.034 4.097.188z" fill="#C40"/>
    <path opacity=".5" fill-rule="evenodd" clip-rule="evenodd" d="M22.53 43.03c-2.626-.719-5.309-2.064-7.042-3.642l3.547 13.677 17.067-4.043-1.685-7.03c-3.586 1.388-8.368 2.002-11.887 1.038z" fill="#C40"/>
    <path fill-rule="evenodd" clip-rule="evenodd" d="M20.42 31.26l1.174 4.586c.71-.238 1.421-.491 2.12-.801l-1.12-4.418-2.175.633zM31.647 44.77c-.714.322-1.418.648-2.125.95l1.27 4.762 2.201-.663-1.346-5.048z" fill="#000"/>
    <path fill-rule="evenodd" clip-rule="evenodd" d="M31.32 33.257l-4.766 1.079-.799-2.855 4.773-1.119.792 2.895z" fill="#EAECED"/>
    <path fill-rule="evenodd" clip-rule="evenodd" d="M27.043 33.88l-.299.07-.6-2.11.298-.07.6 2.11z" fill="#000"/>
    <path fill-rule="evenodd" clip-rule="evenodd" d="M27.1 33.866l-.117.028-.601-2.111.118-.028.6 2.11zM27.35 33.808l-.119.027-.6-2.112.118-.028.6 2.113zM28.1 33.633l-.12.028-.599-2.116.119-.028.6 2.116zM28.645 33.504l-.208.049-.6-2.118.209-.05.599 2.12zM28.851 33.455l-.119.029-.598-2.12.119-.029.598 2.12zM29.102 33.397l-.119.028-.598-2.12.12-.03.597 2.122zM29.65 33.268l-.209.05-.597-2.124.209-.05.597 2.124zM29.858 33.22l-.12.028-.597-2.124.12-.028.597 2.124zM30.363 33.102l-.12.028-.597-2.127.12-.029.597 2.128zM30.87 32.984l-.12.028-.597-2.13.12-.028.596 2.13z" fill="#000"/>
    <path fill-rule="evenodd" clip-rule="evenodd" d="M27.084 42.562a1.373 1.373 0 100-2.745 1.373 1.373 0 000 2.745zM30.146 41.347a.738.738 0 100-1.475.738.738 0 000 1.475z" fill="#EDAD8A" opacity=".32"/>
    <path fill-rule="evenodd" clip-rule="evenodd" d="M52.903 47.744s.25.277.867.31c.617.032 3.469.198 3.74-.233.334-.524.06-1.348-.476-1.26-.536.086-4.131 1.183-4.131 1.183z" fill="#42115F"/>
    <path fill-rule="evenodd" clip-rule="evenodd" d="M52.852 46.634l4.254-.171.045 1.118-4.254.17-.044-1.117z" fill="#fff"/>
    <path fill-rule="evenodd" clip-rule="evenodd" d="M10.757 51.447l7.094 27.285 23.316-5.525 5.46-4.445-5.451-22.791-6.506-.918-23.913 6.394z" fill="#FDAC2A"/>
    <path opacity=".5" fill-rule="evenodd" clip-rule="evenodd" d="M41.175 45.971l5.451 22.792-5.43 4.426-.03.019-2.303-9.604-4.431-18.487v-.002h.005l.998.046 5.74.81z" fill="#D95F16"/>
    <path fill-rule="evenodd" clip-rule="evenodd" d="M22.625 65.022c-3.588-.982-7.254-2.82-9.619-4.977l4.846 18.687 23.317-5.524-2.302-9.603c-4.902 1.893-11.434 2.734-16.242 1.417z" fill="#FF920F"/>
    <path fill-rule="evenodd" clip-rule="evenodd" d="M19.742 48.942l1.604 6.266c.97-.326 1.942-.671 2.898-1.095l-1.532-6.035-2.97.864zM35.081 67.401c-.974.439-1.938.884-2.905 1.297l1.736 6.507 3.007-.905-1.838-6.899z" fill="#000"/>
    <path fill-rule="evenodd" clip-rule="evenodd" d="M34.634 51.668l-6.51 1.474-1.092-3.9 6.52-1.528 1.082 3.954z" fill="#EAECED"/>
    <path fill-rule="evenodd" clip-rule="evenodd" d="M28.79 52.522l-.407.095-.822-2.882.408-.097.82 2.884z" fill="#000"/>
    <path fill-rule="evenodd" clip-rule="evenodd" d="M28.868 52.503l-.161.037-.82-2.884.16-.038.821 2.885zM29.21 52.422l-.163.039-.82-2.886.162-.038.82 2.885zM30.234 52.182l-.162.038-.82-2.89.163-.039.819 2.892zM30.981 52.008l-.284.067-.818-2.894.284-.067.818 2.894zM31.262 51.943l-.163.038-.817-2.896.162-.039.818 2.897zM31.605 51.862l-.162.038-.818-2.897.163-.04.817 2.899zM32.354 51.687l-.285.067-.817-2.9.286-.069.816 2.902zM32.637 51.62l-.163.038-.816-2.902.163-.039.816 2.903zM33.328 51.46l-.164.038-.815-2.906.164-.039.815 2.907zM34.018 51.297l-.164.039-.814-2.91.164-.039.814 2.91z" fill="#000"/>
    <path fill-rule="evenodd" clip-rule="evenodd" d="M28.846 64.384a1.876 1.876 0 100-3.751 1.876 1.876 0 000 3.75zM33.03 62.724a1.008 1.008 0 100-2.015 1.008 1.008 0 000 2.015z" fill="#EDAD8A" opacity=".32"/>
    <path fill-rule="evenodd" clip-rule="evenodd" d="M51.672 20.547s.571-2.696.017-4.85c-.554-2.153.129-4.613.129-4.613s4.388.625 4.065 3.92c-.323 3.295-.935 4.044-.935 4.044s-1.038-.104-2.28 1.303c-1.244 1.408-.996.197-.996.197z" fill="#72120C"/>
    <path fill-rule="evenodd" clip-rule="evenodd" d="M57.609 19.43c-1.63 4.295-4.15 5.032-4.15 5.032s.832-.939.554-3.599c-.077-.733-.46-1.922-.972-3.26-1.348-3.515-3.601-8.056-3.601-8.056l-1.073-.904s2.762-1.112 5.41.15c1.924.918 5.46 6.343 3.832 10.637z" fill="#6D378F"/>
    <path fill-rule="evenodd" clip-rule="evenodd" d="M55.616 14.317c-1.035 2.423-2.575 3.285-2.575 3.285-1.348-3.514-3.601-8.055-3.601-8.055l-1.073-.905s2.887-1.342 5.41.15l.047.028a4.39 4.39 0 011.792 5.497z" fill="#fff"/>
    <path fill-rule="evenodd" clip-rule="evenodd" d="M53.539 18.983c-.877-2.122-1.687-3.81-2.73-4.959-1.009-1.11-2.234-1.72-3.95-1.74-2.265-.028-3.898 1.532-4.765 2.629a7.874 7.874 0 00-.714 1.053s-.905-1.828-1.772-3.709c.078-.124.136-.26.174-.401a.514.514 0 00.012-.19c-.117-.817.886-2.016-.033-1.869-.242.04-.568.329-.918.735a.047.047 0 01-.006.007 38.118 38.118 0 01-.34-.81l-.006-.014v-.002a16.248 16.248 0 01-.135-.341c-.153-.397-.26-.717-.3-.92a10.878 10.878 0 01-.164-2.146c.023-1.326.281-2.81 1.06-3.652 1.28-1.38 5.77-1.229 8.92 3.13 3.124 4.324 5.628 13.063 5.667 13.2z" fill="#6D378F"/>
    <path fill-rule="evenodd" clip-rule="evenodd" d="M50.808 14.024c-1.008-1.11-2.234-1.721-3.95-1.741-2.265-.027-3.897 1.532-4.764 2.63a1.125 1.125 0 01-.272-.248 134.852 134.852 0 00-2.04-2.81l-.878-1.184-.06-.138-.346-.8-.006-.015v-.003c-.03-.124-.672-3.007 2.028-4.207 2.759-1.226 7.241 2.096 10.103 8.095.07.146.131.286.185.42z" fill="#582279"/>
    <path fill-rule="evenodd" clip-rule="evenodd" d="M51.592 15.047c-.059-.09-2.804-3.193-5.017-1.453-2.16 1.699-6.01 2.564-7.5-.619a5.367 5.367 0 01-.274-.717 2.977 2.977 0 01-.061-.238c-.205-.977.223-1.729 1.022-2.22 1.298-.796 4.295-.285 6.997 1.02 2.102 1.011 4.025 2.503 4.833 4.227z" fill="#72120C"/>
    <path fill-rule="evenodd" clip-rule="evenodd" d="M45.21 27.954s1.2.104 2.631-.42c0 0 .826-.484.087.858-.738 1.342-2.812 1.635-2.812 1.635l.093-2.073z" fill="#F59D4E"/>
    <path fill-rule="evenodd" clip-rule="evenodd" d="M42.586 19.611c.063-.336-.033-.636-.213-.67-.18-.033-.378.212-.44.548-.063.336.033.636.213.67.18.033.378-.212.44-.548zM46.94 20.207c.062-.336-.033-.636-.213-.67-.181-.033-.378.212-.44.548-.063.336.032.636.213.67.18.033.377-.212.44-.548zM46.403 17.532c-.017-.073.088-.126.174-.143.27-.054.949-.13 1.142.381.16.42-.068.321-.1.255-.047-.102-.176-.32-.322-.402-.334-.195-.855.077-.894-.091zM41.428 17.64c-.063-.076.006-.196.079-.263.23-.213.845-.68 1.358-.19.423.402.136.412.064.352-.111-.092-.375-.274-.569-.29-.449-.037-.788.565-.932.391z" fill="#72120C"/>
    <path fill-rule="evenodd" clip-rule="evenodd" d="M43.946 19.681a8.18 8.18 0 01-.173 1.081c-.036.179-.085.354-.13.53-.044.177-.1.35-.158.524a4.636 4.636 0 01-.101.266.795.795 0 01-.037.076l-.01.02-.006.01c0 .003-.005.009-.003.006.002-.003.004-.008.006-.017a.067.067 0 000-.02v-.007-.004.004l.005.006c.02.025.042.046.066.064a.969.969 0 00.099.064c.07.04.147.078.225.113.329.137.67.242 1.02.313v.019a3.523 3.523 0 01-1.07-.19 2.038 2.038 0 01-.252-.107.754.754 0 01-.224-.16.207.207 0 01-.04-.062.124.124 0 01.008-.113l.015-.03c.01-.02.02-.04.027-.06.034-.083.063-.169.092-.254.117-.342.22-.69.324-1.037.103-.347.202-.695.3-1.043l.017.008zM43.243 24.514c.8.116 2.21.167 3.456-.577a.039.039 0 01.045.064c-.7.554-2.065 1.353-3.557.71a.104.104 0 01.056-.197zM47.534 21.578a.15.15 0 100-.299.15.15 0 000 .3zM42.157 21.109a.15.15 0 100-.3.15.15 0 000 .3zM48.094 21.826a.106.106 0 100-.211.106.106 0 000 .212zM41.34 20.532a.106.106 0 100-.211.106.106 0 000 .21zM41.39 21.872a.106.106 0 100-.212.106.106 0 000 .212zM48.188 21.323a.106.106 0 100-.212.106.106 0 000 .212zM46.889 22.08a.15.15 0 100-.3.15.15 0 000 .3zM47.658 22.5a.191.191 0 100-.382.191.191 0 000 .382zM41.52 21.271a.19.19 0 100-.381.19.19 0 000 .381zM48.44 22.322a.19.19 0 100-.382.19.19 0 000 .382z" fill="#F59D4E"/>
    <path opacity=".67" fill-rule="evenodd" clip-rule="evenodd" d="M51.593 15.048c-.059-.09-2.804-3.193-5.017-1.453-2.16 1.698-6.01 2.564-7.5-.62a5.355 5.355 0 01-.274-.716 3.01 3.01 0 01-.061-.239c1.11 1.541 3.684 1.681 4.997 1.422 2.312-.454 3.007-2.575 3.022-2.621 2.101 1.011 4.025 2.502 4.833 4.227z" fill="#540200"/>
    <path fill-rule="evenodd" clip-rule="evenodd" d="M44.33 31.085s2.18 2.555 2.674 3.798l.374.698.477-.868s3.678-3.952 4.41-4.36c0 0 .171-.154.426.272.256.427 2.862 2.329 2.862 2.329s-2.112.277-3.491 2.627c-1.38 2.35-1.295 2.368-1.295 2.368s-.715-2.112-2.913-3.238l-.476.869-.449-.839s-1.816.667-3.162 3.462c0 0-.204.102-.409-.818-.204-.92-1.89-4.394-2.52-4.547-.631-.153 1.77-.96 2.708-1.482.75-.416.783-.271.783-.271z" fill="#fff"/>
    <path fill-rule="evenodd" clip-rule="evenodd" d="M48.163 72.57c-.823.795-3.33 1.631-5.048 2.09-.773.207-1.386.337-1.613.352-.733.052-4.11.537-4.892.588-.784.051-1.715-.247-1.58-.826.134-.579 1.362-.425 2.47-.714 1.107-.289 2.622-1.226 3.117-1.737.494-.51 1.652-2.18 1.583-2.571-.068-.39.295-.596-1.034-1.124-1.329-.528-1.708-1.6-1.503-2.385.205-.784.374-.05 1.6.46 1.227.511 3.083.58 3.56 1.397.478.818 1.517 1.19 1.517 1.19s.139.1.346.265c.756.606 2.412 2.11 1.477 3.015z" fill="#FED194"/>
    <path fill-rule="evenodd" clip-rule="evenodd" d="M48.163 72.57c-.823.793-3.33 1.63-5.048 2.09 0 0 1.453-.62 2.552-1.668 1.099-1.047.714-3.398.714-3.398.1-.021.203-.035.306-.042.755.608 2.411 2.112 1.476 3.017z" fill="#F59D4E"/>
    <path fill-rule="evenodd" clip-rule="evenodd" d="M72.57 62.545c-.818 2.454-16.354 8.74-17.834 9.402-1.48.662-2.249 0-2.249 0l-5.16 1.428c.46-1.328-1.29-4.445-1.29-4.445 1-.477 4.369-1.687 4.369-1.687 0-.88.69-2.03 2.989-3.18 1.266-.633 3.878-2.776 5.972-4.574 1.709-1.468 3.072-2.708 3.072-2.708s-.23-1.878-1.533-6.362.345-11.497.345-13.566c0-2.069 1.19-1.761 1.19-1.761s1.648-.448 4.663 5.53c3.015 5.98 6.283 19.472 5.465 21.923z" fill="#fff"/>
    <path opacity=".54" fill-rule="evenodd" clip-rule="evenodd" d="M59.368 59.491c1.71-1.468 3.072-2.708 3.072-2.708s-.23-1.878-1.532-6.362c-1.303-4.484.344-11.497.344-13.566 0-2.069 1.19-1.761 1.19-1.761s-.904 1.085-.702 3.896c.203 2.81 1.042 14.517 5.339 16.453 4.297 1.937-7.71 4.048-7.71 4.048z" fill="#D2D7DB"/>
    <path fill-rule="evenodd" clip-rule="evenodd" d="M62.44 56.783s1.358-.754 2.533-.422c1.175.332 1.874.422 1.874.422s1.073.038-1.431-1.29c-2.504-1.329-3.252-.198-3.252-.198l.275 1.488z" fill="#949A9B"/>
    <path opacity=".54" fill-rule="evenodd" clip-rule="evenodd" d="M50.407 67.245s1.095.988 1.622 2.674c.527 1.686.46 2.027.46 2.027l-5.16 1.428s.315-.732-.248-2.114c0 0 3.023.803 3.466-1.071.443-1.874-.14-2.944-.14-2.944z" fill="#D2D7DB"/>
    <path fill-rule="evenodd" clip-rule="evenodd" d="M50.407 67.245s1.095 1.428.839 2.762c-.256 1.333-1.007 2.565-1.007 2.565l2.25-.624s.025-2.54-2.082-4.703z" fill="#949A9B"/>
    <path fill-rule="evenodd" clip-rule="evenodd" d="M15.734 70.55s-1.246 2.137.654 5.282c0 0 1.152 1.063 1.428.532.277-.53-.459-.831-.557-1.333-.099-.502-.444-2.183-.715-2.9-.27-.716-.81-1.58-.81-1.58z" fill="#FED194"/>
    <path fill-rule="evenodd" clip-rule="evenodd" d="M50.751 90.087c-.362.605-.86 5.965-1.25 10.908a49.477 49.477 0 01-2.693-.047c.684-3.492 1.53-6.898 2.076-8.407 1.275-3.527 1.867-2.454 1.867-2.454zM69.776 93.783a10.348 10.348 0 01-.137-.448l.137.448z" fill="#59302A"/>
</svg>
