<svg width="20" height="20" viewBox="0 0 20 20" fill="none" xmlns="http://www.w3.org/2000/svg">
    <path fill-rule="evenodd" clip-rule="evenodd" d="M14.155 2H6.512a2.5 2.5 0 00-1.768.732L2.732 4.744A2.5 2.5 0 002 6.512v9.655a2.5 2.5 0 002.5 2.5h11.667a2.5 2.5 0 002.5-2.5V6.512a2.5 2.5 0 00-.733-1.768l-2.011-2.012A2.5 2.5 0 0014.155 2zm2.012 3.333l-1.423-1.422a.833.833 0 00-.59-.244H6.513a.833.833 0 00-.59.244L4.5 5.333h11.667zm-12.5 2.5v8.334c0 .46.373.833.833.833h11.667c.46 0 .833-.373.833-.833V7.833A.833.833 0 0016.167 7H4.5a.833.833 0 00-.833.833zM5.333 14.5c0-.46.373-.833.834-.833h1.666a.833.833 0 110 1.666H6.167a.833.833 0 01-.834-.833zm.834-3.333a.833.833 0 100 1.666H9.5a.833.833 0 100-1.666H6.167z" fill="#1C294D" fill-opacity=".5"/>
</svg>
