<svg width="20" height="20" viewBox="0 0 20 20" fill="none" xmlns="http://www.w3.org/2000/svg">
    <path fill-rule="evenodd" clip-rule="evenodd" d="M1.918 1.918a.859.859 0 011.215 0l2.93 2.931c.245-.112.51-.186.788-.217l2.857-.317a2.577 2.577 0 012.107.739l5.763 5.764a2.577 2.577 0 010 3.643l-3.117 3.118a2.577 2.577 0 01-3.644 0l-5.99-5.99a2.576 2.576 0 01-.71-2.299l.486-2.574c.045-.238.122-.464.226-.673l-2.91-2.91a.859.859 0 010-1.215zM7.04 8.254l-.823-.823-.41 2.177a.859.859 0 00.236.767l5.99 5.989a.859.859 0 001.215 0l3.117-3.117a.859.859 0 000-1.215L10.6 6.268a.859.859 0 00-.702-.246l-2.396.266.772.772A1.822 1.822 0 117.04 8.254z" fill="#FF283D"/>
</svg>
