<svg width="20" height="20" viewBox="0 0 20 20" fill="none" xmlns="http://www.w3.org/2000/svg">
    <path fill-rule="evenodd" clip-rule="evenodd" d="M5.248 3.497v.001zm.036.057l1.67 2.632c-.201.19-.422.377-.659.58-.203.173-.42.357-.647.562a1.577 1.577 0 00-.308 1.961c1.93 3.363 4.562 4.893 5.74 5.443.709.33 1.48.07 1.909-.471l1.155-1.458h.008l.005.001c.674.412 1.613.971 2.477 1.445-.155.927-.512 1.467-.904 1.797-.412.347-.946.53-1.54.595-1.188.132-2.393-.225-2.66-.312a23.277 23.277 0 01-3.641-2.359c-1.782-1.409-3.568-3.286-4.252-5.44-.5-1.573-.31-2.68.082-3.445.38-.738.993-1.24 1.565-1.531zM4.68 1.996c.787-.37 1.6.016 1.98.613l1.748 2.754c.353.556.377 1.37-.197 1.928-.246.239-.589.532-.908.805-.175.15-.342.294-.483.42 1.66 2.863 3.88 4.188 4.89 4.672l1.125-1.417a1.683 1.683 0 012.195-.385c.666.407 1.586.955 2.42 1.412.556.305.954.94.841 1.658-.202 1.29-.731 2.228-1.485 2.862-.74.623-1.623.887-2.432.977-1.59.176-3.112-.301-3.39-.393a1.368 1.368 0 01-.191-.08 24.861 24.861 0 01-3.942-2.548c-1.866-1.476-3.97-3.61-4.806-6.242-.613-1.933-.432-3.5.187-4.705.609-1.184 1.594-1.93 2.448-2.331zM12.259 1.743a.836.836 0 00-1.107.409.83.83 0 00.41 1.103c1.939.887 4.158 2.553 5.172 4.853a.836.836 0 001.1.427.83.83 0 00.428-1.096c-1.238-2.81-3.856-4.714-6.003-5.696zm-.619 2.951a.836.836 0 00-1.12.372.83.83 0 00.374 1.117c.784.39 1.327.759 1.766 1.196.438.436.808.977 1.2 1.76a.836.836 0 001.12.371.83.83 0 00.373-1.116c-.442-.882-.908-1.589-1.513-2.192-.605-.603-1.314-1.067-2.2-1.508z" fill="#1C294D" fill-opacity=".5"/>
</svg>
