<svg width="20" height="20" viewBox="0 0 20 20" fill="none" xmlns="http://www.w3.org/2000/svg">
    <path d="M18.98 4.668a.083.083 0 00-.099-.023 6.746 6.746 0 01-1.593.488 3.573 3.573 0 001.243-1.766.084.084 0 00-.123-.1 6.771 6.771 0 01-2.12.828A3.534 3.534 0 0013.737 3C11.786 3 10.2 4.604 10.2 6.576c0 .239.023.475.068.705a9.72 9.72 0 01-6.946-3.61.084.084 0 00-.138.01 3.604 3.604 0 00-.48 1.798c0 1.097.493 2.122 1.332 2.799a3.355 3.355 0 01-1.234-.404.083.083 0 00-.083 0 .086.086 0 00-.043.073v.046a3.584 3.584 0 002.487 3.416 3.36 3.36 0 01-1.176-.017.085.085 0 00-.097.11 3.545 3.545 0 003.071 2.471 6.75 6.75 0 01-4.053 1.336c-.272 0-.545-.016-.814-.048a.086.086 0 00-.055.157A9.792 9.792 0 007.378 17c6.203 0 9.91-5.094 9.91-10.019 0-.137-.003-.273-.009-.41a7.1 7.1 0 001.707-1.801.086.086 0 00-.006-.102z" fill="#282F36" fill-opacity=".3"/>
</svg>
