<svg width="20" height="20" viewBox="0 0 20 20" fill="none" xmlns="http://www.w3.org/2000/svg">
    <path fill-rule="evenodd" clip-rule="evenodd" d="M9.997.006c-2.715 0-3.056.012-4.122.06-1.064.049-1.79.218-2.426.465a4.9 4.9 0 00-1.771 1.153 4.9 4.9 0 00-1.153 1.77C.278 4.092.109 4.818.06 5.883.012 6.948 0 7.288 0 10.003c0 2.715.012 3.056.06 4.122.049 1.064.218 1.79.465 2.427a4.9 4.9 0 001.153 1.77 4.9 4.9 0 001.77 1.153c.636.247 1.363.416 2.427.465 1.066.048 1.407.06 4.122.06s3.055-.012 4.121-.06c1.065-.049 1.791-.218 2.427-.465a4.9 4.9 0 001.77-1.153 4.9 4.9 0 001.154-1.77c.247-.636.416-1.363.464-2.427.05-1.066.06-1.407.06-4.122s-.01-3.055-.06-4.121c-.048-1.065-.217-1.791-.464-2.427a4.9 4.9 0 00-1.153-1.77A4.9 4.9 0 0016.546.53c-.637-.247-1.363-.416-2.428-.464-1.066-.05-1.406-.06-4.121-.06zm0 1.802c2.67 0 2.985.01 4.04.058.974.044 1.503.207 1.856.344.466.181.8.398 1.15.748.349.35.566.683.747 1.15.137.352.3.88.344 1.856.048 1.054.058 1.37.058 4.04 0 2.668-.01 2.985-.058 4.039-.044.975-.207 1.504-.344 1.856-.181.467-.398.8-.748 1.15-.35.35-.683.566-1.15.747-.352.137-.88.3-1.856.345-1.053.048-1.37.058-4.04.058-2.669 0-2.985-.01-4.039-.059-.974-.044-1.504-.207-1.856-.344a3.097 3.097 0 01-1.15-.747 3.097 3.097 0 01-.747-1.15c-.137-.352-.3-.881-.344-1.856-.049-1.054-.059-1.37-.059-4.04s.01-2.985.059-4.04c.044-.974.207-1.503.344-1.856.181-.466.398-.8.748-1.15.35-.349.682-.566 1.149-.747.352-.137.882-.3 1.856-.344 1.054-.048 1.37-.058 4.04-.058z" fill="#282F36" fill-opacity=".3"/>
    <path fill-rule="evenodd" clip-rule="evenodd" d="M9.997 13.335a3.332 3.332 0 110-6.664 3.332 3.332 0 010 6.664zm0-8.465a5.134 5.134 0 100 10.267 5.134 5.134 0 000-10.267zM16.533 4.667a1.2 1.2 0 11-2.4 0 1.2 1.2 0 012.4 0z" fill="#282F36" fill-opacity=".3"/>
</svg>
