<svg width="20" height="20" viewBox="0 0 20 20" fill="none" xmlns="http://www.w3.org/2000/svg">
    <path fill-rule="evenodd" clip-rule="evenodd" d="M6.667 4.181c0-.462.373-.838.833-.838h5c.46 0 .833.376.833.838v12.052a.416.416 0 01-.695.312l-2.08-1.883a.83.83 0 00-1.115 0l-2.08 1.883a.416.416 0 01-.696-.312V4.181zM7.5 1.667h5c1.38 0 2.5 1.126 2.5 2.514v12.052c0 1.815-2.136 2.772-3.477 1.558L10 16.412l-1.523 1.38C7.137 19.004 5 18.047 5 16.232V4.181a2.507 2.507 0 012.5-2.514z" fill="#1C294D" fill-opacity=".5"/>
</svg>
