<svg width="20" height="20" viewBox="0 0 20 20" fill="none" xmlns="http://www.w3.org/2000/svg">
<path fill-rule="evenodd" clip-rule="evenodd" d="M2.49984 1.66667C2.0396 1.66667 1.6665 2.03976 1.6665 2.5V17.5C1.6665 17.9602 2.0396 18.3333 2.49984 18.3333H4.99984C5.46007 18.3333 5.83317 17.9602 5.83317 17.5V5.83333H9.1665V7.5H8.33317C7.4127 7.5 6.6665 8.24619 6.6665 9.16667V14.1667C6.6665 15.0871 7.4127 15.8333 8.33317 15.8333H16.6665C17.587 15.8333 18.3332 15.0871 18.3332 14.1667V9.16667C18.3332 8.24619 17.587 7.5 16.6665 7.5H15.8332V5.83333H17.4998C17.9601 5.83333 18.3332 5.46024 18.3332 5V2.5C18.3332 2.03976 17.9601 1.66667 17.4998 1.66667H2.49984ZM14.9998 4.16667H16.6665V3.33333H3.33317V16.6667H4.1665V5C4.1665 4.53976 4.5396 4.16667 4.99984 4.16667H9.99984H14.9998ZM14.1665 5.83333V7.5H10.8332V5.83333H14.1665ZM9.99984 14.1667H14.9998H16.6665V12.5V10.8333V9.16667H14.9998H9.99984H8.33317V10.8333V12.5V14.1667H9.99984Z" fill="#1C294D" fill-opacity="0.5"/>
</svg>
