<svg class="banners__fourth--img" width="119" height="96" viewBox="0 0 119 96" fill="none" xmlns="http://www.w3.org/2000/svg">
<path d="M6.83301 18.666H33.833V53.666H6.83301V18.666Z" fill="url(#paint0_linear_214_1151)"/>
<path opacity="0.1" d="M116.888 93.508C116.888 94.0415 90.7218 95.999 58.4439 95.999C26.1659 95.999 -0.000488281 94.0415 -0.000488281 93.508C-0.000488281 92.9745 26.1659 92.542 58.4439 92.542C90.7218 92.542 116.888 92.9745 116.888 93.508Z" fill="#324D8D"/>
<path d="M9.64502 61.9962C9.64502 61.7626 9.83441 61.5732 10.068 61.5732H25.0145C25.2481 61.5732 25.4375 61.7626 25.4375 61.9962V92.5941C25.4375 92.8277 25.2481 93.0171 25.0145 93.0171H10.068C9.83441 93.0171 9.64502 92.8277 9.64502 92.5941V61.9962Z" fill="url(#paint1_linear_214_1151)"/>
<path d="M10.3496 62.8421C10.3496 62.6085 10.539 62.4191 10.7726 62.4191H24.168C24.4017 62.4191 24.591 62.6085 24.591 62.8421V74.8275C24.591 75.0611 24.4017 75.2505 24.168 75.2505H10.7726C10.539 75.2505 10.3496 75.0611 10.3496 74.8275V62.8421Z" fill="url(#paint2_linear_214_1151)"/>
<path d="M10.4907 77.3659C10.4907 77.1323 10.6801 76.9429 10.9137 76.9429H24.3091C24.5428 76.9429 24.7322 77.1323 24.7322 77.3659V89.3512C24.7322 89.5849 24.5428 89.7743 24.3091 89.7743H10.9137C10.6801 89.7743 10.4907 89.5849 10.4907 89.3512V77.3659Z" fill="url(#paint3_linear_214_1151)"/>
<path d="M4.63965 62.817C4.63919 62.7498 4.68619 62.6916 4.75197 62.6779L9.89705 61.6088C9.98485 61.5906 10.0671 61.6579 10.0667 61.7475L9.92708 92.823C9.92676 92.8938 9.87389 92.9534 9.80356 92.9622L5.00777 93.5617C4.924 93.5722 4.84986 93.5072 4.84928 93.4228L4.63965 62.817Z" fill="url(#paint4_linear_214_1151)"/>
<path d="M15.5723 67.5779C15.5778 67.3483 15.7655 67.165 15.9951 67.165H17.8641C18.0948 67.165 18.283 67.3499 18.287 67.5806L18.4132 74.7718C18.4173 75.0083 18.2268 75.2023 17.9902 75.2023H15.8224C15.5848 75.2023 15.3938 75.0066 15.3995 74.7691L15.5723 67.5779Z" fill="#FFBBB6"/>
<path d="M13.2485 67.5881C13.2485 67.3544 13.4379 67.165 13.6716 67.165H15.7235C15.9542 67.165 16.1424 67.3499 16.1464 67.5806L16.2726 74.7718C16.2767 75.0083 16.0862 75.2023 15.8496 75.2023H13.6715C13.4379 75.2023 13.2485 75.0129 13.2485 74.7793L13.2485 67.5881Z" fill="url(#paint5_linear_214_1151)"/>
<path d="M10.499 67.5886C10.499 67.355 10.6884 67.1656 10.922 67.1656H13.115C13.3457 67.1656 13.5339 67.3505 13.5379 67.5812L13.6641 74.7724C13.6682 75.0089 13.4776 75.2028 13.2411 75.2028H10.922C10.6884 75.2028 10.499 75.0134 10.499 74.7798V67.5886Z" fill="url(#paint6_linear_214_1151)"/>
<path d="M99.3223 57.273C104.716 71.3289 98.691 93.3329 78.9992 93.3329C57.1659 93.3329 33.43 97.0361 28.7497 84.8393C23.356 70.7833 36.5365 52.9683 55.6738 45.6247C74.8111 38.2811 93.9286 43.217 99.3223 57.273Z" fill="url(#paint7_linear_214_1151)"/>
<path opacity="0.5" d="M26.751 86.8327C41.8065 89.8049 71.1676 92.666 85.0843 82.8327C100.148 72.1889 99.4176 52.4993 90.751 41.916" stroke="white" stroke-width="0.189333" stroke-linecap="round" stroke-dasharray="0.38 0.95"/>
<path d="M67.3161 72.9247C65.906 75.4064 61.6054 75.7448 59.6313 75.6038L68.2326 55.5107L87.9027 49.8C88.2787 49.9881 88.6359 51.1537 87.0567 54.3122C85.0826 58.2603 76.6224 61.1509 74.3663 62.0674C72.1102 62.9839 69.0786 69.8227 67.3161 72.9247Z" fill="#835FD2" fill-opacity="0.5"/>
<path d="M57.8522 45.9369L57.3735 50.9976V52.9717H60.754C60.8361 52.9717 60.905 52.9095 60.9133 52.8278L61.587 46.2261C61.5961 46.1364 61.5295 46.0569 61.4397 46.0501L58.0238 45.7923C57.9367 45.7857 57.8605 45.85 57.8522 45.9369Z" fill="url(#paint8_linear_214_1151)"/>
<path d="M57.6098 59.7375L59.4898 58.5412L61.2524 60.8677L60.0538 64.8159C58.0328 65.2389 53.5676 66.099 51.8756 66.1554C49.7605 66.2259 48.9145 64.8159 49.267 62.7713C49.6033 60.821 56.1057 53.2535 56.0352 52.9715C55.9647 52.6895 56.1762 50.0809 56.3172 49.5874C56.4582 49.0939 59.4898 48.8119 60.0538 49.0939C60.3976 49.2658 59.4399 49.8715 58.6213 50.3373C58.4848 50.415 58.5572 50.6378 58.7136 50.6225C59.2765 50.5674 59.9084 50.5359 60.0538 50.6449C60.2566 50.797 59.6012 51.72 59.1422 52.2977C59.0764 52.3805 59.1232 52.4869 59.226 52.462C59.5685 52.3793 60.0087 52.1166 60.0538 52.478C60.1072 52.9047 58.7984 56.7494 57.4038 59.5508C57.3394 59.6802 57.488 59.8151 57.6098 59.7375Z" fill="#FEA199"/>
<path d="M57.3183 65.355C55.8375 65.632 54.2065 65.9114 53.0024 66.0561C54.6509 65.3422 58.8278 62.5181 61.0722 60.6271L61.1437 60.7215L57.3183 65.355Z" fill="#E18379"/>
<path d="M89.1704 50.645C88.7191 52.6755 81.7676 54.8516 78.5245 55.6507L77.326 50.363C77.326 50.363 72.1088 51.068 70.3463 51.2795C68.5837 51.491 66.5392 51.7166 66.2572 51.491C66.0472 51.3231 66.0978 50.9493 66.2343 50.6432C66.2884 50.5218 66.2052 50.359 66.0745 50.3352C65.763 50.2786 65.4111 50.1139 65.4111 49.658C65.4111 48.9891 66.3277 49.1644 66.0457 48.8119C65.5254 48.1617 65.7402 48.0364 66.0457 47.6134C69.0303 47.4959 76.6774 46.5277 81.9791 46.1329C88.6063 45.6394 89.7344 48.1069 89.1704 50.645Z" fill="#FEA199"/>
<path d="M66.9958 47.5599C68.5449 47.4522 70.7627 47.2248 73.1719 46.9745L71.7561 48.8828C71.5147 49.4387 71.3866 50.1918 71.2804 50.8161C71.2592 50.9405 71.2389 51.0597 71.2188 51.1713C70.8799 51.2144 70.582 51.2516 70.3461 51.2799C69.289 51.4068 68.1305 51.5387 67.3117 51.5753C67.6716 50.9252 68.0834 50.1306 67.808 50.2224C67.1149 50.4534 66.517 49.2164 66.9958 47.5599Z" fill="#FC98A6"/>
<path d="M77.3383 50.4228L77.3248 50.3635C77.3248 50.3635 74.0865 50.8011 71.8506 51.0902C73.7155 50.4555 79.9334 49.306 79.9334 49.306L77.3383 50.4228Z" fill="#E18379"/>
<path d="M86.2964 52.9904C83.8744 54.16 80.5066 55.1629 78.5243 55.6513L78.2227 54.3206C78.5257 54.6028 78.8937 54.8758 79.5113 54.8758C80.0103 54.8758 81.8228 54.3158 83.4864 53.8017C84.6796 53.4331 85.7962 53.0881 86.2964 52.9904Z" fill="#FC98A6"/>
<path d="M88.7875 51.3327C88.9875 51.1033 89.1201 50.8735 89.1707 50.6456C89.4677 49.3093 89.2956 47.9926 88.0988 47.1172C87.2491 47.4102 86.6387 48.2169 86.6387 49.1661C86.6387 50.3568 87.5991 51.3231 88.7875 51.3327Z" fill="#FC98A6"/>
<path d="M62.1006 68.1064C60.5213 66.8092 57.2124 67.0019 55.7554 67.2604C51.2668 67.1194 41.9229 66.922 40.4564 67.2604C38.6234 67.6834 31.5731 70.2215 30.1631 71.3495C28.7531 72.4775 15.1462 88.6225 14.6526 88.7635C14.1591 88.9045 11.5104 88.5976 11.621 88.7635C13.3131 91.3016 18.0367 93.9807 19.0943 93.9102C19.9403 93.8538 20.2928 92.7822 20.2928 92.2886C20.7863 91.7951 21.858 90.371 25.8625 86.0845C30.8681 80.7263 41.655 76.1437 42.5715 75.7911C43.488 75.4386 54.6273 76.2142 59.351 75.7911C61.2048 75.6251 64.4742 72.8066 65.4142 71.702C65.1792 70.903 63.6798 69.4036 62.1006 68.1064Z" fill="url(#paint9_linear_214_1151)"/>
<path d="M20.3738 92.206L14.8737 88.577C14.7576 88.6913 14.6824 88.7558 14.6531 88.7642C14.4035 88.8355 13.6022 88.7922 12.8857 88.7535C12.1859 88.7156 11.5669 88.6822 11.6215 88.7642C13.3136 91.3022 18.0372 93.9813 19.0948 93.9108C19.9408 93.8544 20.2933 92.7828 20.2933 92.2893C20.3185 92.264 20.3453 92.2364 20.3738 92.206Z" fill="#FDFDFD"/>
<path d="M49.341 75.8125C49.071 75.8049 48.8042 75.7974 48.5415 75.7899C45.4881 75.7032 42.9869 75.6322 42.5728 75.7915C42.1812 75.9421 39.9872 76.8651 37.2123 78.291L29.6074 71.8902C29.8621 71.6251 30.052 71.4398 30.1644 71.3498C31.5745 70.2218 38.6247 67.6837 40.4577 67.2607C40.5745 67.2337 40.7411 67.2102 40.9513 67.1898L49.341 75.8125Z" fill="#C84D74" fill-opacity="0.65"/>
<path d="M59.3479 58.0476C59.2915 58.386 60.2644 60.2567 60.6874 60.7972C59.3714 62.3248 56.1048 65.6901 55.8228 67.2129C63.2255 67.7769 64.685 72.0725 65.27 71.866C66.4686 71.4431 72.8138 58.2592 73.3073 57.7657C73.8008 57.2722 78.2424 56.2852 78.4539 55.8622C78.6654 55.4392 77.6079 50.7155 77.4669 50.363C77.3259 50.0105 66.8211 52.901 65.6226 52.901C64.424 52.901 59.4184 57.6246 59.3479 58.0476Z" fill="url(#paint10_linear_214_1151)"/>
<path d="M60.6416 60.7361L63.5076 56.7784L60.2803 60.167C60.4136 60.3965 60.5398 60.5965 60.6416 60.7361Z" fill="#ADD1E7"/>
<path d="M67.1751 49.3051C66.7614 48.4777 67.0341 45.4275 68.0211 43.8764C69.0081 42.3253 69.5722 42.1844 70.5592 42.0434C70.5592 42.0434 71.4266 41.9525 72.1102 42.3254C72.8858 42.7484 73.1678 43.8666 73.1678 46.1325C73.1678 48.3886 71.8282 48.4591 71.5462 48.6706C71.3206 48.8398 71.1232 50.9032 71.0527 51.9137L66.6287 53.5402C66.5044 53.5859 66.3914 53.4505 66.4585 53.3363L68.2599 50.274C68.3125 50.1845 68.2542 50.0653 68.1536 50.0395C67.8782 49.9687 67.4136 49.7822 67.1751 49.3051Z" fill="#FFBBB6"/>
<path d="M72.664 42.8769C73.0253 43.4901 73.168 44.5211 73.168 46.1327C73.168 47.3788 72.7593 47.9581 72.3459 48.2628C72.3082 48.1715 72.3348 47.9848 72.3648 47.7739C72.4094 47.4608 72.4617 47.0945 72.322 46.9082C72.1982 46.7432 71.9213 46.744 71.6817 46.7447C71.4666 46.7453 71.2815 46.7458 71.2644 46.6262C71.2378 46.4398 71.2534 46.3137 71.2672 46.2024C71.2899 46.0191 71.3077 45.8758 71.1234 45.5687C70.9119 45.2162 69.5118 44.6991 68.3034 45.1457C68.2487 45.1659 68.1976 45.1852 68.1498 45.2034C67.7776 45.3446 67.6005 45.4118 67.4272 45.2217C67.5832 44.7203 67.7811 44.254 68.0213 43.8766C68.8337 42.5999 69.3595 42.2786 70.0705 42.1262C70.0944 42.122 70.1164 42.118 70.1364 42.114C70.487 42.0439 72.023 42.1133 72.664 42.8769Z" fill="#E18379"/>
<path d="M67.979 50.7534L68.2609 50.2742C68.2913 50.2225 68.2847 50.1609 68.2543 50.1132C68.2848 50.0925 68.3042 50.0808 68.3042 50.0808C68.3042 50.0808 69.0797 50.0103 69.9257 49.5873C70.2988 49.4008 70.5485 49.2416 70.7836 49.0918C71.0817 48.9019 71.3563 48.7268 71.8293 48.5298C71.8763 48.5102 71.9076 48.5006 71.9248 48.4999C71.8715 48.5231 71.8211 48.5434 71.7749 48.5621C71.6758 48.6021 71.5958 48.6343 71.5472 48.6708C71.5056 48.702 71.4649 48.7978 71.4257 48.9397C70.4305 49.657 68.3149 50.981 68.0222 50.7858C68.0062 50.7752 67.9918 50.7644 67.979 50.7534Z" fill="#FD8F86"/>
<path d="M68.0661 48.8455C68.0279 48.8098 67.968 48.8119 67.9323 48.8501C67.8966 48.8883 67.8986 48.9482 67.9368 48.9839L68.0661 48.8455ZM68.5848 49.0816L68.5662 48.9888H68.5662L68.5848 49.0816ZM69.3272 48.7218C69.3586 48.68 69.3501 48.6206 69.3083 48.5892C69.2664 48.5579 69.2071 48.5664 69.1757 48.6082L69.3272 48.7218ZM68.0015 48.9147C67.9368 48.9839 67.9369 48.9839 67.9369 48.9839C67.9369 48.9839 67.9369 48.984 67.937 48.984C67.937 48.984 67.937 48.9841 67.9371 48.9841C67.9372 48.9842 67.9373 48.9843 67.9375 48.9845C67.9377 48.9847 67.9381 48.985 67.9385 48.9854C67.9392 48.9861 67.9403 48.987 67.9416 48.9882C67.9441 48.9904 67.9477 48.9935 67.9521 48.9973C67.9611 49.0047 67.9738 49.0149 67.99 49.0267C68.0223 49.0502 68.0689 49.0805 68.1271 49.1085C68.2432 49.1643 68.4104 49.2131 68.6034 49.1745L68.5662 48.9888C68.4259 49.0169 68.3014 48.9822 68.2091 48.9379C68.1632 48.9158 68.1265 48.8919 68.1015 48.8736C68.089 48.8646 68.0796 48.857 68.0736 48.852C68.0706 48.8495 68.0684 48.8476 68.0671 48.8465C68.0665 48.8459 68.0661 48.8455 68.0659 48.8454C68.0658 48.8453 68.0658 48.8453 68.0658 48.8453C68.0659 48.8453 68.0659 48.8453 68.0659 48.8454C68.0659 48.8454 68.066 48.8454 68.066 48.8454C68.066 48.8455 68.066 48.8455 68.066 48.8455C68.0661 48.8455 68.0661 48.8455 68.0015 48.9147ZM68.6034 49.1745C68.8317 49.1288 69.0122 49.0152 69.1343 48.9153C69.1957 48.8651 69.2432 48.8177 69.2756 48.7825C69.2918 48.7648 69.3043 48.7502 69.3129 48.7397C69.3173 48.7344 69.3206 48.7302 69.323 48.7272C69.3242 48.7257 69.3252 48.7245 69.3258 48.7236C69.3262 48.7231 69.3265 48.7227 69.3267 48.7224C69.3268 48.7223 69.3269 48.7221 69.327 48.722C69.327 48.722 69.3271 48.7219 69.3271 48.7219C69.3271 48.7219 69.3271 48.7218 69.3272 48.7218C69.3272 48.7218 69.3272 48.7218 69.2515 48.665C69.1757 48.6082 69.1757 48.6082 69.1758 48.6081C69.1758 48.6081 69.1758 48.6081 69.1758 48.6081C69.1758 48.6081 69.1758 48.6081 69.1758 48.608C69.1759 48.608 69.1759 48.608 69.1759 48.608C69.1758 48.608 69.1758 48.6081 69.1756 48.6083C69.1753 48.6087 69.1748 48.6093 69.1741 48.6103C69.1726 48.6122 69.1702 48.6152 69.1669 48.6192C69.1602 48.6273 69.1499 48.6394 69.1362 48.6543C69.1087 48.6841 69.0677 48.7252 69.0144 48.7688C68.9074 48.8564 68.7546 48.9511 68.5662 48.9888L68.6034 49.1745Z" fill="#EB414E"/>
<path d="M67.2449 44.793C67.1652 44.6334 66.9629 43.947 67.8794 43.0304C68.796 42.1139 69.783 42.0434 70.1355 41.9729C70.488 41.9024 71.8275 41.8319 72.6031 42.6074C73.4146 43.419 73.6606 45.2865 73.3786 46.4851C73.0966 47.6836 72.4621 48.1771 72.4621 48.1771C72.1029 48.2531 72.5326 47.1901 72.3211 46.9081C72.0862 46.5949 71.2997 46.8789 71.2635 46.626C71.193 46.1325 71.4186 45.78 71.1225 45.2865C70.911 44.934 69.783 44.1585 68.5745 44.605C67.9506 44.8356 67.5269 45.357 67.2449 44.793Z" fill="url(#paint11_linear_214_1151)"/>
<path d="M31.0515 61.5849C34.3773 61.343 48.395 64.8752 55.9388 67.2958L40.5332 68.0557C40.4112 68.0617 40.3512 68.2065 40.4373 68.293C44.4635 72.3378 52.4172 80.1948 52.4172 80.5824C52.4172 81.0759 48.6065 89.2925 48.0425 88.8695C47.6017 88.5389 47.89 85.7477 48.2541 84.3701C48.2694 84.3124 48.2494 84.2531 48.2006 84.2187C41.6224 79.5748 29.1411 70.8833 27.4559 68.9171C25.3408 66.4496 27.1739 61.867 31.0515 61.5849Z" fill="url(#paint12_linear_214_1151)"/>
<path d="M50.6922 78.6281C51.7442 79.7257 52.4161 80.4693 52.4161 80.5819C52.4161 81.0754 48.6054 89.292 48.0414 88.869C47.6006 88.5384 47.8889 85.7472 48.253 84.3696C48.2662 84.3199 48.2532 84.2692 48.2183 84.234L50.6922 78.6281Z" fill="#FDFDFD"/>
<path d="M104.118 71.7653C104.433 74.841 106.538 83.2101 108.277 86.9937H113.072C113.26 86.9233 114.312 85.5837 117.02 80.7896C120.404 74.7969 118.437 72.6848 116.738 73.6688C115.398 74.4444 112.649 81.3536 112.437 81.2831C112.085 81.1656 112.508 64.2216 112.085 61.472C111.662 58.7224 109.533 57.7361 108.7 59.2159C107.431 61.472 108.019 69.9792 108.277 75.1494C107.784 73.4808 106.571 69.8899 105.669 68.8747C104.541 67.6057 103.836 69.0158 104.118 71.7653Z" fill="url(#paint13_linear_214_1151)"/>
<path d="M109.658 58.5348L109.961 72.1388L107.941 67.7156C107.944 67.8574 107.948 67.9995 107.952 68.1419L109.971 72.5604L110.291 86.937L107.1 77.1532V71.7039C107.045 71.5628 106.989 71.4229 106.933 71.285V76.6422L104.373 68.7929C104.336 68.8603 104.302 68.9359 104.271 69.0195L106.851 76.9274L104.721 75.2255C104.74 75.3109 104.759 75.397 104.778 75.4838L106.945 77.2159L108.932 83.309L106.403 81.744C106.427 81.8245 106.451 81.9048 106.475 81.9848L109.013 83.5546L110.134 86.9934H110.459L110.281 79.0214L112.28 75.6004C112.28 75.491 112.28 75.3808 112.28 75.2697L110.274 78.7032L110.137 72.552L112.256 65.0089C112.252 64.8115 112.249 64.6193 112.244 64.4327L110.125 71.9809L109.825 58.5303C109.769 58.528 109.713 58.5294 109.658 58.5348Z" fill="#98F2E8"/>
<path d="M115.894 74.6127L115.551 78.3074L110.581 86.9934H110.773L114.307 80.8171L117.673 79.5437C117.708 79.4705 117.743 79.3981 117.777 79.3262L114.437 80.5896L118.34 73.769C118.299 73.7285 118.256 73.6918 118.212 73.6587L115.751 77.9583L116.087 74.3373C116.024 74.4232 115.96 74.5153 115.894 74.6127Z" fill="#98F2E8"/>
<path d="M116.388 85.6666H106.463C106.379 85.6666 106.313 85.7359 106.322 85.8192C106.435 86.8672 107.105 92.9632 107.363 93.0694C107.645 93.1855 115.33 93.1869 115.612 93.0694C115.888 92.9543 116.502 88.0609 116.528 85.8058C116.529 85.7279 116.465 85.6666 116.388 85.6666Z" fill="url(#paint14_linear_214_1151)"/>
<g filter="url(#filter0_d_214_1151)">
<path d="M21.3467 30.8091C21.3467 29.8886 22.0929 29.1425 23.0133 29.1425H42.5227C43.4432 29.1425 44.1894 29.8886 44.1894 30.8091V49.1904C44.1894 50.1109 43.4432 50.8571 42.5227 50.8571H23.0133C22.0929 50.8571 21.3467 50.1109 21.3467 49.1904V30.8091Z" fill="url(#paint15_linear_214_1151)"/>
</g>
<path d="M29.1333 35.3611C29.1968 34.8689 29.6159 34.5004 30.1122 34.5004H35.5622C36.0609 34.5004 36.4812 34.8723 36.5419 35.3673L37.6394 44.3211C37.7116 44.9094 37.2525 45.4282 36.6597 45.4282H28.9569C28.3616 45.4282 27.9018 44.9052 27.978 44.3149L29.1333 35.3611Z" fill="white" fill-opacity="0.62"/>
<path d="M37.2855 41.4371L37.6391 44.3218C37.7112 44.9102 37.2521 45.4289 36.6594 45.4289H33.7064C33.5732 45.0895 33.5 44.7199 33.5 44.3333C33.5 42.6764 34.8431 41.3333 36.5 41.3333C36.7718 41.3333 37.0351 41.3694 37.2855 41.4371Z" fill="#FFFDFD" fill-opacity="0.81"/>
<path d="M31.5374 36.6718C31.5291 36.4508 31.3432 36.2784 31.1222 36.2867C30.9012 36.2949 30.7287 36.4808 30.737 36.7018L31.5374 36.6718ZM33.1113 38.4494L33.0865 38.0497L33.1113 38.4494ZM35.1301 36.737C35.1578 36.5176 35.0024 36.3172 34.783 36.2895C34.5636 36.2618 34.3632 36.4172 34.3355 36.6367L35.1301 36.737ZM31.1372 36.6868C30.737 36.7018 30.737 36.702 30.7371 36.7023C30.7371 36.7023 30.7371 36.7026 30.7371 36.7027C30.7371 36.703 30.7371 36.7034 30.7371 36.7038C30.7371 36.7045 30.7372 36.7054 30.7372 36.7064C30.7373 36.7084 30.7374 36.7109 30.7376 36.7138C30.7379 36.7196 30.7384 36.7272 30.739 36.7364C30.7404 36.755 30.7425 36.7802 30.7459 36.8113C30.7528 36.8733 30.7648 36.959 30.7859 37.0605C30.8278 37.2615 30.9076 37.5346 31.0612 37.8083C31.2158 38.0838 31.4493 38.3666 31.7983 38.5698C32.1495 38.7743 32.5914 38.8828 33.136 38.8491L33.0865 38.0497C32.6793 38.0749 32.3987 37.9926 32.2013 37.8776C32.0016 37.7614 31.8606 37.5962 31.7596 37.4163C31.6577 37.2347 31.6008 37.045 31.57 36.8971C31.5548 36.8241 31.5464 36.7639 31.542 36.7235C31.5398 36.7034 31.5385 36.6884 31.5379 36.6794C31.5376 36.6749 31.5374 36.672 31.5373 36.6707C31.5373 36.67 31.5373 36.6698 31.5373 36.67C31.5373 36.6701 31.5373 36.6703 31.5373 36.6706C31.5373 36.6707 31.5373 36.6709 31.5374 36.6711C31.5374 36.6712 31.5374 36.6714 31.5374 36.6714C31.5374 36.6716 31.5374 36.6718 31.1372 36.6868ZM33.136 38.8491C34.0296 38.7937 34.5371 38.2246 34.8042 37.7238C34.9373 37.4741 35.0177 37.231 35.0649 37.0523C35.0887 36.9622 35.1046 36.8865 35.1147 36.8321C35.1198 36.8048 35.1234 36.7827 35.1259 36.7666C35.1271 36.7586 35.1281 36.752 35.1288 36.747C35.1291 36.7446 35.1294 36.7425 35.1296 36.7408C35.1297 36.74 35.1298 36.7392 35.1299 36.7386C35.13 36.7383 35.13 36.738 35.13 36.7377C35.13 36.7376 35.1301 36.7374 35.1301 36.7373C35.1301 36.7372 35.1301 36.737 34.7328 36.6868C34.3355 36.6367 34.3355 36.6365 34.3356 36.6364C34.3356 36.6363 34.3356 36.6362 34.3356 36.6361C34.3356 36.6359 34.3356 36.6358 34.3356 36.6357C34.3357 36.6355 34.3357 36.6353 34.3357 36.6353C34.3357 36.6352 34.3357 36.6355 34.3356 36.6362C34.3354 36.6376 34.335 36.6405 34.3343 36.6447C34.333 36.6532 34.3307 36.6672 34.3273 36.6859C34.3203 36.7234 34.3086 36.7793 34.2906 36.8476C34.2541 36.9857 34.1934 37.1669 34.0974 37.347C33.9062 37.7056 33.6029 38.0177 33.0865 38.0497L33.136 38.8491Z" fill="#FFA273" fill-opacity="0.59"/>
<g filter="url(#filter1_d_214_1151)">
<path d="M49.126 19.0506C49.126 18.005 49.9737 17.1573 51.0193 17.1573H66.8322C67.8779 17.1573 68.7256 18.005 68.7256 19.0506V33.8765C68.7256 34.9222 67.8779 35.7699 66.8322 35.7699H51.0193C49.9736 35.7699 49.126 34.9222 49.126 33.8765V19.0506Z" fill="url(#paint16_linear_214_1151)"/>
</g>
<path opacity="0.6" d="M53.4981 24.0022C53.3953 23.7258 53.5997 23.4316 53.8946 23.4316H62.1624C62.2428 23.4316 62.307 23.4988 62.3032 23.5792L62.0594 28.8226C62.0419 29.1988 61.7317 29.4948 61.3551 29.4948H56.0318C55.7373 29.4948 55.4738 29.3117 55.3711 29.0357L53.4981 24.0022Z" fill="white"/>
<path d="M57.8693 29.9884C57.8693 30.4556 57.4905 30.8344 57.0233 30.8344C56.556 30.8344 56.1772 30.4556 56.1772 29.9884C56.1772 29.5211 56.556 29.1423 57.0233 29.1423C57.4905 29.1423 57.8693 29.5211 57.8693 29.9884Z" fill="white"/>
<path d="M61.2531 29.9884C61.2531 30.4556 60.8743 30.8344 60.4071 30.8344C59.9398 30.8344 59.561 30.4556 59.561 29.9884C59.561 29.5211 59.9398 29.1423 60.4071 29.1423C60.8743 29.1423 61.2531 29.5211 61.2531 29.9884Z" fill="white"/>
<path d="M64.073 21.6694H61.8875L61.6143 29.1049H55.813" stroke="white" stroke-width="0.800904" stroke-linecap="round" stroke-linejoin="round"/>
<g filter="url(#filter2_d_214_1151)">
<path d="M42.3574 17.1577C42.3574 21.5186 38.8222 25.0539 34.4612 25.0539C30.1002 25.0539 26.5649 21.5186 26.5649 17.1577C26.5649 12.7967 30.1002 9.26141 34.4612 9.26141C38.8222 9.26141 42.3574 12.7967 42.3574 17.1577Z" fill="url(#paint17_linear_214_1151)"/>
</g>
<path d="M33.2622 18.2866L34.0025 17.6168L34.305 17.3342" stroke="#FDFDFD" stroke-width="0.480543"/>
<path d="M38.4083 15.5371C38.4083 16.8999 37.3035 18.0047 35.9407 18.0047C34.5779 18.0047 33.4731 16.8999 33.4731 15.5371C33.4731 14.1743 34.5779 13.0695 35.9407 13.0695C37.3035 13.0695 38.4083 14.1743 38.4083 15.5371Z" fill="white" fill-opacity="0.63"/>
<path d="M33.7301 18.3182L33.058 17.747C32.8658 17.5836 32.5742 17.6237 32.4333 17.8329L30.7329 20.356C30.6086 20.5405 30.6484 20.7898 30.824 20.9263L30.8739 20.9651C31.0326 21.0886 31.2562 21.0833 31.4089 20.9524L33.7314 18.9617C33.9289 18.7924 33.9282 18.4867 33.7301 18.3182Z" fill="white"/>
<path d="M90.582 0.16626V27.6621" stroke="url(#paint18_linear_214_1151)" stroke-width="0.480543"/>
<path d="M91.9926 31.187C91.9926 31.9268 91.3928 32.5266 90.653 32.5266C89.9132 32.5266 89.3135 31.9268 89.3135 31.187C89.3135 30.4472 89.9132 29.8475 90.653 29.8475C91.3928 29.8475 91.9926 30.4472 91.9926 31.187Z" fill="#8FC0C7"/>
<path d="M86.969 30.4823L90.2475 27.4153C90.3995 27.2731 90.6324 27.2626 90.7965 27.3906L94.3923 30.1932C94.7034 30.4356 94.5426 30.9343 94.1485 30.9495L87.2742 31.2139C86.8829 31.229 86.683 30.7499 86.969 30.4823Z" fill="#B7E4EB"/>
<circle cx="21.516" cy="57.691" r="0.758654" fill="url(#paint19_linear_214_1151)"/>
<circle cx="103.917" cy="50.0826" r="1.41667" fill="url(#paint20_linear_214_1151)"/>
<circle cx="45.9931" cy="13.2518" r="0.962808" fill="url(#paint21_linear_214_1151)"/>
<circle cx="84.8085" cy="68.4501" r="0.962808" fill="#FFBBB6"/>
<g filter="url(#filter3_d_214_1151)">
<circle cx="106.166" cy="27.9996" r="0.833333" fill="url(#paint22_linear_214_1151)"/>
</g>
<defs>
<filter id="filter0_d_214_1151" x="12.8267" y="21.5691" width="39.8828" height="38.7547" filterUnits="userSpaceOnUse" color-interpolation-filters="sRGB">
<feFlood flood-opacity="0" result="BackgroundImageFix"/>
<feColorMatrix in="SourceAlpha" type="matrix" values="0 0 0 0 0 0 0 0 0 0 0 0 0 0 0 0 0 0 127 0" result="hardAlpha"/>
<feOffset dy="0.946667"/>
<feGaussianBlur stdDeviation="4.26"/>
<feColorMatrix type="matrix" values="0 0 0 0 0 0 0 0 0 0 0 0 0 0 0 0 0 0 0.1 0"/>
<feBlend mode="normal" in2="BackgroundImageFix" result="effect1_dropShadow_214_1151"/>
<feBlend mode="normal" in="SourceGraphic" in2="effect1_dropShadow_214_1151" result="shape"/>
</filter>
<filter id="filter1_d_214_1151" x="40.606" y="9.58395" width="36.6396" height="35.6525" filterUnits="userSpaceOnUse" color-interpolation-filters="sRGB">
<feFlood flood-opacity="0" result="BackgroundImageFix"/>
<feColorMatrix in="SourceAlpha" type="matrix" values="0 0 0 0 0 0 0 0 0 0 0 0 0 0 0 0 0 0 127 0" result="hardAlpha"/>
<feOffset dy="0.946667"/>
<feGaussianBlur stdDeviation="4.26"/>
<feColorMatrix type="matrix" values="0 0 0 0 0 0 0 0 0 0 0 0 0 0 0 0 0 0 0.1 0"/>
<feBlend mode="normal" in2="BackgroundImageFix" result="effect1_dropShadow_214_1151"/>
<feBlend mode="normal" in="SourceGraphic" in2="effect1_dropShadow_214_1151" result="shape"/>
</filter>
<filter id="filter2_d_214_1151" x="18.0449" y="1.68808" width="32.8325" height="32.8325" filterUnits="userSpaceOnUse" color-interpolation-filters="sRGB">
<feFlood flood-opacity="0" result="BackgroundImageFix"/>
<feColorMatrix in="SourceAlpha" type="matrix" values="0 0 0 0 0 0 0 0 0 0 0 0 0 0 0 0 0 0 127 0" result="hardAlpha"/>
<feOffset dy="0.946667"/>
<feGaussianBlur stdDeviation="4.26"/>
<feColorMatrix type="matrix" values="0 0 0 0 0 0 0 0 0 0 0 0 0 0 0 0 0 0 0.1 0"/>
<feBlend mode="normal" in2="BackgroundImageFix" result="effect1_dropShadow_214_1151"/>
<feBlend mode="normal" in="SourceGraphic" in2="effect1_dropShadow_214_1151" result="shape"/>
</filter>
<filter id="filter3_d_214_1151" x="98.7144" y="21.1359" width="14.9043" height="14.904" filterUnits="userSpaceOnUse" color-interpolation-filters="sRGB">
<feFlood flood-opacity="0" result="BackgroundImageFix"/>
<feColorMatrix in="SourceAlpha" type="matrix" values="0 0 0 0 0 0 0 0 0 0 0 0 0 0 0 0 0 0 127 0" result="hardAlpha"/>
<feOffset dy="0.588324"/>
<feGaussianBlur stdDeviation="3.30932"/>
<feColorMatrix type="matrix" values="0 0 0 0 0.396078 0 0 0 0 0.658824 0 0 0 0 0.988235 0 0 0 0.15 0"/>
<feBlend mode="normal" in2="BackgroundImageFix" result="effect1_dropShadow_214_1151"/>
<feBlend mode="normal" in="SourceGraphic" in2="effect1_dropShadow_214_1151" result="shape"/>
</filter>
<linearGradient id="paint0_linear_214_1151" x1="20.4715" y1="48.9904" x2="27.6275" y2="25.2681" gradientUnits="userSpaceOnUse">
<stop stop-color="#FFD9F0"/>
<stop offset="1" stop-color="#EFF6FF"/>
</linearGradient>
<linearGradient id="paint1_linear_214_1151" x1="14.2227" y1="71.1658" x2="24.3894" y2="85.6658" gradientUnits="userSpaceOnUse">
<stop stop-color="#A7D9E0"/>
<stop offset="1" stop-color="#E3DBFB"/>
</linearGradient>
<linearGradient id="paint2_linear_214_1151" x1="31.7223" y1="70.6657" x2="27.639" y2="79.4157" gradientUnits="userSpaceOnUse">
<stop stop-color="#76B0B8"/>
<stop offset="1" stop-color="#C9C2E1"/>
</linearGradient>
<linearGradient id="paint3_linear_214_1151" x1="21.3057" y1="79.5827" x2="16.1391" y2="88.166" gradientUnits="userSpaceOnUse">
<stop stop-color="#76B0B8"/>
<stop offset="1" stop-color="#C9C2E2"/>
</linearGradient>
<linearGradient id="paint4_linear_214_1151" x1="7.35317" y1="61.5734" x2="7.35317" y2="93.5814" gradientUnits="userSpaceOnUse">
<stop stop-color="#A7D9E0"/>
<stop offset="1" stop-color="#E5DBFC"/>
</linearGradient>
<linearGradient id="paint5_linear_214_1151" x1="14.6938" y1="67.165" x2="14.6938" y2="75.2023" gradientUnits="userSpaceOnUse">
<stop stop-color="#68D7FA"/>
<stop offset="1" stop-color="#77E9C9"/>
</linearGradient>
<linearGradient id="paint6_linear_214_1151" x1="12.0853" y1="67.1656" x2="12.0853" y2="75.2028" gradientUnits="userSpaceOnUse">
<stop stop-color="#A58AFF"/>
<stop offset="1" stop-color="#5EB2FF"/>
</linearGradient>
<linearGradient id="paint7_linear_214_1151" x1="71.7213" y1="89.9995" x2="63.8046" y2="51.0828" gradientUnits="userSpaceOnUse">
<stop stop-color="#B483FF"/>
<stop offset="1" stop-color="#68ADFF"/>
</linearGradient>
<linearGradient id="paint8_linear_214_1151" x1="57.3046" y1="45.8322" x2="62.8046" y2="47.1656" gradientUnits="userSpaceOnUse">
<stop stop-color="#FF956F"/>
<stop offset="1" stop-color="#FFC380"/>
</linearGradient>
<linearGradient id="paint9_linear_214_1151" x1="42.138" y1="68.2491" x2="44.138" y2="84.1658" gradientUnits="userSpaceOnUse">
<stop stop-color="#CE5379"/>
<stop offset="1" stop-color="#F49274"/>
</linearGradient>
<linearGradient id="paint10_linear_214_1151" x1="68.8049" y1="59.1655" x2="69.3049" y2="73.6655" gradientUnits="userSpaceOnUse">
<stop stop-color="#F3F6F8"/>
<stop offset="1" stop-color="#AAD7F5"/>
</linearGradient>
<linearGradient id="paint11_linear_214_1151" x1="70.3299" y1="41.9322" x2="70.4723" y2="44.7485" gradientUnits="userSpaceOnUse">
<stop stop-color="#954040"/>
<stop offset="1" stop-color="#612828"/>
</linearGradient>
<linearGradient id="paint12_linear_214_1151" x1="26.6393" y1="60.3324" x2="46.3893" y2="84.7491" gradientUnits="userSpaceOnUse">
<stop stop-color="#C94B79"/>
<stop offset="1" stop-color="#F59474"/>
</linearGradient>
<linearGradient id="paint13_linear_214_1151" x1="114.556" y1="66.5834" x2="109.306" y2="90.4168" gradientUnits="userSpaceOnUse">
<stop stop-color="#68D7FA"/>
<stop offset="1" stop-color="#7AEDBE"/>
</linearGradient>
<linearGradient id="paint14_linear_214_1151" x1="111.417" y1="85.6666" x2="111.468" y2="94.3651" gradientUnits="userSpaceOnUse">
<stop stop-color="#FF8C6B"/>
<stop offset="1" stop-color="#FFCB82"/>
</linearGradient>
<linearGradient id="paint15_linear_214_1151" x1="32.768" y1="29.1425" x2="32.768" y2="50.8571" gradientUnits="userSpaceOnUse">
<stop stop-color="#FF906D"/>
<stop offset="1" stop-color="#FFCB82"/>
</linearGradient>
<linearGradient id="paint16_linear_214_1151" x1="58.9258" y1="17.1573" x2="54.1391" y2="35.8329" gradientUnits="userSpaceOnUse">
<stop stop-color="#7AEDC0"/>
<stop offset="1" stop-color="#68D7F9"/>
</linearGradient>
<linearGradient id="paint17_linear_214_1151" x1="34.4611" y1="9.26141" x2="34.4611" y2="25.0539" gradientUnits="userSpaceOnUse">
<stop stop-color="#B681FF"/>
<stop offset="1" stop-color="#64AFFF"/>
</linearGradient>
<linearGradient id="paint18_linear_214_1151" x1="84.4292" y1="24.4996" x2="84.4431" y2="3.8326" gradientUnits="userSpaceOnUse">
<stop stop-color="#A7D9E0"/>
<stop offset="1" stop-color="#A7D9E0" stop-opacity="0"/>
</linearGradient>
<linearGradient id="paint19_linear_214_1151" x1="21.516" y1="56.9324" x2="21.516" y2="58.4497" gradientUnits="userSpaceOnUse">
<stop stop-color="#FFB798"/>
<stop offset="1" stop-color="#FFDF6F"/>
</linearGradient>
<linearGradient id="paint20_linear_214_1151" x1="103.917" y1="48.666" x2="103.917" y2="51.4993" gradientUnits="userSpaceOnUse">
<stop stop-color="#FFB798"/>
<stop offset="1" stop-color="#FFDF6F"/>
</linearGradient>
<linearGradient id="paint21_linear_214_1151" x1="45.9931" y1="12.289" x2="45.9931" y2="14.2146" gradientUnits="userSpaceOnUse">
<stop stop-color="#FFB798"/>
<stop offset="1" stop-color="#FF6F9A"/>
</linearGradient>
<linearGradient id="paint22_linear_214_1151" x1="106.166" y1="27.1663" x2="105.619" y2="28.8329" gradientUnits="userSpaceOnUse">
<stop stop-color="#68D7FA"/>
<stop offset="1" stop-color="#7EF1B3"/>
</linearGradient>
</defs>
</svg>
