<svg width="25" height="25" viewBox="0 0 25 25" fill="none" xmlns="http://www.w3.org/2000/svg">
<path fill-rule="evenodd" clip-rule="evenodd" d="M3.12467 3.125C2.54938 3.125 2.08301 3.59137 2.08301 4.16667C2.08301 4.74196 2.54938 5.20833 3.12467 5.20833V4.16667L3.12469 5.20833H3.12473H3.1249H3.12502H3.12517H3.12535H3.12556H3.12666H3.12819H3.12911H3.12962H3.13014H3.13252H3.13532H3.13609H3.13688H3.13853H3.17859H3.32812H3.84082H4.37652L6.79641 15.8559C6.92118 16.4048 7.45834 16.7531 8.00701 16.6483C8.07042 16.6604 8.13587 16.6667 8.2028 16.6667H18.7497C19.1839 16.6667 19.5726 16.3973 19.725 15.9908L22.85 7.65742C22.97 7.33753 22.9254 6.97915 22.7308 6.69834C22.5362 6.41753 22.2163 6.25 21.8747 6.25H6.74972L6.22377 3.93581C6.11598 3.46155 5.69436 3.125 5.20801 3.125H3.84082H3.32812H3.17859H3.17223H3.16624H3.16481H3.1634H3.16064H3.15543H3.14618H3.14514H3.14412H3.14312H3.14216H3.14121H3.14029H3.13853H3.13252H3.13014H3.12962H3.12911H3.12819H3.12556H3.12517H3.12502H3.1249H3.12473H3.12469L3.12467 4.16667V3.125ZM7.22321 8.33333L8.64366 14.5833H18.0278L20.3715 8.33333H7.22321ZM10.4163 17.7083C9.26575 17.7083 8.33301 18.6411 8.33301 19.7917C8.33301 20.9423 9.26575 21.875 10.4163 21.875C11.5669 21.875 12.4997 20.9423 12.4997 19.7917C12.4997 18.6411 11.5669 17.7083 10.4163 17.7083ZM14.583 19.7917C14.583 18.6411 15.5157 17.7083 16.6663 17.7083C17.8169 17.7083 18.7497 18.6411 18.7497 19.7917C18.7497 20.9423 17.8169 21.875 16.6663 21.875C15.5157 21.875 14.583 20.9423 14.583 19.7917Z" fill="#1C294D" fill-opacity="0.5"/>
</svg>
