<svg width="20" height="20" class="basketDesktop" viewBox="0 0 20 20" fill="none" xmlns="http://www.w3.org/2000/svg">
<path fill-rule="evenodd" clip-rule="evenodd" d="M2.49984 2.5C2.0396 2.5 1.6665 2.8731 1.6665 3.33333C1.6665 3.79357 2.0396 4.16667 2.49984 4.16667V3.33333L2.49985 4.16667H2.49988H2.50001H2.50011H2.50024H2.50038H2.50054H2.50142H2.50265H2.50339H2.50379H2.50421H2.50612H2.50836H2.50897H2.5096H2.51093H2.54297H2.6626H3.07275H3.50131L5.43723 12.6847C5.53704 13.1239 5.96677 13.4025 6.40571 13.3186C6.45644 13.3283 6.5088 13.3333 6.56234 13.3333H14.9998C15.3472 13.3333 15.6581 13.1179 15.7801 12.7926L18.2801 6.12594C18.3761 5.87002 18.3405 5.58332 18.1848 5.35867C18.0291 5.13403 17.7732 5 17.4998 5H5.39988L4.97911 3.14865C4.89289 2.76924 4.55559 2.5 4.1665 2.5H3.07275H2.6626H2.54297H2.53788H2.53309H2.53194H2.53081H2.52861H2.52444H2.51704H2.51621H2.51539H2.5146H2.51382H2.51307H2.51233H2.51093H2.50612H2.50421H2.50379H2.50339H2.50265H2.50054H2.50024H2.50011H2.50001H2.49988H2.49985L2.49984 3.33333V2.5ZM5.77866 6.66667L6.91503 11.6667H14.4223L16.2973 6.66667H5.77866ZM8.33317 14.1667C7.4127 14.1667 6.6665 14.9129 6.6665 15.8333C6.6665 16.7538 7.4127 17.5 8.33317 17.5C9.25365 17.5 9.99984 16.7538 9.99984 15.8333C9.99984 14.9129 9.25365 14.1667 8.33317 14.1667ZM11.6665 15.8333C11.6665 14.9129 12.4127 14.1667 13.3332 14.1667C14.2536 14.1667 14.9998 14.9129 14.9998 15.8333C14.9998 16.7538 14.2536 17.5 13.3332 17.5C12.4127 17.5 11.6665 16.7538 11.6665 15.8333Z" fill="#1C294D" fill-opacity="0.5"/>
</svg>
