<svg width="20" height="20" viewBox="0 0 20 20" fill="none" xmlns="http://www.w3.org/2000/svg">
<path fill-rule="evenodd" clip-rule="evenodd" d="M6.66667 4.1815C6.66667 3.71853 7.03976 3.34323 7.5 3.34323H12.5C12.9602 3.34323 13.3333 3.71853 13.3333 4.1815V16.2336C13.3333 16.5964 12.9061 16.7879 12.6379 16.5451L10.5575 14.6616C10.2405 14.3747 9.75945 14.3747 9.44253 14.6616L7.36207 16.5451C7.09393 16.7879 6.66667 16.5964 6.66667 16.2336V4.1815ZM7.5 1.66669H12.5C13.8807 1.66669 15 2.79261 15 4.1815V16.2336C15 18.0479 12.8637 19.005 11.523 17.7913L10 16.4125L8.47701 17.7913C7.13633 19.005 5 18.0479 5 16.2336V4.1815C5 2.79261 6.11929 1.66669 7.5 1.66669Z" fill="#1C294D" fill-opacity="0.5"/>
</svg>
