<svg class="header__burger" width="20" height="20" viewBox="0 0 20 20" fill="none" xmlns="http://www.w3.org/2000/svg">
<path fill-rule="evenodd" clip-rule="evenodd" d="M3.3335 5.83333C3.3335 5.3731 3.70659 5 4.16683 5H15.8335C16.2937 5 16.6668 5.3731 16.6668 5.83333C16.6668 6.29357 16.2937 6.66667 15.8335 6.66667H4.16683C3.70659 6.66667 3.3335 6.29357 3.3335 5.83333ZM3.3335 10C3.3335 9.53976 3.70659 9.16667 4.16683 9.16667H11.6668C12.1271 9.16667 12.5002 9.53976 12.5002 10C12.5002 10.4602 12.1271 10.8333 11.6668 10.8333H4.16683C3.70659 10.8333 3.3335 10.4602 3.3335 10ZM4.16683 13.3333C3.70659 13.3333 3.3335 13.7064 3.3335 14.1667C3.3335 14.6269 3.70659 15 4.16683 15H15.8335C16.2937 15 16.6668 14.6269 16.6668 14.1667C16.6668 13.7064 16.2937 13.3333 15.8335 13.3333H4.16683Z" fill="#1C294D"/>
<path fill-rule="evenodd" clip-rule="evenodd" d="M3.33398 10C3.33398 9.53976 3.70708 9.16666 4.16732 9.16666H11.6673C12.1276 9.16666 12.5007 9.53976 12.5007 10C12.5007 10.4602 12.1276 10.8333 11.6673 10.8333H4.16732C3.70708 10.8333 3.33398 10.4602 3.33398 10Z" fill="#FC6E1D"/>
</svg>
