<svg class="deliveryMan" width="98" height="101" viewBox="0 0 98 101" fill="none" xmlns="http://www.w3.org/2000/svg">
<path fill-rule="evenodd" clip-rule="evenodd" d="M97.7781 59.2927V59.4003C97.7781 59.4169 97.7781 59.4336 97.7781 59.4479C97.7781 59.5146 97.7781 59.5827 97.7781 59.6503V59.6593C97.7781 59.6884 97.7781 59.7169 97.7781 59.746C97.7781 59.8207 97.7753 59.8945 97.7729 59.9688C97.7729 60.0084 97.7729 60.0479 97.7695 60.0874C97.7662 60.1269 97.7695 60.1617 97.7662 60.1988C97.7662 60.2622 97.7619 60.326 97.7591 60.3893C97.7591 60.3993 97.7591 60.4098 97.7591 60.4198C97.7591 60.4298 97.7591 60.4307 97.7591 60.436C97.7553 60.5283 97.7505 60.6202 97.7457 60.7126L97.7424 60.784C97.7391 60.8464 97.7348 60.9093 97.731 60.9717C97.7272 61.034 97.7243 61.0869 97.7205 61.144C97.7069 61.3561 97.691 61.567 97.6729 61.7769V61.7769C97.6529 62.0045 97.6307 62.2307 97.6062 62.4554V62.4554C97.5894 62.605 97.5719 62.7543 97.5538 62.9035L97.5253 63.1273C97.4815 63.4606 97.4338 63.7916 97.3824 64.1201C97.3643 64.229 97.3461 64.3378 97.3277 64.4463C97.3153 64.5187 97.3029 64.5892 97.29 64.6635C97.2638 64.8063 97.2377 64.9492 97.21 65.092V65.092C97.1691 65.306 97.1264 65.5182 97.082 65.7287V65.7287C97.0524 65.8715 97.0219 66.0082 96.991 66.1477V66.1477C96.9434 66.3563 96.8958 66.562 96.8481 66.7667V66.7667C96.7656 67.1083 96.6796 67.4445 96.5901 67.7753C96.5186 68.0404 96.4451 68.3018 96.3696 68.5596C96.3321 68.6865 96.294 68.8135 96.2553 68.9405C96.1401 69.3214 96.0215 69.6933 95.8996 70.0562C95.8393 70.2375 95.778 70.4162 95.7158 70.5924C95.4691 71.2981 95.2144 71.9657 94.9615 72.588C94.9191 72.6909 94.8772 72.7933 94.8353 72.8942C94.8144 72.9452 94.7934 72.9952 94.772 73.0456C94.7307 73.145 94.689 73.2434 94.6468 73.3409C94.5423 73.584 94.4393 73.8189 94.3377 74.0456L94.2163 74.3123C94.0558 74.6632 93.8997 74.9913 93.7506 75.2956C93.6763 75.447 93.6038 75.5925 93.533 75.7322C93.4801 75.837 93.4292 75.9384 93.3782 76.036C93.3465 76.0995 93.3136 76.163 93.2797 76.2265L93.232 76.3179C93.2006 76.3784 93.1692 76.437 93.1392 76.4932C93.0916 76.5784 93.0501 76.6598 93.0078 76.737C92.9792 76.7884 92.9521 76.8384 92.9259 76.8865C92.8863 76.9589 92.8478 77.0293 92.8121 77.0908C92.7644 77.1765 92.7198 77.2549 92.6783 77.326C92.6478 77.3793 92.6192 77.4284 92.593 77.4731C92.5759 77.5031 92.5592 77.5308 92.5454 77.5569C92.5373 77.5698 92.5302 77.5827 92.523 77.595L92.4825 77.6612C92.4221 77.7626 92.3873 77.815 92.3873 77.815C87.4655 85.2353 79.7419 91.9009 70.5141 96.1579C69.5703 96.5931 68.6114 97.0026 67.6375 97.3864C63.5733 98.9859 59.2605 100.115 54.7978 100.645C53.0404 100.859 51.2725 100.977 49.5022 100.997C48.6086 101.006 47.7112 100.99 46.8099 100.95C42.6978 100.757 38.6281 100.031 34.7036 98.7878C27.6719 96.5645 20.6354 92.5699 13.9374 86.3672C13.8613 86.2972 13.7865 86.2272 13.7113 86.1562C13.6046 86.0572 13.4994 85.9567 13.3946 85.8567L13.3379 85.802C13.2392 85.7067 13.1411 85.6115 13.0437 85.5163V85.5163L13.0403 85.5124C13.0051 85.4777 12.9699 85.4439 12.9351 85.4086C12.8875 85.3648 12.8456 85.3205 12.8013 85.2767C12.757 85.2329 12.727 85.2029 12.6903 85.1658C12.6318 85.1077 12.5746 85.0491 12.517 84.9915C12.4818 84.9563 12.4475 84.9206 12.4127 84.8853C12.3318 84.8031 12.251 84.7204 12.1703 84.6372C12.0865 84.5496 12.0023 84.462 11.9189 84.3739C11.897 84.351 11.8751 84.3263 11.8542 84.3058L11.7637 84.2106C11.7037 84.1472 11.6446 84.0839 11.5851 84.0201C11.5604 83.9939 11.5375 83.9672 11.5113 83.9406L11.3508 83.7663L11.3408 83.7553C11.3361 83.7501 11.3304 83.7439 11.3256 83.7377C11.2666 83.6742 11.208 83.6107 11.1499 83.5473L11.0813 83.4706C11.0109 83.392 10.9385 83.3135 10.8709 83.2325C10.8528 83.213 10.8356 83.1925 10.8185 83.1735L10.7504 83.0958C10.6837 83.0197 10.6175 82.9435 10.5518 82.8673C10.5247 82.8363 10.4975 82.8049 10.4713 82.772C10.4056 82.6965 10.3407 82.6205 10.2766 82.5439L10.2428 82.504L10.2214 82.4787L10.1661 82.413C10.1275 82.3678 10.0899 82.323 10.0523 82.2773C10.0437 82.2673 10.0352 82.2563 10.0266 82.2459L9.97517 82.184L9.76755 81.933L9.59899 81.724L9.45089 81.5392L9.36661 81.4326L9.28852 81.334L9.28376 81.3273C9.22614 81.2549 9.16947 81.1845 9.11376 81.1092C9.08043 81.0673 9.04757 81.0249 9.01519 80.9826C8.94615 80.8926 8.87758 80.803 8.80901 80.7126L8.75663 80.6426C8.71377 80.5859 8.67139 80.5297 8.62901 80.4726C8.6152 80.4535 8.60044 80.4354 8.58663 80.4164L8.57139 80.3959C8.49425 80.2921 8.41854 80.1888 8.34283 80.085L8.33997 80.0807L8.3195 80.0531C8.24902 79.9578 8.1795 79.8597 8.11093 79.7631L8.06331 79.6926C8.00427 79.6102 7.94617 79.5274 7.8876 79.444L7.83998 79.375L7.79237 79.3059L7.66999 79.1293L7.64523 79.0926C7.57951 78.9974 7.5138 78.9021 7.44857 78.8036L7.34143 78.6426L7.25381 78.5117C7.24714 78.5017 7.24048 78.4907 7.23429 78.4807C7.2281 78.4707 7.21857 78.4579 7.21143 78.4464L7.12572 78.316L7.07572 78.2388L7.02524 78.1622L6.99858 78.1203C6.93667 78.025 6.87477 77.9269 6.81382 77.8307C6.74477 77.7222 6.67621 77.6126 6.60811 77.5036L6.58621 77.4684C6.54875 77.4077 6.51129 77.3469 6.47383 77.286C6.44288 77.2355 6.41193 77.1855 6.38145 77.135C6.25637 76.9287 6.1332 76.7224 6.01194 76.516L6.00765 76.5089L5.82385 76.1913C5.82385 76.1884 5.82099 76.1865 5.82004 76.1841C5.77242 76.1022 5.7248 76.0203 5.68004 75.9384L5.63242 75.8503C5.58957 75.7741 5.54671 75.697 5.50433 75.6203C5.48862 75.5932 5.47338 75.5656 5.45671 75.5384C5.431 75.4908 5.40576 75.4432 5.38052 75.3956C5.33672 75.3165 5.29386 75.2365 5.25148 75.1575C5.24005 75.1365 5.22815 75.1151 5.2172 75.0941C5.1872 75.0384 5.15767 74.9822 5.12815 74.9256L5.08577 74.8456L5.08148 74.838C5.05196 74.7827 5.02339 74.727 4.99434 74.6713C4.9653 74.6156 4.93625 74.5594 4.90768 74.5027C4.90768 74.497 4.90197 74.4913 4.89863 74.4851L4.86816 74.4265C4.85197 74.3956 4.83673 74.3642 4.82054 74.3313C4.79197 74.2746 4.76292 74.218 4.73483 74.1613L4.70721 74.107L4.56436 73.8213L4.39817 73.4794C4.34484 73.3685 4.29198 73.2571 4.2396 73.1461C4.22865 73.1232 4.2177 73.0985 4.2077 73.0775C4.19056 73.0394 4.17294 73.0023 4.15532 72.9642C4.1377 72.9261 4.1258 72.9013 4.11151 72.869C4.09722 72.8366 4.0877 72.8171 4.0758 72.7909C4.02818 72.6833 3.9777 72.5766 3.92913 72.469C3.92247 72.4528 3.91532 72.4371 3.90818 72.4214L3.82961 72.2447L3.76628 72.1018C3.72628 72.0109 3.68676 71.9204 3.64819 71.829C3.63628 71.8028 3.62533 71.7761 3.6139 71.7499C3.59486 71.7061 3.57676 71.6628 3.55819 71.6195C3.52867 71.55 3.49962 71.4795 3.4701 71.41C3.4703 71.4089 3.4703 71.4077 3.4701 71.4066C3.44089 71.3377 3.41232 71.2687 3.38439 71.1995L3.33248 71.0723C3.32153 71.0443 3.30963 71.0166 3.29867 70.9885C3.2582 70.8895 3.2182 70.79 3.17915 70.6909C3.15963 70.6433 3.14011 70.5928 3.12058 70.5428C3.09677 70.4805 3.07297 70.4181 3.0482 70.3557V70.3557C3.02678 70.3 3.00535 70.2443 2.9844 70.1881C2.97821 70.1733 2.97249 70.1586 2.96678 70.1438C2.92726 70.0409 2.88916 69.9381 2.85107 69.8348C2.82821 69.7729 2.80345 69.711 2.7825 69.649C2.73964 69.5322 2.69726 69.4152 2.65536 69.2981C2.65563 69.2964 2.65563 69.2946 2.65536 69.2929C2.61393 69.1762 2.5725 69.06 2.5325 68.9434C2.52393 68.9172 2.51441 68.891 2.50536 68.8653C2.47298 68.7729 2.44108 68.6805 2.41013 68.5881C2.39965 68.5557 2.38822 68.5234 2.37775 68.4929C2.37156 68.4753 2.36632 68.4577 2.36013 68.44C2.34822 68.4053 2.33727 68.371 2.32537 68.3362C2.31346 68.3015 2.30299 68.2681 2.29156 68.2334C2.26632 68.1581 2.24394 68.0834 2.2187 68.0081C2.20394 67.9643 2.19013 67.9201 2.17632 67.8762V67.8705C2.16823 67.8448 2.15966 67.8201 2.15204 67.7943C2.15204 67.7943 2.15204 67.7915 2.15204 67.7905C2.12728 67.711 2.10442 67.6315 2.07775 67.5524C2.07347 67.5415 2.07013 67.5296 2.0668 67.5186C2.04966 67.4634 2.03299 67.4082 2.01633 67.3529C1.99966 67.2977 1.98014 67.2353 1.96204 67.1763C1.9601 67.168 1.95772 67.1599 1.9549 67.152C1.93442 67.0825 1.91395 67.0134 1.89347 66.9434C1.873 66.8734 1.84919 66.7944 1.82776 66.7196C1.80062 66.6244 1.77395 66.5329 1.74776 66.4401C1.74395 66.4258 1.74014 66.4115 1.73586 66.3977C1.72729 66.3649 1.71776 66.3325 1.70872 66.2996C1.70443 66.2849 1.70014 66.2701 1.69633 66.2553C1.67967 66.1963 1.66348 66.1382 1.64872 66.0791L1.59539 65.8801C1.57919 65.8211 1.56348 65.762 1.54777 65.7025C1.5411 65.6768 1.53348 65.6506 1.52682 65.6244C1.50301 65.5344 1.4792 65.4449 1.45729 65.3549C1.43221 65.2555 1.40729 65.1563 1.38253 65.0573C1.35777 64.9582 1.33444 64.863 1.31254 64.7716C1.31254 64.7644 1.3092 64.7573 1.3073 64.7501C1.28968 64.6778 1.27301 64.6073 1.25539 64.5335C1.25254 64.5216 1.25016 64.5101 1.2473 64.4978C1.22825 64.4163 1.2092 64.3354 1.19111 64.254C1.17492 64.1849 1.15968 64.1149 1.14349 64.0459C1.1273 63.9768 1.11016 63.8968 1.09587 63.8221C1.07683 63.7373 1.05873 63.6521 1.04064 63.5668C1.03349 63.5325 1.02588 63.4973 1.01873 63.4621C0.986988 63.3119 0.956354 63.1618 0.926831 63.0116C0.921593 62.9864 0.916355 62.9611 0.911593 62.9368C0.906831 62.9126 0.904927 62.903 0.901594 62.8854C0.879689 62.7759 0.858579 62.6664 0.838262 62.5569C0.82731 62.5016 0.816834 62.4464 0.806834 62.3916C0.787469 62.2891 0.76874 62.1872 0.750645 62.0859C0.703027 61.814 0.655409 61.5426 0.612553 61.2697L0.603982 61.2193C0.600649 61.1988 0.597792 61.1778 0.594459 61.1574C0.562713 60.9558 0.532079 60.7539 0.502556 60.5517C0.481604 60.4088 0.461605 60.2617 0.441129 60.1169C0.401448 59.8265 0.364941 59.5355 0.331608 59.2441C0.298276 58.9527 0.266531 58.6616 0.236373 58.3708V58.3708C0.222087 58.2254 0.208596 58.0798 0.195898 57.9341C0.138121 57.2957 0.093678 56.6561 0.0625677 56.0151L0.0497109 55.7404C0.0233624 55.1547 0.00748978 54.5683 0.00209309 53.9814C-0.00425595 53.2954 0.00383908 52.6089 0.0263782 51.9219C0.0349494 51.6524 0.0454253 51.3819 0.0582821 51.1124V51.1124C0.0711389 50.8429 0.0863766 50.5724 0.103519 50.3029C0.120661 50.0334 0.139709 49.7634 0.161137 49.4934V49.4934C0.182088 49.2245 0.205421 48.9547 0.231135 48.6839V48.6839C0.269229 48.2801 0.312085 47.8766 0.359703 47.4734C0.375417 47.3392 0.392083 47.2049 0.407321 47.0706C0.416844 46.9954 0.426368 46.9201 0.436368 46.8449C0.469224 46.5897 0.504461 46.3354 0.541127 46.0801C0.565888 45.9106 0.591284 45.7409 0.617315 45.5711C0.682393 45.1467 0.753026 44.7234 0.829214 44.3011V44.3011C0.905085 43.8789 0.985877 43.4575 1.07159 43.0369C1.08873 42.9531 1.10603 42.869 1.12349 42.7845V42.7845C1.18698 42.4769 1.25365 42.1699 1.32349 41.8636C1.54189 40.8995 1.78649 39.9416 2.05728 38.9899C2.13283 38.7229 2.21077 38.4561 2.29108 38.1894C2.34441 38.0123 2.3987 37.8351 2.45393 37.658C2.53647 37.3929 2.62091 37.1283 2.70726 36.8642C3.53877 34.3283 4.55266 31.8559 5.74099 29.4663C5.88004 29.1857 6.02162 28.9068 6.16574 28.6297C6.52637 27.9354 6.90096 27.25 7.28952 26.5735C7.44476 26.3034 7.60237 26.0345 7.76237 25.7669C7.92236 25.4993 8.08474 25.2334 8.2495 24.9693C15.5736 13.1958 27.3071 4.5679 41.5343 3.59555C62.6809 2.1513 68.1127 9.50016 72.745 18.768V18.768C72.7978 18.8737 72.8511 18.9804 72.904 19.0875C73.1151 19.5135 73.3253 19.9421 73.5345 20.3732C74.6897 22.7541 75.8482 25.2374 77.2487 27.7063C77.5979 28.3228 77.9642 28.9381 78.3477 29.552V29.552C78.4429 29.7072 78.5413 29.8622 78.6429 30.0168C78.6862 30.0844 78.7296 30.1525 78.7743 30.2206C78.9172 30.4429 79.0662 30.6639 79.2162 30.8872V30.8872C79.2915 30.9977 79.3672 31.1077 79.4434 31.2182V31.2182C79.5519 31.3748 79.6619 31.5305 79.7734 31.6867C79.8248 31.7596 79.8772 31.8296 79.9305 31.9053C79.9975 31.9983 80.0654 32.0911 80.1343 32.1838C80.3432 32.4661 80.5575 32.7472 80.7771 33.0272C80.8622 33.1357 80.9482 33.244 81.0352 33.3519C81.1222 33.4598 81.2103 33.5681 81.2995 33.6767C81.3881 33.7848 81.4781 33.8924 81.5681 33.9995C81.6157 34.0533 81.659 34.1067 81.7052 34.1609C81.7966 34.2682 81.889 34.3751 81.9823 34.4814C82.0757 34.5874 82.17 34.6938 82.2652 34.8004V34.8004C82.3604 34.9068 82.4566 35.0127 82.5538 35.1181C82.749 35.3298 82.9479 35.5404 83.1504 35.7499C83.2518 35.8547 83.3552 35.959 83.458 36.0628C83.5875 36.1928 83.718 36.3218 83.8509 36.4509C83.9309 36.5294 84.0113 36.6066 84.0928 36.6842C85.1628 37.7034 86.2975 38.6525 87.4898 39.5256C87.6755 39.6614 87.8581 39.7982 88.0374 39.936C88.2168 40.0738 88.3934 40.2124 88.5674 40.3517L88.7403 40.4908L88.9107 40.6308C88.9674 40.6784 89.0236 40.726 89.0793 40.7736C89.3107 40.9676 89.5364 41.1627 89.7564 41.3588L89.894 41.4831C89.9467 41.5307 89.999 41.5784 90.0507 41.626C90.1025 41.6736 90.1543 41.7212 90.2064 41.7688L90.3597 41.9117C90.4107 41.9593 90.4612 42.0069 90.5112 42.0545L90.6612 42.1974L90.8088 42.3402C90.8564 42.3879 90.904 42.4355 90.9545 42.4864C91.005 42.5374 91.0497 42.5817 91.0973 42.6326C91.145 42.6836 91.1926 42.7279 91.2402 42.7793C91.3354 42.8745 91.4278 42.9755 91.5197 43.0736C91.5673 43.1212 91.6116 43.1721 91.6564 43.2217C91.7011 43.2712 91.7469 43.3202 91.7916 43.3702C91.9773 43.5753 92.158 43.7816 92.3335 43.9892C92.3849 44.0497 92.4354 44.1107 92.4864 44.1711C92.5797 44.2835 92.6717 44.3967 92.7625 44.5107L92.864 44.6383L92.8911 44.673C92.9387 44.734 92.9863 44.7945 93.034 44.8554L93.0463 44.8711C93.0506 44.8778 93.0559 44.884 93.0601 44.8897C93.0644 44.8954 93.0668 44.8987 93.0701 44.9026C93.1144 44.9597 93.1573 45.0168 93.2001 45.0735L93.2401 45.1273C93.2425 45.1299 93.2447 45.1326 93.2468 45.1354C93.2597 45.1535 93.273 45.1711 93.2863 45.1892L93.363 45.2925L93.4144 45.3635C93.4301 45.3844 93.4454 45.4059 93.462 45.4268C93.4863 45.4597 93.5097 45.4925 93.533 45.5249C93.5501 45.5483 93.5663 45.5725 93.5806 45.5954C93.5901 45.6087 93.5992 45.6216 93.6087 45.634C93.6358 45.673 93.6639 45.7121 93.6906 45.7511C93.6958 45.7597 93.7016 45.7673 93.7073 45.7749C93.7482 45.8349 93.7897 45.894 93.8297 45.9535L93.903 46.0601L93.9592 46.1444L94.003 46.2106L94.0815 46.3301C94.092 46.3468 94.1035 46.363 94.1139 46.3778C94.1196 46.3859 94.1244 46.3939 94.1301 46.402C94.1544 46.4406 94.1777 46.4792 94.2044 46.5178L94.2111 46.5282L94.2673 46.6168C94.2996 46.6673 94.3311 46.7182 94.3625 46.7687C94.3773 46.792 94.392 46.8163 94.4063 46.8397C94.4206 46.863 94.4406 46.8949 94.4568 46.922L94.5292 47.0406C94.5334 47.0477 94.5377 47.0558 94.5425 47.063L94.6425 47.2315C94.653 47.2501 94.6644 47.2687 94.6749 47.2868C94.7101 47.3473 94.7453 47.4073 94.7796 47.4677C94.7796 47.4677 94.7796 47.4677 94.7796 47.472L94.8006 47.5087L94.8063 47.5187C94.8415 47.5822 94.8764 47.6442 94.9111 47.7049L94.9282 47.7358C94.9663 47.8044 95.0041 47.8731 95.0415 47.942C95.0577 47.9715 95.073 48.0006 95.0891 48.0301C95.1053 48.0596 95.1206 48.0887 95.1368 48.1182C95.1434 48.131 95.151 48.1444 95.1577 48.1577C95.1644 48.171 95.1653 48.172 95.1691 48.1801C95.2044 48.2468 95.2396 48.3134 95.2734 48.3806C95.2829 48.3977 95.292 48.4158 95.3006 48.4329C95.3272 48.4853 95.3534 48.5377 95.3796 48.5906C95.3877 48.6063 95.3953 48.6225 95.4039 48.6382C95.4315 48.6939 95.4596 48.7501 95.4863 48.8063L95.5148 48.8644L95.5253 48.8858C95.5253 48.8886 95.5282 48.8915 95.5291 48.8944L95.5344 48.9048C95.5591 48.9577 95.5844 49.0101 95.6091 49.0629L95.6229 49.0915C95.6339 49.1163 95.6448 49.1391 95.6568 49.1653C95.6687 49.1915 95.6744 49.2024 95.6829 49.2215C95.6915 49.2405 95.7001 49.2591 95.7091 49.2782C95.7225 49.3086 95.7367 49.3396 95.751 49.3705C95.7519 49.3736 95.7532 49.3764 95.7548 49.3791C95.7691 49.4115 95.7839 49.4439 95.7977 49.4743C95.8072 49.4953 95.8167 49.5162 95.8253 49.5367C95.8339 49.5572 95.8406 49.5715 95.8482 49.5886C95.8558 49.6058 95.8596 49.6139 95.8648 49.6267L95.9282 49.7724C95.9386 49.7972 95.9486 49.8201 95.9586 49.8458C95.961 49.8505 95.9629 49.8558 95.9653 49.8605C95.9958 49.9334 96.0267 50.0072 96.0567 50.0805C96.0615 50.0924 96.0667 50.1048 96.072 50.1167C96.0872 50.1543 96.1025 50.1915 96.1172 50.2296C96.132 50.2677 96.1448 50.2972 96.1582 50.3315C96.1629 50.3448 96.1686 50.3586 96.1744 50.3724C96.1891 50.4115 96.2048 50.451 96.222 50.4905L96.2496 50.5643C96.2512 50.5676 96.2526 50.5709 96.2539 50.5743C96.2561 50.5796 96.2581 50.585 96.2596 50.5905C96.2691 50.6148 96.2786 50.6381 96.2882 50.6653C96.2977 50.6924 96.3039 50.7057 96.311 50.7267C96.3277 50.771 96.3444 50.8148 96.3586 50.8595C96.3653 50.8781 96.3729 50.8967 96.3796 50.9157C96.3896 50.9429 96.3996 50.971 96.4091 50.9986C96.4163 51.0176 96.4234 51.0372 96.4301 51.0567L96.4401 51.0857C96.4639 51.1529 96.4877 51.2205 96.511 51.2881C96.5124 51.2915 96.5135 51.295 96.5143 51.2986C96.5239 51.3252 96.5324 51.3519 96.542 51.3791L96.5729 51.4714C96.5801 51.4929 96.5872 51.5148 96.5948 51.5362C96.5991 51.5491 96.6029 51.5619 96.6072 51.5748C96.6115 51.5876 96.6139 51.5938 96.6167 51.6033C96.6167 51.6048 96.6167 51.6062 96.6167 51.6076C96.6305 51.6486 96.6429 51.689 96.6558 51.7295C96.6562 51.732 96.6562 51.7346 96.6558 51.7371C96.6591 51.7462 96.6624 51.7557 96.6653 51.7657L96.6701 51.7819C96.6758 51.7986 96.6815 51.8162 96.6862 51.8333C96.7067 51.8967 96.7267 51.9605 96.7462 52.0238L96.7577 52.0624C96.7767 52.1238 96.7953 52.1857 96.8129 52.2467L96.8329 52.3152C96.8515 52.3795 96.8696 52.4433 96.8881 52.5057C96.8924 52.5219 96.8977 52.5385 96.902 52.5533C96.92 52.6176 96.9377 52.6814 96.9548 52.7438C96.9767 52.8247 96.9977 52.9052 97.0186 52.9862C97.0367 53.0576 97.0553 53.129 97.0729 53.2004C97.0728 53.202 97.0728 53.2036 97.0729 53.2052C97.0858 53.2566 97.0981 53.3085 97.1105 53.3609C97.1105 53.3609 97.1105 53.3638 97.1105 53.3647C97.1153 53.3866 97.121 53.408 97.1253 53.43C97.1286 53.4428 97.1315 53.4557 97.1348 53.4685C97.1381 53.4814 97.1434 53.5038 97.1472 53.5209C97.1615 53.5842 97.1767 53.648 97.1905 53.7114V53.7114C97.2 53.7528 97.2091 53.7947 97.2177 53.8357C97.218 53.8372 97.218 53.8389 97.2177 53.8404C97.2253 53.8742 97.2324 53.909 97.24 53.9428L97.2434 53.9595C97.2505 53.9933 97.2577 54.0271 97.2643 54.0609C97.271 54.0947 97.2781 54.1266 97.2848 54.1599C97.2877 54.1718 97.29 54.1842 97.2919 54.1961C97.3029 54.2485 97.3134 54.3004 97.3234 54.3528C97.3291 54.3799 97.3338 54.408 97.3391 54.4352C97.3486 54.4828 97.3572 54.5304 97.3662 54.578C97.3705 54.6004 97.3748 54.6256 97.3786 54.6456C97.3881 54.6961 97.3967 54.7471 97.4057 54.7975C97.411 54.8256 97.4158 54.8542 97.4205 54.8818C97.4205 54.8947 97.4248 54.9075 97.4272 54.9204C97.4296 54.9332 97.431 54.9432 97.4324 54.9542C97.4377 54.9828 97.4424 55.0113 97.4472 55.0394C97.4538 55.0804 97.4605 55.1209 97.4667 55.1613C97.4696 55.1766 97.4715 55.1918 97.4738 55.209C97.4819 55.2623 97.4905 55.3161 97.4981 55.369C97.5034 55.399 97.5076 55.4289 97.5115 55.4585C97.5191 55.5061 97.5258 55.5537 97.5319 55.5985C97.5319 55.6147 97.5367 55.6308 97.5386 55.6461C97.5491 55.7218 97.5591 55.7975 97.5691 55.8737C97.5791 55.9499 97.5886 56.0256 97.5977 56.1018C97.6 56.1223 97.6024 56.1437 97.6048 56.1646C97.6143 56.2408 97.6224 56.3175 97.631 56.3932C97.6381 56.4608 97.6453 56.5284 97.6519 56.5965C97.6519 56.6013 97.6519 56.6065 97.6519 56.6113L97.6553 56.6413V56.6618C97.6676 56.7837 97.6781 56.9056 97.6881 57.0275C97.6919 57.0751 97.6962 57.1227 97.7 57.1737C97.7 57.2013 97.7043 57.2294 97.7062 57.2565C97.7081 57.2837 97.7105 57.3151 97.7129 57.3441C97.7162 57.3951 97.72 57.446 97.7229 57.4965C97.7231 57.4983 97.7231 57.5 97.7229 57.5018C97.7229 57.5237 97.7257 57.5451 97.7267 57.567C97.7291 57.5979 97.7305 57.6289 97.7324 57.6594C97.7353 57.7008 97.7372 57.7413 97.7391 57.7827C97.7391 57.7941 97.7391 57.806 97.7391 57.817C97.7429 57.8922 97.7467 57.9679 97.7495 58.0432L97.7543 58.157C97.7543 58.1774 97.7543 58.1974 97.7543 58.2174C97.7543 58.2374 97.7543 58.2598 97.7572 58.2813C97.7574 58.2838 97.7574 58.2863 97.7572 58.2889C97.7572 58.3441 97.761 58.3993 97.7619 58.4546C97.7629 58.5098 97.7648 58.5532 97.7657 58.6027C97.7667 58.6522 97.7686 58.7046 97.7691 58.7551V58.7589C97.7691 58.7898 97.7691 58.8198 97.7691 58.8503C97.7691 58.8976 97.7691 58.9443 97.7691 58.9903V59.0379C97.7781 59.1269 97.7791 59.2103 97.7781 59.2927Z" fill="#F6F2FF"/>
<path fill-rule="evenodd" clip-rule="evenodd" d="M97.7781 59.2931V59.4007C97.7781 59.4174 97.7781 59.4341 97.7781 59.4484C97.7781 59.515 97.7781 59.5831 97.7781 59.6507V59.6598C97.7781 59.6888 97.7781 59.7174 97.7781 59.7465C97.7781 59.8212 97.7753 59.895 97.7729 59.9693C97.7729 60.0088 97.7729 60.0484 97.7695 60.0879C97.7662 60.1274 97.7695 60.1622 97.7662 60.1993C97.7662 60.2626 97.7619 60.3264 97.7591 60.3898C97.7591 60.3998 97.7591 60.4102 97.7591 60.4202C97.7591 60.4302 97.7591 60.4312 97.7591 60.4364C97.7553 60.5288 97.7505 60.6207 97.7457 60.7131L97.7424 60.7845C97.7391 60.8469 97.7348 60.9098 97.731 60.9721C97.7272 61.0345 97.7243 61.0874 97.7205 61.1445C97.7068 61.3566 97.691 61.5675 97.6729 61.7774V61.7774C97.6529 62.005 97.6307 62.2312 97.6062 62.4559V62.4559C97.5894 62.6054 97.5719 62.7548 97.5538 62.904L97.5253 63.1278C97.4815 63.4611 97.4338 63.7921 97.3824 64.1206C97.3643 64.2295 97.3461 64.3382 97.3276 64.4468C97.3153 64.5192 97.3029 64.5897 97.29 64.6639C97.2638 64.8068 97.2376 64.9497 97.21 65.0925V65.0925C97.1691 65.3065 97.1264 65.5187 97.0819 65.7292V65.7292C97.0524 65.872 97.0219 66.0087 96.991 66.1482V66.1482C96.9434 66.3568 96.8958 66.5625 96.8481 66.7672V66.7672C96.7656 67.1088 96.6796 67.445 96.59 67.7758C96.5186 68.0408 96.4451 68.3023 96.3696 68.56C96.3321 68.687 96.294 68.814 96.2553 68.941C96.1401 69.3219 96.0215 69.6938 95.8996 70.0567C95.8393 70.2379 95.778 70.4167 95.7158 70.5928C95.4691 71.2985 95.2144 71.9661 94.9615 72.5885C94.9191 72.6914 94.8772 72.7937 94.8353 72.8947C94.8144 72.9456 94.7934 72.9956 94.772 73.0461C94.7307 73.1455 94.689 73.2439 94.6468 73.3413C94.5423 73.5845 94.4393 73.8194 94.3377 74.0461L94.2163 74.3127C94.0558 74.6637 93.8996 74.9918 93.7506 75.296C93.6763 75.4475 93.6038 75.593 93.533 75.7327C93.4801 75.8375 93.4292 75.9389 93.3782 76.0365C93.3465 76.1 93.3136 76.1635 93.2797 76.227L93.232 76.3184C93.2006 76.3789 93.1692 76.4374 93.1392 76.4936C93.0916 76.5789 93.0501 76.6603 93.0078 76.7374C92.9792 76.7889 92.952 76.8389 92.9259 76.887C92.8863 76.9593 92.8478 77.0298 92.8121 77.0912C92.7644 77.1769 92.7198 77.2554 92.6782 77.3265C92.6478 77.3798 92.6192 77.4288 92.593 77.4736C92.5759 77.5036 92.5592 77.5312 92.5454 77.5574C92.5373 77.5703 92.5302 77.5831 92.523 77.5955L92.4825 77.6617C92.4221 77.7631 92.3873 77.8155 92.3873 77.8155C87.4655 85.2358 79.7419 91.9013 70.5141 96.1584C69.5703 96.5936 68.6114 97.0031 67.6375 97.3869C63.5733 98.9864 59.2605 100.115 54.7978 100.646C53.0404 100.86 51.2725 100.977 49.5022 100.998C48.6086 101.006 47.7112 100.99 46.8099 100.95C42.6977 100.758 38.6281 100.031 34.7036 98.7883C27.6718 96.565 20.6354 92.5704 13.9374 86.3677C13.8613 86.2977 13.7865 86.2277 13.7113 86.1567C13.6046 86.0577 13.4994 85.9572 13.3946 85.8572L13.3379 85.8024C13.2392 85.7072 13.1411 85.612 13.0437 85.5167V85.5167L13.0403 85.5129C13.0051 85.4782 12.9698 85.4444 12.9351 85.4091C12.8875 85.3653 12.8456 85.321 12.8013 85.2772C12.757 85.2334 12.727 85.2034 12.6903 85.1663C12.6318 85.1082 12.5746 85.0496 12.517 84.992C12.4818 84.9567 12.4475 84.921 12.4127 84.8858C12.3318 84.8036 12.251 84.7209 12.1703 84.6377C12.0865 84.5501 12.0023 84.4625 11.9189 84.3744C11.897 84.3515 11.8751 84.3268 11.8542 84.3063L11.7637 84.211C11.7037 84.1477 11.6446 84.0844 11.5851 84.0206C11.5604 83.9944 11.5375 83.9677 11.5113 83.9411L11.3508 83.7668L11.3408 83.7558L11.1504 83.5454L11.0818 83.4687C11.0113 83.3901 10.9389 83.3115 10.8713 83.2306C10.8532 83.2111 10.8361 83.1906 10.819 83.1716L10.7509 83.0939C10.6842 83.0177 10.618 82.9416 10.5523 82.8654C10.5252 82.8344 10.498 82.803 10.4718 82.7701C10.4061 82.6946 10.3412 82.6186 10.2771 82.542C10.2585 82.5206 10.2399 82.4987 10.2218 82.4768L10.1666 82.4111C10.128 82.3659 10.0904 82.3211 10.0528 82.2754C10.0442 82.2654 10.0356 82.2544 10.0271 82.244L9.97564 82.1821L9.76803 81.9311L9.59946 81.7221L9.45137 81.5373L9.36709 81.4306L9.28899 81.3321L9.28423 81.3254C9.22661 81.253 9.16995 81.1826 9.11424 81.1073C9.0809 81.0654 9.04805 81.023 9.01567 80.9807C8.94662 80.8907 8.87805 80.8011 8.80948 80.7107L8.7571 80.6407C8.71425 80.584 8.67187 80.5278 8.62949 80.4707C8.61568 80.4516 8.60092 80.4335 8.58711 80.4145L8.57187 80.394C8.49473 80.2902 8.41902 80.1869 8.3433 80.0831C8.33521 80.0726 8.32759 80.0616 8.31997 80.0512C8.2495 79.9559 8.17997 79.8578 8.1114 79.7612L8.06379 79.6907C8.00474 79.6083 7.94665 79.5255 7.88808 79.4421L7.84046 79.3731L7.79284 79.304L7.67046 79.1274L7.66761 79.1226C7.65999 79.1121 7.65285 79.1012 7.6457 79.0907C7.57999 78.9955 7.51428 78.9002 7.44904 78.8017L7.3419 78.6407L7.25428 78.5098C7.24762 78.4998 7.24095 78.4888 7.23476 78.4788C7.22857 78.4688 7.21905 78.456 7.2119 78.4445L7.12619 78.3141L7.07619 78.2369C7.06381 78.2183 7.05096 78.1988 7.03858 78.1793C7.03429 78.1726 7.03048 78.1664 7.02572 78.1603L6.99905 78.1184C6.93715 78.0231 6.87525 77.925 6.8143 77.8288C6.74525 77.7203 6.67668 77.6107 6.60859 77.5017L6.58668 77.4665C6.54922 77.4058 6.51176 77.345 6.47431 77.2841C6.44335 77.2336 6.4124 77.1836 6.38193 77.1331C6.25685 76.9268 6.13368 76.7205 6.01241 76.5141L6.00813 76.507L5.82432 76.1894C5.82432 76.1865 5.82146 76.1846 5.82051 76.1822C5.77289 76.1003 5.72528 76.0184 5.68052 75.9365L5.6329 75.8484C5.59004 75.7722 5.54719 75.6951 5.50481 75.6184C5.48909 75.5913 5.47385 75.5637 5.45719 75.5365C5.43148 75.4889 5.40624 75.4413 5.381 75.3937C5.33719 75.3146 5.29434 75.2346 5.25196 75.1556C5.24053 75.1346 5.22862 75.1132 5.21767 75.0922C5.18767 75.0365 5.15815 74.9803 5.12863 74.9237L5.08625 74.8437L5.08196 74.8361C5.05244 74.7808 5.02387 74.7251 4.99482 74.6694C4.96577 74.6137 4.93673 74.5575 4.90816 74.5008C4.90816 74.4951 4.90244 74.4894 4.89911 74.4832L4.86863 74.4246C4.85244 74.3937 4.8372 74.3623 4.82101 74.3294C4.79244 74.2727 4.7634 74.2161 4.7353 74.1594L4.70768 74.1051L4.56483 73.8194L4.39864 73.4775C4.34531 73.3666 4.29246 73.2551 4.24008 73.1442C4.24008 73.1409 4.23722 73.138 4.23627 73.1347C4.22674 73.1152 4.2177 73.0952 4.20817 73.0756C4.19103 73.0375 4.17341 73.0004 4.15579 72.9623C4.13818 72.9242 4.12627 72.8994 4.11199 72.8671C4.0977 72.8347 4.08818 72.8152 4.07627 72.789C4.02865 72.6814 3.97818 72.5747 3.92961 72.4671C3.92294 72.4509 3.9158 72.4352 3.90866 72.4195L3.83009 72.2428L3.76676 72.0999C3.72676 72.009 3.68724 71.9185 3.64866 71.8271C3.63676 71.8009 3.62581 71.7742 3.61438 71.748C3.59533 71.7042 3.57724 71.6609 3.55867 71.6176C3.52914 71.5481 3.5001 71.4776 3.47057 71.4081C3.47078 71.407 3.47078 71.4058 3.47057 71.4047C3.44137 71.3358 3.4128 71.2668 3.38486 71.1976L3.33296 71.0704C3.32201 71.0423 3.3101 71.0147 3.29915 70.9866C3.25867 70.8876 3.21868 70.7881 3.17963 70.689C3.16011 70.6414 3.14058 70.5909 3.12106 70.5409C3.09725 70.4786 3.07344 70.4162 3.04868 70.3538V70.3538C3.02725 70.2981 3.00582 70.2424 2.98487 70.1862C2.97868 70.1714 2.97297 70.1567 2.96725 70.1419L2.91964 70.0186C2.8963 69.9567 2.87202 69.8948 2.85011 69.8329C2.82821 69.771 2.8025 69.709 2.78154 69.6471C2.73869 69.5303 2.69631 69.4133 2.6544 69.2962C2.65467 69.2945 2.65467 69.2927 2.6544 69.291C2.61298 69.1743 2.57155 69.0581 2.53155 68.9414C2.52298 68.9153 2.51346 68.8891 2.50441 68.8634C2.48441 68.8053 2.46441 68.7472 2.44489 68.6886C2.44012 68.6753 2.43584 68.6624 2.43155 68.6491C2.41298 68.5957 2.39536 68.5424 2.37727 68.4891C2.37108 68.4715 2.36584 68.4538 2.35965 68.4362C2.35346 68.4186 2.34394 68.3886 2.33632 68.3648C2.30457 68.2734 2.27441 68.1816 2.24584 68.0896C2.23632 68.0615 2.2268 68.0329 2.21823 68.0043C2.20346 67.9605 2.18966 67.9162 2.17585 67.8724V67.8667C2.16775 67.841 2.15918 67.8162 2.15156 67.7905C2.15156 67.7905 2.15156 67.7877 2.15156 67.7867C2.1268 67.7072 2.10394 67.6277 2.07728 67.5486C2.07299 67.5377 2.06966 67.5258 2.06632 67.5148C2.04918 67.4596 2.03252 67.4043 2.01585 67.3491C1.99918 67.2939 1.97966 67.2315 1.96157 67.1724C1.95963 67.1642 1.95724 67.1561 1.95442 67.1482C1.93395 67.0786 1.91347 67.0096 1.893 66.9396C1.87252 66.8696 1.84871 66.7906 1.82728 66.7158C1.80586 66.641 1.78395 66.5663 1.76348 66.4915C1.75395 66.4582 1.7449 66.4263 1.73538 66.3963C1.72586 66.3663 1.71729 66.331 1.70824 66.2982C1.70395 66.2834 1.69967 66.2687 1.69586 66.2539C1.67919 66.1949 1.663 66.1368 1.64824 66.0777L1.59491 65.8787C1.57872 65.8196 1.563 65.7606 1.54729 65.7011C1.54062 65.6753 1.53301 65.6492 1.52634 65.623C1.5092 65.5568 1.49205 65.4896 1.47539 65.4234C1.47299 65.4173 1.47123 65.4109 1.47015 65.4044C1.46586 65.3873 1.4611 65.3701 1.45729 65.3534V65.3534C1.43221 65.2541 1.40729 65.1549 1.38253 65.0558C1.35777 64.9568 1.33444 64.8616 1.31254 64.7701C1.31254 64.763 1.3092 64.7558 1.3073 64.7487C1.28968 64.6763 1.27301 64.6058 1.25539 64.532C1.25254 64.5201 1.25016 64.5087 1.2473 64.4963C1.22825 64.4149 1.2092 64.334 1.19111 64.2525C1.17492 64.1835 1.15968 64.1135 1.14349 64.0444C1.1273 63.9754 1.11016 63.8954 1.09587 63.8206C1.07683 63.7359 1.05873 63.6506 1.04064 63.5654C1.03349 63.5311 1.02588 63.4959 1.01873 63.4606C1.00635 63.4011 0.993496 63.3416 0.981115 63.2821C0.957306 63.1659 0.933497 63.0507 0.911593 62.9354C0.90826 62.9183 0.904927 62.9016 0.901593 62.884C0.886356 62.8111 0.872547 62.7378 0.858737 62.6645C0.851595 62.6283 0.844928 62.5916 0.838262 62.5554C0.82731 62.5002 0.816834 62.445 0.806834 62.3902C0.787469 62.2877 0.76874 62.1858 0.750645 62.0845C0.708741 61.8502 0.668742 61.615 0.630648 61.3807C0.623982 61.3431 0.618744 61.3059 0.612553 61.2683L0.603982 61.2178C0.600649 61.1974 0.597792 61.1764 0.594459 61.1559C0.562713 60.9544 0.532079 60.7525 0.502556 60.5502C0.481604 60.4074 0.461605 60.2603 0.441129 60.1155C0.402559 59.8245 0.365417 59.5336 0.331608 59.2427C0.2978 58.9517 0.266372 58.6608 0.236373 58.3693V58.3693C0.222087 58.224 0.208596 58.0784 0.195898 57.9327C0.139074 57.2943 0.0946304 56.6546 0.0625677 56.0137L0.0497109 55.7389C0.0246322 55.1532 0.00875958 54.5669 0.00209309 53.9799C-0.00425595 53.2939 0.00383908 52.6074 0.0263782 51.9205C0.0349494 51.651 0.0454253 51.3805 0.0582821 51.111V51.111C0.0711389 50.8415 0.0863766 50.571 0.103519 50.3015C0.120661 50.0319 0.139709 49.762 0.161137 49.492V49.492C0.182406 49.2224 0.205739 48.9526 0.231135 48.6825V48.6825C0.269546 48.2787 0.312402 47.8752 0.359703 47.472C0.375417 47.3377 0.392083 47.2035 0.407321 47.0692C0.416844 46.9939 0.426368 46.9187 0.436367 46.8435C0.469224 46.5882 0.504461 46.334 0.541127 46.0787C0.565888 45.9092 0.591284 45.7395 0.617315 45.5697C0.683028 45.1453 0.753661 44.7219 0.829214 44.2997V44.2997C0.905085 43.8775 0.985877 43.4561 1.07159 43.0355C1.08873 42.9517 1.10603 42.8675 1.12349 42.7831V42.7831C1.18698 42.4755 1.25365 42.1685 1.32349 41.8622C1.54189 40.8981 1.78649 39.9401 2.05728 38.9884C2.13299 38.7213 2.21156 38.4542 2.29108 38.188C2.34441 38.0108 2.3987 37.8337 2.45393 37.6566C2.53647 37.3915 2.62091 37.1269 2.70726 36.8628C3.53877 34.3269 4.55266 31.8544 5.74099 29.4649C5.88004 29.1842 6.02162 28.9054 6.16574 28.6282C6.52637 27.934 6.90096 27.2486 7.28952 26.5721C7.44476 26.3019 7.60237 26.0331 7.76237 25.7654C7.92236 25.4978 8.08474 25.232 8.2495 24.9678C25.5505 22.8208 40.8544 34.6024 56.264 35.2561C76.0915 36.0971 72.7716 18.9471 72.7335 18.7561C72.7869 18.8613 72.8392 18.9671 72.8921 19.0732C73.1032 19.4993 73.3134 19.9278 73.5226 20.3589C74.6778 22.7398 75.8363 25.2231 77.2367 27.6921C77.5859 28.3086 77.9523 28.9238 78.3358 29.5377V29.5377C78.431 29.693 78.5294 29.8479 78.631 30.0025C78.6743 30.0701 78.7177 30.1382 78.7624 30.2063C78.9065 30.4285 79.0538 30.6507 79.2043 30.8729V30.8729C79.2786 30.9834 79.3548 31.0934 79.4314 31.2039V31.2039C79.54 31.3605 79.65 31.5162 79.7614 31.6724C79.8129 31.7453 79.8652 31.8153 79.9186 31.891C79.9856 31.984 80.0535 32.0769 80.1224 32.1696C80.3313 32.4518 80.5455 32.7329 80.7652 33.0129C80.8503 33.1214 80.9363 33.2297 81.0233 33.3376C81.1103 33.4456 81.1984 33.5538 81.2876 33.6624C81.3762 33.7703 81.4657 33.8779 81.5562 33.9852C81.6038 34.039 81.6471 34.0924 81.6933 34.1467C81.7847 34.254 81.8771 34.3608 81.9704 34.4671C82.0638 34.5731 82.158 34.6795 82.2533 34.7862V34.7862C82.3485 34.8925 82.4447 34.9984 82.5418 35.1038C82.7371 35.3155 82.936 35.5261 83.1385 35.7357C83.2399 35.8404 83.3433 35.9447 83.4461 36.0485C83.5756 36.1785 83.7061 36.3075 83.8389 36.4366C83.9189 36.5152 83.9994 36.5923 84.0809 36.6699C85.1509 37.6891 86.2856 38.6382 87.4779 39.5113C87.6636 39.6471 87.8462 39.784 88.0255 39.9217C88.2049 40.0595 88.3815 40.1981 88.5555 40.3374L88.7283 40.4765L88.8988 40.6165C88.9555 40.6641 89.0117 40.7117 89.0674 40.7593C89.2988 40.9533 89.5245 41.1484 89.7445 41.3446L89.8821 41.4688C89.9348 41.5165 89.987 41.5641 90.0388 41.6117C90.0905 41.6593 90.1424 41.7069 90.1945 41.7545L90.3478 41.8974C90.3988 41.945 90.4493 41.9926 90.4993 42.0403L90.6492 42.1831L90.7969 42.326C90.8445 42.3736 90.8921 42.4212 90.9426 42.4721C90.9931 42.5231 91.0378 42.5674 91.0854 42.6183C91.1331 42.6693 91.1807 42.7136 91.2283 42.765C91.3235 42.8602 91.4159 42.9612 91.5078 43.0593C91.5554 43.1069 91.5997 43.1578 91.6445 43.2074C91.6892 43.2569 91.7349 43.3059 91.7797 43.3559C91.9654 43.561 92.146 43.7674 92.3216 43.975C92.373 44.0354 92.4235 44.0964 92.4744 44.1569C92.5678 44.2692 92.6598 44.3824 92.7506 44.4964L92.852 44.624L92.8792 44.6588C92.9268 44.7197 92.9744 44.7802 93.022 44.8411L93.0482 44.8754C93.0525 44.8802 93.0549 44.8845 93.0582 44.8883C93.1025 44.9454 93.1454 45.0026 93.1882 45.0592L93.2282 45.113C93.2306 45.1156 93.2328 45.1183 93.2349 45.1211C93.2478 45.1392 93.2611 45.1568 93.2744 45.1749C93.2878 45.193 93.3006 45.2106 93.3135 45.2283L93.3511 45.2759L93.4025 45.3468C93.4182 45.3678 93.4335 45.3892 93.4501 45.4102C93.4744 45.443 93.4977 45.4759 93.5211 45.5083C93.5382 45.5316 93.5544 45.5559 93.5687 45.5787C93.5782 45.5921 93.5873 45.6049 93.5968 45.6173C93.6239 45.6563 93.652 45.6954 93.6787 45.7344C93.6839 45.743 93.6896 45.7506 93.6954 45.7583C93.7363 45.8182 93.7777 45.8773 93.8177 45.9368L93.8911 46.0435L93.9473 46.1278L93.9911 46.194L94.0696 46.3135C94.0801 46.3301 94.0915 46.3463 94.102 46.3611C94.1077 46.3692 94.1125 46.3773 94.1182 46.3854C94.1425 46.4239 94.1658 46.4625 94.1925 46.5011L94.1992 46.5116L94.2553 46.6001C94.2877 46.6506 94.3192 46.7016 94.3506 46.752C94.3653 46.7754 94.3801 46.7997 94.3944 46.823C94.4087 46.8463 94.4287 46.8782 94.4449 46.9054L94.5172 47.0239C94.5215 47.0311 94.5258 47.0392 94.5306 47.0463L94.6306 47.2149C94.641 47.2335 94.6525 47.252 94.663 47.2701C94.6982 47.3306 94.7334 47.3906 94.7677 47.4511C94.7677 47.4511 94.7677 47.4511 94.7677 47.4553L94.7887 47.492L94.7944 47.502C94.8296 47.5655 94.8645 47.6276 94.8991 47.6882L94.9163 47.7192C94.9544 47.7877 94.9922 47.8564 95.0296 47.9253L95.0525 47.9687L95.1444 48.141C95.1482 48.1482 95.152 48.1553 95.1558 48.1634C95.191 48.2301 95.2263 48.2968 95.2601 48.3639C95.2939 48.431 95.3287 48.4977 95.3615 48.5648C95.3615 48.5677 95.3648 48.5706 95.3663 48.5739C95.3744 48.5896 95.382 48.6058 95.3906 48.6215C95.4182 48.6772 95.4463 48.7334 95.4729 48.7896L95.5015 48.8477L95.512 48.8691C95.512 48.872 95.5148 48.8748 95.5158 48.8777L95.521 48.8882C95.5458 48.941 95.571 48.9934 95.5958 49.0463L95.6096 49.0748C95.6205 49.0996 95.6315 49.1224 95.6434 49.1486C95.6491 49.1596 95.6539 49.171 95.6591 49.1829C95.671 49.2091 95.6834 49.2353 95.6958 49.2615C95.7082 49.2877 95.7234 49.3229 95.7377 49.3539C95.7386 49.3569 95.7398 49.3598 95.7415 49.3624C95.7558 49.3948 95.7705 49.4272 95.7844 49.4577C95.7939 49.4786 95.8034 49.4996 95.812 49.5201C95.8205 49.5405 95.8272 49.5548 95.8348 49.572C95.8425 49.5891 95.8463 49.5972 95.8515 49.6101C95.8832 49.6828 95.915 49.7558 95.9467 49.8291C95.9491 49.8339 95.951 49.8391 95.9534 49.8439C95.9839 49.9167 96.0148 49.9905 96.0448 50.0639C96.0496 50.0758 96.0548 50.0881 96.0601 50.1C96.0843 50.16 96.1077 50.22 96.1315 50.2796C96.1367 50.2915 96.141 50.3029 96.1463 50.3148C96.1515 50.3267 96.1567 50.3419 96.1624 50.3557C96.1867 50.4181 96.2101 50.48 96.2343 50.5424C96.2345 50.5442 96.2345 50.5459 96.2343 50.5476C96.236 50.5509 96.2374 50.5542 96.2386 50.5576C96.2409 50.5629 96.2428 50.5683 96.2443 50.5738C96.2539 50.5981 96.2634 50.6215 96.2729 50.6486C96.2824 50.6757 96.2886 50.6891 96.2958 50.71C96.3124 50.7543 96.3291 50.7981 96.3434 50.8429C96.3501 50.8614 96.3577 50.88 96.3643 50.8991C96.3743 50.9262 96.3843 50.9543 96.3939 50.9819C96.401 51.001 96.4081 51.0205 96.4148 51.04L96.4248 51.0691C96.4486 51.1362 96.4724 51.2038 96.4958 51.2714C96.4972 51.2748 96.4983 51.2783 96.4991 51.2819C96.5191 51.3391 96.5386 51.3972 96.5577 51.4548C96.5648 51.4762 96.572 51.4981 96.5796 51.5195C96.5839 51.5324 96.5877 51.5452 96.592 51.5581C96.5962 51.571 96.5986 51.5771 96.6015 51.5867C96.6014 51.5881 96.6014 51.5895 96.6015 51.591C96.6126 51.6227 96.6231 51.6556 96.6329 51.6895C96.6358 51.6976 96.6386 51.7052 96.6405 51.7129C96.641 51.7154 96.641 51.718 96.6405 51.7205C96.6439 51.7305 96.6467 51.74 96.65 51.749L96.6548 51.7652C96.6605 51.7819 96.6662 51.7995 96.671 51.8167C96.6915 51.88 96.7115 51.9438 96.731 52.0071L96.7424 52.0457C96.7615 52.1071 96.78 52.169 96.7977 52.23L96.8177 52.2986C96.8362 52.3628 96.8543 52.4266 96.8729 52.489C96.8772 52.5052 96.8824 52.5219 96.8867 52.5366C96.9048 52.6009 96.9224 52.6647 96.9396 52.7271C96.9615 52.8081 96.9824 52.8885 97.0034 52.9695C97.0215 53.0409 97.04 53.1123 97.0577 53.1838C97.0575 53.1854 97.0575 53.1869 97.0577 53.1885C97.0705 53.24 97.0829 53.2919 97.0953 53.3442C97.0953 53.3442 97.0953 53.3471 97.0953 53.3481C97.1 53.37 97.1058 53.3914 97.11 53.4133C97.1134 53.4261 97.1162 53.439 97.1196 53.4519C97.1229 53.4647 97.1281 53.4871 97.1319 53.5042C97.1462 53.5676 97.1615 53.6314 97.1753 53.6947V53.6947C97.1848 53.7361 97.1938 53.778 97.2024 53.819C97.2028 53.8206 97.2028 53.8222 97.2024 53.8238C97.21 53.8576 97.2172 53.8923 97.2248 53.9261L97.2281 53.9428C97.2353 53.9766 97.2424 54.0104 97.2491 54.0442C97.2557 54.078 97.2629 54.1099 97.2696 54.1433C97.2724 54.1552 97.2748 54.1676 97.2767 54.1795C97.2929 54.2595 97.3088 54.3388 97.3243 54.4175C97.3338 54.4652 97.3424 54.5128 97.3515 54.5604C97.3557 54.5828 97.36 54.608 97.3638 54.628C97.3734 54.6785 97.3819 54.7294 97.391 54.7799C97.3962 54.808 97.401 54.8366 97.4057 54.8642C97.4057 54.8771 97.41 54.8899 97.4124 54.9028C97.4148 54.9156 97.4162 54.9256 97.4176 54.9366C97.4296 55.0056 97.4405 55.0747 97.4519 55.1437C97.4548 55.159 97.4567 55.1742 97.4591 55.1913C97.4672 55.2447 97.4757 55.2985 97.4834 55.3513C97.4886 55.3813 97.4929 55.4113 97.4967 55.4409C97.5043 55.4885 97.511 55.5361 97.5172 55.5808C97.5172 55.597 97.5219 55.6132 97.5238 55.6285C97.5343 55.7042 97.5443 55.7799 97.5543 55.8561C97.5643 55.9323 97.5738 56.008 97.5829 56.0842C97.5853 56.1046 97.5876 56.1261 97.59 56.147C97.5995 56.2232 97.6076 56.2999 97.6162 56.3756C97.6234 56.4432 97.6305 56.5108 97.6372 56.5789C97.6372 56.5837 97.6372 56.5889 97.6372 56.5937L97.6405 56.6237V56.6442C97.6529 56.7661 97.6633 56.888 97.6733 57.0099C97.6772 57.0575 97.6814 57.1051 97.6853 57.156C97.6853 57.1837 97.6895 57.2118 97.6915 57.2389C97.6934 57.266 97.6957 57.2975 97.6981 57.3265C97.7014 57.3775 97.7053 57.4284 97.7081 57.4789C97.7083 57.4806 97.7083 57.4824 97.7081 57.4841C97.7081 57.506 97.711 57.5275 97.7119 57.5494C97.7162 57.6213 97.7205 57.6922 97.7243 57.7651C97.7243 57.7722 97.7243 57.7798 97.7243 57.7879C97.7291 57.8675 97.7329 57.9465 97.7362 58.026C97.7391 58.0846 97.741 58.1427 97.7429 58.2003C97.7429 58.2217 97.7429 58.2427 97.7457 58.2641C97.746 58.2666 97.746 58.2692 97.7457 58.2717C97.7457 58.327 97.7495 58.3822 97.7505 58.4374C97.7505 58.4589 97.7505 58.4803 97.7529 58.5013C97.7529 58.5293 97.7529 58.5574 97.7529 58.5855C97.7529 58.6365 97.7557 58.6874 97.7562 58.7379V58.7417C97.7562 58.7727 97.7562 58.8027 97.7562 58.8331C97.7562 58.8804 97.7562 58.9271 97.7562 58.9731V59.0208C97.7781 59.1274 97.7791 59.2108 97.7781 59.2931Z" fill="#EDE4FF"/>
<path fill-rule="evenodd" clip-rule="evenodd" d="M97.7794 59.293V59.4007C97.7794 59.4173 97.7794 59.434 97.7794 59.4483C97.7794 59.5149 97.7794 59.583 97.7794 59.6507V59.6597C97.7794 59.6887 97.7794 59.7173 97.7794 59.7464C97.7794 59.8211 97.7766 59.8949 97.7742 59.9692C97.7742 59.9887 97.7742 60.0078 97.7742 60.0264C97.7742 60.0449 97.7742 60.0673 97.7742 60.0878C97.7742 60.1245 97.7742 60.1621 97.7709 60.1992C97.7709 60.2625 97.7666 60.3264 97.7637 60.3897C97.7637 60.3997 97.7637 60.4102 97.7637 60.4202C97.7637 60.4302 97.7637 60.4311 97.7637 60.4363C97.7599 60.5287 97.7552 60.6206 97.7504 60.713L97.7471 60.7844C97.7437 60.8468 97.7394 60.9097 97.7356 60.972C97.7318 61.0344 97.729 61.0873 97.7252 61.1444C97.7115 61.3565 97.6956 61.5674 97.6775 61.7773V61.7773C97.6582 62.0049 97.636 62.2311 97.6109 62.4558V62.4558C97.5941 62.6053 97.5766 62.7547 97.5585 62.9039L97.5299 63.1277C97.4866 63.461 97.4375 63.7944 97.3871 64.1205C97.369 64.2294 97.3507 64.3381 97.3323 64.4467C97.3199 64.5191 97.3076 64.5896 97.2947 64.6639C97.2685 64.8067 97.2423 64.9496 97.2147 65.0924V65.0924C97.1744 65.3064 97.1317 65.5186 97.0866 65.7291V65.7291C97.0571 65.8719 97.0266 66.0086 96.9957 66.1481V66.1481C96.948 66.3567 96.9004 66.5624 96.8528 66.7671V66.7671C96.7703 67.1087 96.6842 67.4449 96.5947 67.7757C96.5233 68.0408 96.4498 68.3022 96.3742 68.5599C96.3368 68.6869 96.2987 68.8139 96.26 68.9409C96.1447 69.3218 96.0262 69.6937 95.9043 70.0566C95.8439 70.2378 95.7827 70.4166 95.7204 70.5927C95.4738 71.2984 95.219 71.966 94.9662 72.5884C94.9238 72.6913 94.8819 72.7936 94.84 72.8946C94.819 72.9455 94.7981 72.9955 94.7767 73.046C94.7354 73.1454 94.6936 73.2438 94.6514 73.3412C94.547 73.5844 94.444 73.8193 94.3424 74.046L94.221 74.3127C94.0605 74.6636 93.9043 74.9917 93.7553 75.296C93.681 75.4474 93.6084 75.5929 93.5376 75.7326C93.4848 75.8374 93.4338 75.9388 93.3829 76.0364C93.3511 76.0999 93.3183 76.1634 93.2843 76.2269L93.2367 76.3183C93.2053 76.3788 93.1739 76.4374 93.1439 76.4935C93.0962 76.5788 93.0548 76.6602 93.0124 76.7374C92.9843 76.7888 92.9572 76.8388 92.9305 76.8869C92.891 76.9592 92.8524 77.0297 92.8167 77.0912C92.7691 77.1769 92.7245 77.2553 92.6829 77.3264C92.6524 77.3797 92.6239 77.4288 92.5977 77.4735C92.5805 77.5035 92.5639 77.5311 92.5501 77.5573C92.542 77.5702 92.5348 77.583 92.5277 77.5954L92.4872 77.6616C92.4267 77.763 92.392 77.8154 92.392 77.8154C87.4702 85.2357 79.7466 91.9012 70.5187 96.1583C69.5749 96.5935 68.6161 97.003 67.6421 97.3868C63.578 98.9863 59.2652 100.115 54.8025 100.646C53.0439 100.86 51.275 100.977 49.5036 100.998C48.6099 101.006 47.7125 100.99 46.8113 100.95C42.6991 100.758 38.6294 100.031 34.7049 98.7882C27.6732 96.5649 20.6367 92.5703 13.9388 86.3676C13.8626 86.2976 13.7878 86.2276 13.7126 86.1566C13.6059 86.0576 13.5007 85.9571 13.3959 85.8571L13.3393 85.8024C13.2405 85.7071 13.1425 85.6119 13.045 85.5166V85.5166L12.9364 85.409C12.8888 85.3652 12.8469 85.3209 12.8026 85.2771C12.7583 85.2333 12.7283 85.2033 12.6917 85.1662C12.6331 85.1081 12.576 85.0495 12.5183 84.9919C12.4831 84.9567 12.4488 84.9209 12.4141 84.8857C12.3331 84.8035 12.2523 84.7208 12.1717 84.6376C12.0879 84.55 12.0036 84.4624 11.9203 84.3743C11.8984 84.3514 11.8765 84.3267 11.8555 84.3062L11.765 84.211C11.705 84.1476 11.646 84.0843 11.5865 84.0205C11.5617 83.9943 11.5388 83.9676 11.5127 83.941L11.3522 83.7667L11.3422 83.7557C11.3374 83.7505 11.3317 83.7443 11.3269 83.7381C11.245 83.6481 11.1636 83.5586 11.0827 83.4686C11.0122 83.39 10.9398 83.3115 10.8722 83.2305C10.8541 83.211 10.837 83.1905 10.8198 83.1715L10.7517 83.0939C10.6851 83.0177 10.6189 82.9415 10.5532 82.8653C10.526 82.8343 10.4989 82.8029 10.4727 82.7701C10.407 82.6945 10.342 82.6185 10.2779 82.542L10.2441 82.502C10.1803 82.4267 10.1165 82.351 10.0536 82.2753C10.0451 82.2653 10.0365 82.2543 10.0279 82.2439L9.9765 82.182L9.76889 81.931L9.60032 81.722L9.45223 81.5372L9.36795 81.4306L9.28985 81.332L9.28509 81.3253C9.22748 81.2529 9.17081 81.1825 9.1151 81.1072C9.08176 81.0653 9.04891 81.023 9.01653 80.9806C8.94748 80.8906 8.87891 80.8011 8.81034 80.7106L8.75796 80.6406C8.71511 80.5839 8.67273 80.5277 8.63035 80.4706C8.61654 80.4515 8.60178 80.4334 8.58797 80.4144L8.57273 80.3939C8.49622 80.2904 8.42004 80.1868 8.34416 80.083L8.34131 80.0787C8.26417 79.9725 8.18798 79.8673 8.11227 79.7611L8.06465 79.6906C8.0056 79.6082 7.94751 79.5254 7.88894 79.442L7.84132 79.373C7.7837 79.2897 7.72561 79.2068 7.66799 79.1225C7.59466 79.0154 7.52228 78.9087 7.44943 78.8016L7.34229 78.6406L7.23515 78.4787C7.22753 78.4673 7.21943 78.4559 7.21229 78.4444L7.03896 78.1792C7.03468 78.1726 7.03087 78.1664 7.0261 78.1602L6.99944 78.1183C6.93754 78.023 6.87563 77.9249 6.81468 77.8287C6.74564 77.7202 6.67707 77.6107 6.60897 77.5016L6.58707 77.4664C6.54961 77.4057 6.51215 77.345 6.47469 77.284C6.44374 77.2335 6.41279 77.1835 6.38231 77.1331C6.25755 76.9267 6.13438 76.7204 6.0128 76.514L6.00851 76.5069L5.82471 76.1893C5.82471 76.1864 5.82185 76.1845 5.8209 76.1821C5.75709 76.0707 5.69423 75.9598 5.63043 75.8488C5.58757 75.7726 5.54471 75.6955 5.50233 75.6188C5.45995 75.5421 5.42091 75.4702 5.38043 75.3955C5.33996 75.3207 5.29377 75.2364 5.25139 75.1574C5.20901 75.0783 5.16901 75.0031 5.12806 74.9255L5.08568 74.8455L5.08139 74.8379C5.0233 74.7265 4.96521 74.615 4.90759 74.5046C4.90759 74.4988 4.90187 74.4931 4.89854 74.4869C4.87283 74.436 4.84711 74.3855 4.82092 74.335C4.79473 74.2846 4.76331 74.2217 4.73521 74.165L4.70759 74.1108L4.56474 73.825L4.39855 73.4831C4.34427 73.3689 4.28999 73.2551 4.23618 73.1403C4.22665 73.1208 4.21761 73.1008 4.20808 73.0813C4.19094 73.0432 4.17332 73.006 4.1557 72.9679C4.12904 72.9108 4.10285 72.8532 4.07618 72.796C4.02856 72.6884 3.97809 72.5817 3.92952 72.4741C3.92285 72.4579 3.91571 72.4422 3.90857 72.4265C3.86095 72.3189 3.81333 72.2122 3.76571 72.1046C3.72571 72.0137 3.68619 71.9232 3.64762 71.8318C3.63572 71.8056 3.62476 71.7789 3.61334 71.7527C3.56572 71.6394 3.5181 71.5265 3.47048 71.4127C3.47069 71.4116 3.47069 71.4105 3.47048 71.4094C3.42414 71.298 3.37826 71.1869 3.33287 71.0761C3.32192 71.048 3.31001 71.0204 3.29906 70.9923C3.25858 70.8932 3.21859 70.7937 3.17954 70.6947C3.13573 70.5832 3.0924 70.4718 3.04859 70.3613V70.3613C3.02716 70.3056 3.00573 70.2499 2.98478 70.1937C2.96383 70.1375 2.9424 70.0823 2.92097 70.0261C2.89955 69.9699 2.87336 69.9023 2.85145 69.8404C2.82955 69.7785 2.80383 69.7166 2.78288 69.6547C2.74003 69.5379 2.69765 69.4209 2.65574 69.3037C2.65601 69.302 2.65601 69.3002 2.65574 69.2985C2.61432 69.1818 2.57289 69.0656 2.53289 68.949C2.50337 68.8649 2.47448 68.7806 2.44622 68.6961C2.44146 68.6828 2.43718 68.6699 2.43289 68.6566L2.41099 68.5938C2.40051 68.5614 2.38908 68.529 2.37861 68.4985C2.37242 68.4809 2.36718 68.4633 2.36099 68.4457C2.3548 68.428 2.34527 68.398 2.33766 68.3742C2.33432 68.3638 2.33004 68.3528 2.32623 68.3419C2.31528 68.3076 2.30385 68.2738 2.29242 68.239C2.27718 68.1914 2.26147 68.1438 2.24718 68.099C2.23766 68.0709 2.22813 68.0423 2.21956 68.0138C2.2048 67.97 2.19099 67.9257 2.17718 67.8819V67.8762C2.16909 67.8504 2.16052 67.8257 2.1529 67.8C2.1529 67.8 2.1529 67.7971 2.1529 67.7962C2.12814 67.7166 2.10528 67.6371 2.07861 67.5581C2.07433 67.5471 2.071 67.5352 2.06766 67.5243C2.05052 67.469 2.03385 67.4138 2.01719 67.3585C2.00052 67.3033 1.981 67.2409 1.9629 67.1819C1.96096 67.1737 1.95858 67.1656 1.95576 67.1576C1.93529 67.0881 1.91481 67.019 1.89433 66.949C1.87386 66.879 1.85005 66.8 1.82862 66.7252C1.80719 66.6505 1.78529 66.5757 1.76481 66.501C1.7591 66.4824 1.75434 66.4638 1.74862 66.4457C1.74291 66.4276 1.741 66.4171 1.73672 66.4033C1.72815 66.3705 1.71862 66.3381 1.70958 66.3052C1.70529 66.2905 1.70101 66.2757 1.6972 66.261C1.68053 66.2019 1.66434 66.1438 1.64958 66.0848L1.59625 65.8857C1.58006 65.8267 1.56434 65.7676 1.54863 65.7081C1.54196 65.6824 1.53434 65.6562 1.52768 65.63C1.51053 65.5638 1.49339 65.4967 1.47673 65.4305C1.47432 65.4244 1.47257 65.418 1.47149 65.4115C1.4672 65.3943 1.46244 65.3776 1.45815 65.3605C1.43308 65.2611 1.40816 65.1619 1.38339 65.0629C1.35863 64.9638 1.3353 64.8686 1.3134 64.7772C1.3134 64.77 1.31006 64.7629 1.30816 64.7558C1.29054 64.6834 1.27387 64.6129 1.25626 64.5391C1.2534 64.5272 1.25102 64.5158 1.24816 64.5034C1.22911 64.422 1.21007 64.341 1.19197 64.2596C1.17578 64.1905 1.16054 64.1205 1.14435 64.0515C1.12816 63.9824 1.11102 63.9024 1.09674 63.8277C1.07769 63.7429 1.05959 63.6577 1.0415 63.5725C1.03436 63.5382 1.02674 63.5029 1.01959 63.4677C1.00721 63.4082 0.994358 63.3487 0.981977 63.2891C0.958168 63.1729 0.934359 63.0577 0.912455 62.9425C0.909122 62.9253 0.905788 62.9087 0.902455 62.891C0.887217 62.8182 0.873408 62.7449 0.859599 62.6715C0.852456 62.6353 0.84579 62.5987 0.839123 62.5625C0.828171 62.5072 0.817695 62.452 0.807696 62.3972C0.788331 62.2947 0.769601 62.1928 0.751507 62.0915C0.709603 61.8573 0.669604 61.622 0.63151 61.3878C0.624843 61.3501 0.619605 61.313 0.613415 61.2754C0.607225 61.2378 0.601511 61.2001 0.59532 61.163C0.563575 60.9614 0.532941 60.7595 0.503418 60.5573C12.7698 41.4921 38.851 50.7623 55.4634 57.0741C70.3806 62.7406 85.714 50.3971 92.3382 44.002C92.3896 44.0625 92.4401 44.1234 92.491 44.1839C92.5843 44.2963 92.6764 44.4095 92.7672 44.5234L92.8686 44.651L92.8958 44.6858C92.9434 44.7468 92.991 44.8072 93.0386 44.8682L93.051 44.8839C93.0553 44.8906 93.0605 44.8968 93.0648 44.9025C93.0691 44.9082 93.0715 44.9115 93.0748 44.9153C93.1191 44.9725 93.1619 45.0296 93.2048 45.0863L93.2448 45.1401C93.2738 45.1787 93.3024 45.2167 93.33 45.2553L93.3677 45.3029L93.4191 45.3739C93.4348 45.3948 93.45 45.4163 93.4667 45.4372C93.491 45.4701 93.5143 45.5029 93.5376 45.5353C93.5548 45.5586 93.571 45.5829 93.5853 45.6058C93.5948 45.6191 93.6038 45.632 93.6134 45.6444C93.6405 45.6834 93.6686 45.7224 93.6953 45.7615C93.7005 45.7701 93.7062 45.7777 93.7119 45.7853C93.7529 45.8453 93.7943 45.9043 93.8343 45.9639C93.8743 46.0234 93.921 46.091 93.9638 46.1543L94.0076 46.2205L94.0862 46.34C94.0967 46.3567 94.1081 46.3729 94.1186 46.3877C94.1243 46.3958 94.1291 46.4039 94.1348 46.412C94.1591 46.4505 94.1824 46.4891 94.2091 46.5277L94.2157 46.5381L94.2719 46.6267C94.3043 46.6772 94.3357 46.7281 94.3672 46.7786C94.3819 46.8019 94.3967 46.8262 94.411 46.8496C94.4252 46.8729 94.4452 46.9048 94.4614 46.9319L94.5338 47.0505C94.5381 47.0576 94.5424 47.0657 94.5471 47.0729L94.6471 47.2415C94.6576 47.26 94.669 47.2786 94.6795 47.2967C94.7148 47.3572 94.75 47.4172 94.7843 47.4776C94.7843 47.4776 94.7843 47.4776 94.7843 47.4819L94.8052 47.5186L94.8109 47.5286C94.8462 47.5921 94.8811 47.6541 94.9157 47.7148L94.9329 47.7457C94.9709 47.8143 95.0087 47.883 95.0462 47.9519L95.069 47.9952L95.0933 48.04C95.109 48.0691 95.1247 48.0986 95.1409 48.1281C95.1476 48.141 95.1552 48.1543 95.1619 48.1676C95.1686 48.181 95.1695 48.1819 95.1733 48.19C95.2086 48.2567 95.2438 48.3233 95.2776 48.3905C95.2871 48.4076 95.2962 48.4257 95.3047 48.4429C95.33 48.4905 95.3524 48.5419 95.379 48.5914C95.379 48.5943 95.3824 48.5971 95.3838 48.6005C95.3919 48.6162 95.3995 48.6324 95.4081 48.6481C95.4357 48.7038 95.4638 48.76 95.4905 48.8162L95.519 48.8743L95.5295 48.8957C95.5295 48.8986 95.5324 48.9014 95.5333 48.9043L95.5385 48.9147C95.5633 48.9676 95.5885 49.02 95.6133 49.0728L95.6271 49.1014C95.6381 49.1262 95.649 49.149 95.6609 49.1752C95.6666 49.1862 95.6714 49.1976 95.6766 49.2095C95.6819 49.2214 95.6838 49.2238 95.6871 49.2314C95.6952 49.25 95.7043 49.269 95.7133 49.2881C95.7266 49.3185 95.7409 49.3495 95.7552 49.3804C95.7561 49.3835 95.7574 49.3863 95.759 49.389C95.7733 49.4214 95.7881 49.4538 95.8019 49.4843C95.8114 49.5052 95.8209 49.5262 95.8295 49.5466C95.8381 49.5671 95.8447 49.5814 95.8524 49.5985C95.86 49.6157 95.8638 49.6238 95.869 49.6366L95.9323 49.7823C95.9428 49.8071 95.9528 49.83 95.9628 49.8557C95.9652 49.8604 95.9671 49.8657 95.9695 49.8704C96 49.9433 96.0309 50.0171 96.0609 50.0904C96.0657 50.1023 96.0709 50.1147 96.0762 50.1266C96.0914 50.1642 96.1066 50.2014 96.1214 50.2395C96.1304 50.2614 96.1395 50.2838 96.1476 50.3061C96.1528 50.318 96.1571 50.3295 96.1623 50.3414C96.1676 50.3533 96.1728 50.3685 96.1785 50.3823C96.1933 50.4214 96.209 50.4609 96.2261 50.5004C96.2352 50.5233 96.2433 50.548 96.2519 50.569C96.2521 50.5707 96.2521 50.5725 96.2519 50.5742C96.2535 50.5775 96.2549 50.5808 96.2561 50.5842C96.2584 50.5895 96.2603 50.5949 96.2619 50.6004C96.2714 50.6247 96.2809 50.648 96.2904 50.6752C96.3 50.7023 96.3061 50.7156 96.3133 50.7366C96.33 50.7809 96.3466 50.8247 96.3609 50.8695C96.3676 50.888 96.3752 50.9066 96.3819 50.9256C96.3919 50.9528 96.4019 50.9809 96.4114 51.0085C96.4185 51.0275 96.4257 51.0471 96.4323 51.0666L96.4423 51.0956C96.4661 51.1628 96.4899 51.2304 96.5133 51.298C96.5147 51.3014 96.5158 51.3049 96.5166 51.3085C96.5261 51.3352 96.5347 51.3618 96.5442 51.389L96.5752 51.4813C96.5866 51.5156 96.5985 51.5504 96.6095 51.5847C96.6128 51.5942 96.6161 51.6037 96.619 51.6132C96.6189 51.6147 96.6189 51.6161 96.619 51.6175C96.6301 51.6493 96.6406 51.6821 96.6504 51.7161C96.6533 51.7242 96.6561 51.7318 96.658 51.7394C96.6585 51.7419 96.6585 51.7445 96.658 51.7471C96.6614 51.7561 96.6647 51.7656 96.6676 51.7756L96.6723 51.7918C96.678 51.8085 96.6838 51.8261 96.6885 51.8432C96.709 51.9066 96.729 51.9704 96.7485 52.0337L96.7599 52.0723C96.779 52.1337 96.7976 52.1956 96.8152 52.2566L96.8352 52.3251C96.8538 52.3894 96.8718 52.4532 96.8904 52.5156C96.8947 52.5318 96.8999 52.5485 96.9042 52.5632C96.9223 52.6275 96.9399 52.6913 96.9571 52.7537C96.979 52.8346 96.9999 52.9151 97.0209 52.9961C97.039 53.0675 97.0576 53.1389 97.0752 53.2103C97.075 53.2119 97.075 53.2135 97.0752 53.2151C97.088 53.2665 97.1004 53.3184 97.1128 53.3708C97.1128 53.3708 97.1128 53.3737 97.1128 53.3746C97.1209 53.4094 97.1285 53.4441 97.1371 53.4784C97.1409 53.4956 97.1456 53.5137 97.1495 53.5308C97.1637 53.5941 97.179 53.658 97.1928 53.7213V53.7213C97.2023 53.7627 97.2114 53.8046 97.2199 53.8456C97.2203 53.8471 97.2203 53.8488 97.2199 53.8503C97.2275 53.8841 97.2347 53.9189 97.2423 53.9527L97.2456 53.9694C97.2528 54.0032 97.2599 54.037 97.2666 54.0708C97.2733 54.1046 97.2804 54.1365 97.2871 54.1698C97.2899 54.1817 97.2923 54.1941 97.2942 54.206C97.3052 54.2584 97.3156 54.3103 97.3256 54.3627C97.3314 54.3898 97.3361 54.4179 97.3414 54.4451C97.3509 54.4927 97.3595 54.5403 97.3685 54.5879C97.3728 54.6103 97.3771 54.6355 97.3809 54.6555C97.3904 54.706 97.399 54.757 97.408 54.8074C97.4133 54.8355 97.418 54.8641 97.4228 54.8917C97.4228 54.9046 97.4271 54.9174 97.4295 54.9303C97.4318 54.9432 97.4333 54.9532 97.4347 54.9641C97.4399 54.9927 97.4447 55.0213 97.4494 55.0493C97.4561 55.0903 97.4628 55.1308 97.469 55.1712C97.4718 55.1865 97.4737 55.2017 97.4761 55.2189C97.4842 55.2722 97.4928 55.326 97.5004 55.3789C97.5056 55.4089 97.5099 55.4389 97.5137 55.4684C97.5214 55.516 97.528 55.5636 97.5342 55.6084C97.5342 55.6246 97.539 55.6408 97.5409 55.656C97.5514 55.7317 97.5614 55.8074 97.5714 55.8836C97.5814 55.9598 97.5909 56.0355 97.5999 56.1117C97.6023 56.1322 97.6047 56.1536 97.6071 56.1746C97.6166 56.2507 97.6247 56.3274 97.6333 56.4031C97.6404 56.4707 97.6475 56.5384 97.6542 56.6064C97.6542 56.6112 97.6542 56.6164 97.6542 56.6212L97.6575 56.6512V56.6717C97.6699 56.7936 97.6804 56.9155 97.6904 57.0374C97.6942 57.085 97.6985 57.1326 97.7023 57.1836C97.7023 57.2112 97.7066 57.2393 97.7085 57.2664C97.7104 57.2936 97.7128 57.325 97.7152 57.354C97.7185 57.405 97.7223 57.4559 97.7252 57.5064C97.7254 57.5082 97.7254 57.5099 97.7252 57.5117C97.7252 57.5336 97.728 57.555 97.729 57.5769C97.7313 57.6078 97.7328 57.6388 97.7347 57.6693C97.7375 57.7107 97.7394 57.7512 97.7413 57.7926C97.7413 57.7997 97.7413 57.8074 97.7413 57.8155C97.7416 57.8193 97.7416 57.8231 97.7413 57.8269C97.7452 57.9021 97.749 57.9778 97.7518 58.0531L97.7566 58.1669C97.7566 58.2078 97.7599 58.2497 97.7614 58.2912C97.7616 58.2937 97.7616 58.2963 97.7614 58.2988C97.7614 58.354 97.7652 58.4088 97.7666 58.4635C97.7666 58.4854 97.7666 58.5064 97.7666 58.5283C97.7666 58.5502 97.7666 58.5845 97.7666 58.6126C97.7666 58.6635 97.7694 58.7145 97.7699 58.765V58.7688C97.7699 58.7997 97.7699 58.8297 97.7699 58.8602C97.7699 58.9075 97.7699 58.9542 97.7699 59.0002V59.0478C97.7794 59.1273 97.7804 59.2107 97.7794 59.293Z" fill="#E4DBFA"/>
<path fill-rule="evenodd" clip-rule="evenodd" d="M97.7788 59.2925V59.4001C97.7788 59.4168 97.7788 59.4334 97.7788 59.4477C97.7788 59.5144 97.7788 59.5825 97.7788 59.6501V59.6591C97.7788 59.6882 97.7788 59.7168 97.7788 59.7458C97.7788 59.8206 97.7759 59.8944 97.7736 59.9686C97.7736 59.9882 97.7736 60.0072 97.7736 60.0258C97.7736 60.0444 97.7736 60.0667 97.7736 60.0872C97.7736 60.1239 97.7736 60.1615 97.7702 60.1986C97.7702 60.262 97.766 60.3258 97.7631 60.3891C97.7631 60.3991 97.7631 60.4096 97.7631 60.4196C97.7631 60.4296 97.7631 60.4305 97.7631 60.4358C97.7593 60.5282 97.7545 60.6201 97.7498 60.7124L97.7464 60.7839C97.7431 60.8462 97.7388 60.9091 97.735 60.9715C97.7312 61.0339 97.7283 61.0867 97.7245 61.1439C97.7109 61.3559 97.695 61.5669 97.6769 61.7767V61.7767C97.6575 62.0043 97.6353 62.2305 97.6102 62.4553V62.4553C97.5934 62.6048 97.576 62.7541 97.5579 62.9033L97.5293 63.1271C97.486 63.4605 97.4369 63.7938 97.3864 64.12C97.3683 64.2289 97.3501 64.3376 97.3317 64.4462C97.3193 64.5185 97.3069 64.589 97.2941 64.6633C97.2679 64.8061 97.2417 64.949 97.2141 65.0918V65.0918C97.1737 65.3058 97.131 65.518 97.086 65.7285V65.7285C97.0564 65.8714 97.026 66.008 96.995 66.1475V66.1475C96.9474 66.3561 96.8998 66.5618 96.8522 66.7666V66.7666C96.7696 67.1081 96.6836 67.4443 96.5941 67.7751C96.5227 68.0402 96.4492 68.3016 96.3736 68.5594C96.3361 68.6864 96.2981 68.8133 96.2593 68.9403C96.1441 69.3213 96.0255 69.6932 95.9036 70.056C95.8433 70.2373 95.782 70.416 95.7198 70.5922C95.4732 71.2979 95.2184 71.9655 94.9656 72.5878C94.9232 72.6907 94.8813 72.7931 94.8394 72.894C94.8184 72.945 94.7975 72.995 94.776 73.0455C94.7348 73.1448 94.693 73.2432 94.6508 73.3407C94.5464 73.5838 94.4433 73.8188 94.3418 74.0454L94.2203 74.3121C94.0599 74.663 93.9037 74.9911 93.7546 75.2954C93.6803 75.4468 93.6078 75.5924 93.537 75.732C93.4842 75.8368 93.4332 75.9382 93.3823 76.0358C93.3505 76.0993 93.3176 76.1628 93.2837 76.2263L93.2361 76.3177C93.2046 76.3782 93.1732 76.4368 93.1432 76.493C93.0956 76.5782 93.0542 76.6596 93.0118 76.7368C92.9837 76.7882 92.9565 76.8382 92.9299 76.8863C92.8904 76.9587 92.8518 77.0292 92.8161 77.0906C92.7685 77.1763 92.7239 77.2547 92.6823 77.3258C92.6518 77.3791 92.6232 77.4282 92.597 77.473C92.5799 77.503 92.5632 77.5306 92.5494 77.5568C92.5413 77.5696 92.5342 77.5825 92.527 77.5949L92.4866 77.661C92.4261 77.7625 92.3913 77.8149 92.3913 77.8149C87.4696 85.2351 79.7459 91.9007 70.5181 96.1577C69.5743 96.5929 68.6154 97.0024 67.6415 97.3862C63.5773 98.9857 59.2646 100.115 54.8018 100.645C53.0433 100.859 51.2743 100.977 49.5029 100.997C48.6093 101.006 47.7119 100.99 46.8106 100.949C42.6984 100.757 38.6288 100.031 34.7043 98.7876C27.6725 96.5644 20.6361 92.5697 13.9381 86.367C13.862 86.297 13.7872 86.227 13.712 86.1561C13.6053 86.057 13.5001 85.9565 13.3953 85.8565L13.3386 85.8018C13.2399 85.7065 13.1418 85.6113 13.0444 85.5161V85.5161L12.9358 85.4085C12.8882 85.3647 12.8463 85.3204 12.802 85.2766C12.7577 85.2328 12.7277 85.2028 12.691 85.1656C12.6325 85.1075 12.5753 85.0489 12.5177 84.9913C12.4825 84.9561 12.4482 84.9204 12.4134 84.8851C12.3325 84.8029 12.2517 84.7202 12.171 84.6371C12.0872 84.5494 12.003 84.4618 11.9196 84.3737C11.8977 84.3509 11.8758 84.3261 11.8549 84.3056L11.7644 84.2104C11.7044 84.1471 11.6453 84.0837 11.5858 84.0199C11.5611 83.9937 11.5382 83.9671 11.512 83.9404L11.3515 83.7661L11.3415 83.7552C11.3368 83.7499 11.3311 83.7437 11.3263 83.7376C11.2444 83.6476 11.163 83.558 11.082 83.468C11.0116 83.3895 10.9392 83.3109 10.8716 83.2299C10.8535 83.2104 10.8363 83.1899 10.8192 83.1709L10.7511 83.0933C10.6844 83.0171 10.6182 82.9409 10.5525 82.8647C10.5254 82.8338 10.4982 82.8023 10.472 82.7695C10.4063 82.6939 10.3414 82.6179 10.2773 82.5414L10.2435 82.5014C10.1797 82.4262 10.1159 82.3504 10.053 82.2747C10.0444 82.2647 10.0359 82.2538 10.0273 82.2433L9.97587 82.1814L9.76825 81.9305L9.59969 81.7214L9.4516 81.5367L9.36731 81.43L9.28922 81.3314L9.28446 81.3248C9.22684 81.2524 9.17017 81.1819 9.11446 81.1067C9.08113 81.0648 9.04827 81.0224 9.01589 80.98C8.94685 80.89 8.87828 80.8005 8.80971 80.71L8.75733 80.64C8.71447 80.5833 8.67209 80.5272 8.62971 80.47C8.6159 80.451 8.60114 80.4329 8.58733 80.4138L8.57209 80.3934C8.49559 80.2899 8.4194 80.1862 8.34353 80.0824L8.34067 80.0781C8.26353 79.9719 8.18734 79.8667 8.11163 79.7605L8.06401 79.69C8.00497 79.6077 7.94687 79.5248 7.8883 79.4415L7.84069 79.3724C7.78307 79.2891 7.72497 79.2062 7.66736 79.122C7.59403 79.0148 7.52165 78.9082 7.44879 78.801L7.34165 78.6401L7.23451 78.4782C7.22689 78.4667 7.2188 78.4553 7.21165 78.4439L7.03833 78.1787C7.03404 78.172 7.03023 78.1658 7.02547 78.1596L6.9988 78.1177C6.9369 78.0225 6.875 77.9244 6.81405 77.8282C6.745 77.7196 6.67643 77.6101 6.60834 77.501L6.58643 77.4658C6.54897 77.4052 6.51151 77.3444 6.47405 77.2834C6.4431 77.233 6.41215 77.183 6.38168 77.1325C6.25692 76.9261 6.13375 76.7198 6.01216 76.5135L6.00788 76.5063L5.82407 76.1887C5.82407 76.1858 5.82121 76.1839 5.82026 76.1816C5.75645 76.0701 5.6936 75.9592 5.62979 75.8482C5.58694 75.772 5.54408 75.6949 5.5017 75.6182C5.45932 75.5416 5.42027 75.4697 5.3798 75.3949C5.33932 75.3202 5.29313 75.2359 5.25075 75.1568C5.20837 75.0778 5.16837 75.0025 5.12742 74.9249L5.08504 74.8449L5.08076 74.8373C5.02266 74.7259 4.96457 74.6145 4.90695 74.504C4.90695 74.4983 4.90124 74.4926 4.89791 74.4864C4.87219 74.4354 4.84648 74.3849 4.82029 74.3345C4.7941 74.284 4.76267 74.2211 4.73458 74.1645L4.70696 74.1102L4.5641 73.8245L4.39792 73.4826C4.34363 73.3683 4.28935 73.2545 4.23554 73.1397C4.22602 73.1202 4.21697 73.1002 4.20745 73.0807C4.19031 73.0426 4.17269 73.0055 4.15507 72.9674C4.1284 72.9102 4.10221 72.8526 4.07555 72.7955C4.02793 72.6878 3.97745 72.5812 3.92888 72.4736C3.92222 72.4574 3.91507 72.4417 3.90793 72.4259C3.86031 72.3183 3.8127 72.2117 3.76508 72.104C3.72508 72.0131 3.68556 71.9226 3.64699 71.8312C3.63508 71.805 3.62413 71.7783 3.6127 71.7522C3.56508 71.6388 3.51747 71.526 3.46985 71.4122C3.47005 71.4111 3.47005 71.4099 3.46985 71.4088C3.4235 71.2974 3.37763 71.1863 3.33223 71.0755C3.32128 71.0474 3.30938 71.0198 3.29842 70.9917C3.25795 70.8927 3.21795 70.7931 3.1789 70.6941C3.13509 70.5827 3.09176 70.4712 3.04795 70.3608V70.3608C3.02653 70.305 3.0051 70.2493 2.98415 70.1931C2.96319 70.137 2.94177 70.0817 2.92034 70.0255C2.89891 69.9693 2.87272 69.9017 2.85082 69.8398C2.82891 69.7779 2.8032 69.716 2.78225 69.6541C2.73939 69.5373 2.69701 69.4203 2.65511 69.3032C2.65538 69.3014 2.65538 69.2997 2.65511 69.2979C2.61368 69.1813 2.57225 69.0651 2.53225 68.9484C2.50273 68.8643 2.47384 68.78 2.44559 68.6956C2.44083 68.6822 2.43654 68.6694 2.43226 68.656L2.41035 68.5932C2.39988 68.5608 2.38845 68.5284 2.37797 68.498C2.37178 68.4803 2.36654 68.4627 2.36035 68.4451C2.35416 68.4275 2.34464 68.3975 2.33702 68.3737C2.33369 68.3632 2.3294 68.3522 2.32559 68.3413C2.31464 68.307 2.30321 68.2732 2.29178 68.2384C2.27655 68.1908 2.26083 68.1432 2.24655 68.0984C2.23702 68.0703 2.2275 68.0418 2.21893 68.0132C2.20417 67.9694 2.19036 67.9251 2.17655 67.8813V67.8756C2.16845 67.8499 2.15988 67.8251 2.15226 67.7994C2.15226 67.7994 2.15226 67.7965 2.15226 67.7956C2.1275 67.7161 2.10465 67.6365 2.07798 67.5575C2.07369 67.5465 2.07036 67.5346 2.06703 67.5237C2.04988 67.4685 2.03322 67.4132 2.01655 67.358C1.99989 67.3027 1.98036 67.2404 1.96227 67.1813C1.96033 67.1731 1.95794 67.165 1.95513 67.157C1.93465 67.0875 1.91417 67.0185 1.8937 66.9485C1.87322 66.8785 1.84941 66.7994 1.82799 66.7247C1.80656 66.6499 1.78465 66.5751 1.76418 66.5004C1.75846 66.4818 1.7537 66.4632 1.74799 66.4451C1.74227 66.4271 1.74037 66.4166 1.73608 66.4028C1.72751 66.3699 1.71799 66.3375 1.70894 66.3047C1.70466 66.2899 1.70037 66.2752 1.69656 66.2604C1.67989 66.2013 1.6637 66.1432 1.64894 66.0842L1.59561 65.8852C1.57942 65.8261 1.56371 65.7671 1.54799 65.7075C1.54133 65.6818 1.53371 65.6556 1.52704 65.6295C1.5099 65.5633 1.49276 65.4961 1.47609 65.4299C1.47369 65.4238 1.47193 65.4174 1.47085 65.4109C1.46657 65.3937 1.46181 65.3771 1.45752 65.3599V65.3599C14.63 64.4509 29.6439 72.4502 44.2335 77.3534V77.3534C51.6376 79.8419 58.9332 81.5328 65.823 80.8572C68.2762 80.6167 70.68 80.0762 73.0156 79.1648C92.8946 71.4122 97.7431 58.5758 97.7802 58.4758V58.4758C97.7802 58.4977 97.7802 58.5187 97.7802 58.5406C97.7802 58.5625 97.7802 58.5968 97.7802 58.6249C97.7802 58.6758 97.7831 58.7268 97.7836 58.7773V58.7811C97.7836 58.812 97.7836 58.842 97.7836 58.8725C97.7836 58.9198 97.7836 58.9665 97.7836 59.0125V59.0601C97.7788 59.1268 97.7798 59.2101 97.7788 59.2925Z" fill="#BEB2DA"/>
<path d="M50.939 1.00255C66.2024 0.78589 72.0508 14.4441 72.0508 14.4441" stroke="#E4DBFA" stroke-width="0.151917" stroke-linecap="round"/>
<path d="M48.5056 1.32446C48.5056 1.32446 43.1967 1.47874 41.1973 1.94349" stroke="#E4DBFA" stroke-width="0.151917" stroke-linecap="round"/>
<path fill-rule="evenodd" clip-rule="evenodd" d="M15.9541 74.2977C15.9541 74.2977 16.2874 78.8452 17.4617 79.3819C18.6359 79.9185 20.2207 78.7943 20.0678 77.9C19.915 77.0057 17.9726 72.3049 16.8741 73.0968C15.7755 73.8887 15.9541 74.2977 15.9541 74.2977Z" fill="#FED194"/>
<path fill-rule="evenodd" clip-rule="evenodd" d="M16.1386 75.8862C16.1386 75.8862 16.7372 76.63 17.0605 76.9195C17.3838 77.209 17.6567 77.4647 17.7591 77.3795C17.8614 77.2943 18.2952 75.8081 17.7762 75.4205C17.2572 75.0329 16.0215 74.9948 16.0215 74.9948L16.1386 75.8862Z" fill="#F59D4E"/>
<path fill-rule="evenodd" clip-rule="evenodd" d="M70.5055 96.1665C69.5617 96.6017 68.6028 97.0112 67.6289 97.395C63.5647 98.9945 59.252 100.124 54.7892 100.654C54.4811 99.5859 51.4084 88.9948 50.7512 90.0866C50.3884 90.6919 49.8903 96.0522 49.5003 100.995C44.4815 101.046 39.4864 100.3 34.7016 98.784C34.3207 92.7813 33.9569 85.5301 33.7374 80.9693C33.6079 78.2703 33.5293 76.5132 33.5293 76.5132L34.0902 76.557L44.2214 77.3403V77.3403L65.2351 78.965L65.8108 80.844L69.4636 92.7661V92.7694L69.6336 93.3237C69.635 93.3271 69.6359 93.3306 69.6364 93.3342L69.7741 93.7823L70.5055 96.1665Z" fill="#663E36"/>
<path fill-rule="evenodd" clip-rule="evenodd" d="M70.505 96.1665C69.5612 96.6017 68.6023 97.0112 67.6284 97.395C62.339 83.543 54.1269 85.641 47.8384 85.641C40.8739 85.641 33.7374 80.9693 33.7374 80.9693V80.9693C33.6079 78.2703 33.5293 76.5132 33.5293 76.5132L34.0902 76.557L44.2214 77.3408L65.2351 78.9655L65.8108 80.8445L69.4636 92.7666V92.7699L69.6336 93.3242C69.635 93.3275 69.6359 93.3311 69.6364 93.3346L69.7741 93.7827L70.505 96.1665Z" fill="#59302A"/>
<path fill-rule="evenodd" clip-rule="evenodd" d="M65.2343 78.9648L69.4637 92.7692C67.3366 86.276 61.3848 83.3304 52.4903 82.9599C43.3477 82.5766 35.8788 79.6828 35.8788 79.6828C35.8788 79.6828 34.9503 78.6234 34.0894 76.5582L65.2343 78.9648Z" fill="#42211D"/>
<path fill-rule="evenodd" clip-rule="evenodd" d="M35.8789 79.6808C35.8789 79.6808 52.608 83.9707 65.7438 80.6284L64.6562 77.0342L35.8789 79.6808Z" fill="#27140E"/>
<path fill-rule="evenodd" clip-rule="evenodd" d="M32.0225 76.5968V79.2792C32.0225 79.2792 48.4506 81.3486 60.4084 79.7391C60.4084 79.7391 64.9478 79.3349 65.744 78.732L65.1602 74.7569L32.0225 76.5968Z" fill="white"/>
<path fill-rule="evenodd" clip-rule="evenodd" d="M53.4584 24.4614C53.4584 24.4614 51.7546 25.959 52.3103 27.0327C52.866 28.1065 48.7651 26.0913 49.8694 24.5823C50.9737 23.0733 54.9274 19.4187 55.084 21.34C55.2407 23.2614 53.4584 24.4614 53.4584 24.4614Z" fill="#72120C"/>
<path fill-rule="evenodd" clip-rule="evenodd" d="M41.8794 14.4982C41.8794 14.4982 40.7842 17.1476 40.7789 19.6471C40.7737 22.1465 40.9094 24.8131 42.0775 26.2659C43.2456 27.7188 45.2093 27.9559 45.2093 27.9559C45.2093 27.9559 45.2145 31.0568 44.7188 31.822C44.2231 32.5872 45.7541 36.659 46.8659 36.3981C47.9778 36.1371 49.364 35.7352 50.172 33.5948C50.9801 31.4544 51.443 32.5586 51.443 32.5586C51.443 32.5586 50.5835 27.515 51.0001 26.674C51.4168 25.8331 52.9072 23.7151 53.2005 22.4941C53.2005 22.4941 54.3434 22.5603 55.0871 21.898C55.8309 21.2356 56.0871 19.1809 54.9481 19.0495C54.9481 19.0495 55.8557 15.6886 55.3062 14.5363C54.7567 13.3839 49.3182 11.0244 48.3673 10.9516C47.4164 10.8787 41.8794 14.4982 41.8794 14.4982Z" fill="#FED194"/>
<path fill-rule="evenodd" clip-rule="evenodd" d="M44.6702 35.4628C44.6702 35.4628 43.1883 36.8913 44.4145 39.1251C45.6406 41.3588 44.4468 44.9159 48.1439 42.4974C51.8409 40.0789 53.5609 39.3294 52.1471 37.6599C51.0043 36.3099 49.0591 34.6562 47.8553 34.7133L47.3791 35.5818L46.9301 34.7433C46.2935 34.6552 44.6702 35.4628 44.6702 35.4628Z" fill="#BBC3C4"/>
<path fill-rule="evenodd" clip-rule="evenodd" d="M65.5836 76.8646C65.5836 76.8646 50.7521 79.8922 34.273 77.4394C34.273 77.4394 33.3283 77.3118 30.875 77.2603L33.3283 36.2247C33.3283 36.2247 35.2044 35.3443 37.3448 34.4929C39.0243 33.8262 40.8685 33.1753 42.0914 32.9843C44.8761 32.5496 44.0842 36.4333 44.0842 36.4333C44.0842 36.4333 45.3489 40.2656 47.3803 39.9594C49.4117 39.6532 50.7521 36.2247 50.7521 36.2247C50.7521 36.2247 53.3582 32.7924 54.5849 32.831C54.5849 32.831 55.8877 33.0215 57.5743 33.3291C59.2609 33.6367 61.9808 34.5195 62.4408 35.091L63.6099 49.3287L63.7051 50.4972C63.7051 50.4972 66.4264 70.4643 65.5836 76.8646Z" fill="#6D378F"/>
<path fill-rule="evenodd" clip-rule="evenodd" d="M65.5836 76.8646C65.5836 76.8646 53.9996 79.2293 39.9319 78.086C38.082 77.9355 36.1887 77.7246 34.273 77.4394C34.273 77.4394 33.3283 77.3117 30.875 77.2603L32.5269 49.6239L33.3283 36.2247C33.3283 36.2247 35.2044 35.3443 37.3448 34.4929C37.3448 34.4929 41.1024 54.2923 49.2236 56.7832C57.3448 59.2741 62.5566 49.5396 62.5566 49.5396C62.5566 49.5396 62.9575 49.4358 63.6108 49.3296L63.706 50.4982C63.706 50.4982 63.8408 51.4853 64.0394 53.0914C64.5127 56.8918 65.3527 64.1573 65.6422 69.9996C65.7822 72.7904 65.7955 75.2561 65.5836 76.8646Z" fill="#582279"/>
<path fill-rule="evenodd" clip-rule="evenodd" d="M65.6411 69.9977C60.1136 72.2533 49.6706 76.1918 39.9275 78.0841C38.0776 77.9337 36.1843 77.7227 34.2686 77.4375C34.2686 77.4375 33.3239 77.3099 30.8706 77.2585L32.5225 49.622C33.0091 49.1106 33.4486 48.834 33.8081 48.8482C37.5633 49.0016 42.2394 53.7819 42.2394 53.7819C42.2394 53.7819 45.075 68.9515 62.6274 54.2243C63.1185 53.8116 63.5877 53.4334 64.035 53.0896C64.5116 56.8914 65.3516 64.1569 65.6411 69.9977Z" fill="#42115F"/>
<path fill-rule="evenodd" clip-rule="evenodd" d="M13.8433 33.0929L19.035 53.0643L36.1017 49.0206L40.0978 45.7673L36.1079 29.0849L31.3466 28.413L13.8433 33.0929V33.0929Z" fill="#FDAC2A"/>
<path opacity="0.5" fill-rule="evenodd" clip-rule="evenodd" d="M36.0017 28.68L40.0964 45.7672L36.1217 49.0071L36.0998 49.02L34.4151 41.9911L31.1709 28.4596L31.1704 28.4581L31.1747 28.4586L31.9052 28.4919L36.0017 28.68V28.68Z" fill="#CC4400"/>
<path opacity="0.5" fill-rule="evenodd" clip-rule="evenodd" d="M22.5305 43.0304C19.9044 42.3114 17.2211 40.9657 15.4883 39.3876L19.0353 53.0654L36.102 49.0217L34.4168 41.9923C30.8312 43.3804 26.049 43.9942 22.5305 43.0304Z" fill="#CC4400"/>
<path fill-rule="evenodd" clip-rule="evenodd" d="M20.4194 31.2599L21.5937 35.846C22.3037 35.6079 23.0151 35.355 23.7141 35.0446L22.5932 30.6271L20.4194 31.2599Z" fill="black"/>
<path fill-rule="evenodd" clip-rule="evenodd" d="M31.6472 44.7708C30.9329 45.0918 30.2291 45.4179 29.522 45.7198L30.7924 50.4816L32.9933 49.8193L31.6472 44.7708Z" fill="black"/>
<path fill-rule="evenodd" clip-rule="evenodd" d="M31.32 33.2565L26.5539 34.3355L25.7554 31.4813L30.5276 30.3623L31.32 33.2565V33.2565Z" fill="#EAECED"/>
<path fill-rule="evenodd" clip-rule="evenodd" d="M27.0426 33.8806L26.7445 33.9501L26.1436 31.8407L26.4416 31.7692L27.0426 33.8806V33.8806Z" fill="black"/>
<path fill-rule="evenodd" clip-rule="evenodd" d="M27.1009 33.8658L26.9828 33.8939L26.3818 31.783L26.4999 31.7549L27.1009 33.8658V33.8658Z" fill="black"/>
<path fill-rule="evenodd" clip-rule="evenodd" d="M27.3499 33.8076L27.2313 33.8353L26.6309 31.7234L26.7494 31.6953L27.3499 33.8076V33.8076Z" fill="black"/>
<path fill-rule="evenodd" clip-rule="evenodd" d="M28.0994 33.633L27.9809 33.6611L27.3813 31.5454L27.4999 31.5168L28.0994 33.633V33.633Z" fill="black"/>
<path fill-rule="evenodd" clip-rule="evenodd" d="M28.6445 33.5042L28.4369 33.5528L27.8379 31.4347L28.046 31.3852L28.6445 33.5042V33.5042Z" fill="black"/>
<path fill-rule="evenodd" clip-rule="evenodd" d="M28.8514 33.4554L28.7323 33.4835L28.1338 31.364L28.2528 31.3354L28.8514 33.4554V33.4554Z" fill="black"/>
<path fill-rule="evenodd" clip-rule="evenodd" d="M29.1024 33.3973L28.9833 33.4249L28.3853 31.3045L28.5043 31.2759L29.1024 33.3973V33.3973Z" fill="black"/>
<path fill-rule="evenodd" clip-rule="evenodd" d="M29.6499 33.2682L29.4414 33.3172L28.8438 31.1944L29.0528 31.1444L29.6499 33.2682V33.2682Z" fill="black"/>
<path fill-rule="evenodd" clip-rule="evenodd" d="M29.8578 33.2202L29.7387 33.2483L29.1411 31.124L29.2606 31.0955L29.8578 33.2202V33.2202Z" fill="black"/>
<path fill-rule="evenodd" clip-rule="evenodd" d="M30.3626 33.1021L30.2426 33.1301L29.646 31.0035L29.766 30.9745L30.3626 33.1021V33.1021Z" fill="black"/>
<path fill-rule="evenodd" clip-rule="evenodd" d="M30.8695 32.9836L30.7495 33.0122L30.1533 30.8827L30.2738 30.8537L30.8695 32.9836V32.9836Z" fill="black"/>
<g style="mix-blend-mode:multiply" opacity="0.32">
<path fill-rule="evenodd" clip-rule="evenodd" d="M27.0842 42.5623C27.8424 42.5623 28.4571 41.9477 28.4571 41.1895C28.4571 40.4313 27.8424 39.8167 27.0842 39.8167C26.3261 39.8167 25.7114 40.4313 25.7114 41.1895C25.7114 41.9477 26.3261 42.5623 27.0842 42.5623Z" fill="#EDAD8A"/>
</g>
<g style="mix-blend-mode:multiply" opacity="0.32">
<path fill-rule="evenodd" clip-rule="evenodd" d="M30.1458 41.3475C30.5532 41.3475 30.8834 41.0173 30.8834 40.6099C30.8834 40.2025 30.5532 39.8723 30.1458 39.8723C29.7384 39.8723 29.4082 40.2025 29.4082 40.6099C29.4082 41.0173 29.7384 41.3475 30.1458 41.3475Z" fill="#EDAD8A"/>
</g>
<path fill-rule="evenodd" clip-rule="evenodd" d="M52.9028 47.7441C52.9028 47.7441 53.1538 48.0212 53.7704 48.0536C54.3871 48.086 57.2389 48.2517 57.5103 47.8212C57.8437 47.2974 57.5708 46.4731 57.0342 46.5603C56.4975 46.6474 52.9028 47.7441 52.9028 47.7441Z" fill="#42115F"/>
<path fill-rule="evenodd" clip-rule="evenodd" d="M52.8525 46.6336L57.1057 46.4628L57.1506 47.5809L52.8974 47.7517L52.8525 46.6336Z" fill="white"/>
<path fill-rule="evenodd" clip-rule="evenodd" d="M10.7573 51.447L17.8505 78.7316L41.167 73.2074L46.6273 68.7623L41.176 45.9705L34.6705 45.0529L10.7573 51.447V51.447Z" fill="#FDAC2A"/>
<path opacity="0.5" fill-rule="evenodd" clip-rule="evenodd" d="M41.1748 45.971L46.6261 68.7628L41.1953 73.1894L41.1657 73.2075L38.8634 63.6039L34.4316 45.1173L34.4312 45.1154L34.4369 45.1158L35.4345 45.1615L41.1748 45.971V45.971Z" fill="#D95F16"/>
<path fill-rule="evenodd" clip-rule="evenodd" d="M22.6251 65.0221C19.0371 64.0397 15.3715 62.2012 13.0063 60.045L17.8524 78.7317L41.1689 73.208L38.8666 63.6045C33.9653 65.4978 27.4326 66.3387 22.6251 65.0221Z" fill="#FF920F"/>
<path fill-rule="evenodd" clip-rule="evenodd" d="M19.7422 48.9419L21.3464 55.2084C22.3159 54.8817 23.2883 54.5369 24.2435 54.1131L22.7116 48.0781L19.7422 48.9419Z" fill="black"/>
<path fill-rule="evenodd" clip-rule="evenodd" d="M35.081 67.4014C34.1072 67.8395 33.1429 68.2852 32.1763 68.6976L33.9124 75.205L36.9185 74.3003L35.081 67.4014Z" fill="black"/>
<path fill-rule="evenodd" clip-rule="evenodd" d="M34.6344 51.6681L28.1232 53.1423L27.0322 49.2424L33.5521 47.7144L34.6344 51.6681V51.6681Z" fill="#EAECED"/>
<path fill-rule="evenodd" clip-rule="evenodd" d="M28.7896 52.5218L28.3825 52.617L27.5615 49.7347L27.9687 49.6376L28.7896 52.5218V52.5218Z" fill="black"/>
<path fill-rule="evenodd" clip-rule="evenodd" d="M28.8681 52.5026L28.7067 52.5402L27.8862 49.6564L28.0477 49.6183L28.8681 52.5026V52.5026Z" fill="black"/>
<path fill-rule="evenodd" clip-rule="evenodd" d="M29.2094 52.4224L29.0475 52.4605L28.2275 49.5754L28.389 49.5368L29.2094 52.4224V52.4224Z" fill="black"/>
<path fill-rule="evenodd" clip-rule="evenodd" d="M30.2339 52.1825L30.072 52.2201L29.2529 49.3297L29.4148 49.2911L30.2339 52.1825V52.1825Z" fill="black"/>
<path fill-rule="evenodd" clip-rule="evenodd" d="M30.9813 52.0082L30.697 52.0749L29.8789 49.1811L30.1632 49.1135L30.9813 52.0082V52.0082Z" fill="black"/>
<path fill-rule="evenodd" clip-rule="evenodd" d="M31.2617 51.943L31.0993 51.9806L30.2817 49.0854L30.4441 49.0464L31.2617 51.943V51.943Z" fill="black"/>
<path fill-rule="evenodd" clip-rule="evenodd" d="M31.6055 51.8619L31.4426 51.9L30.6255 49.003L30.7883 48.9639L31.6055 51.8619V51.8619Z" fill="black"/>
<path fill-rule="evenodd" clip-rule="evenodd" d="M32.3543 51.6866L32.0691 51.7538L31.2524 48.8534L31.5381 48.7853L32.3543 51.6866V51.6866Z" fill="black"/>
<path fill-rule="evenodd" clip-rule="evenodd" d="M32.6372 51.6199L32.4739 51.6585L31.6582 48.7557L31.8211 48.7172L32.6372 51.6199V51.6199Z" fill="black"/>
<path fill-rule="evenodd" clip-rule="evenodd" d="M33.3277 51.4597L33.1643 51.4983L32.3491 48.5921L32.5129 48.5531L33.3277 51.4597V51.4597Z" fill="black"/>
<path fill-rule="evenodd" clip-rule="evenodd" d="M34.0181 51.297L33.8543 51.3356L33.04 48.4261L33.2038 48.3871L34.0181 51.297V51.297Z" fill="black"/>
<g style="mix-blend-mode:multiply" opacity="0.32">
<path fill-rule="evenodd" clip-rule="evenodd" d="M28.8464 64.3837C29.8823 64.3837 30.722 63.544 30.722 62.5081C30.722 61.4721 29.8823 60.6324 28.8464 60.6324C27.8105 60.6324 26.9707 61.4721 26.9707 62.5081C26.9707 63.544 27.8105 64.3837 28.8464 64.3837Z" fill="#EDAD8A"/>
</g>
<g style="mix-blend-mode:multiply" opacity="0.32">
<path fill-rule="evenodd" clip-rule="evenodd" d="M33.0301 62.7244C33.5865 62.7244 34.0376 62.2733 34.0376 61.7168C34.0376 61.1603 33.5865 60.7092 33.0301 60.7092C32.4736 60.7092 32.0225 61.1603 32.0225 61.7168C32.0225 62.2733 32.4736 62.7244 33.0301 62.7244Z" fill="#EDAD8A"/>
</g>
<path fill-rule="evenodd" clip-rule="evenodd" d="M51.6719 20.5475C51.6719 20.5475 52.2434 17.8509 51.6891 15.6977C51.1348 13.5444 51.8177 11.084 51.8177 11.084C51.8177 11.084 56.2056 11.7092 55.8828 15.0039C55.5599 18.2986 54.9481 19.0476 54.9481 19.0476C54.9481 19.0476 53.91 18.9443 52.6672 20.3514C51.4243 21.7585 51.6719 20.5475 51.6719 20.5475Z" fill="#72120C"/>
<path fill-rule="evenodd" clip-rule="evenodd" d="M57.6089 19.4305C55.9798 23.7246 53.4585 24.4618 53.4585 24.4618C53.4585 24.4618 54.2908 23.5232 54.0128 20.8633C53.9356 20.1304 53.5537 18.9414 53.0409 17.6029C51.6933 14.0882 49.44 9.54739 49.44 9.54739L48.3672 8.64265C48.3672 8.64265 51.129 7.53125 53.7766 8.79264C55.7013 9.71119 59.2374 15.1363 57.6089 19.4305Z" fill="#6D378F"/>
<path fill-rule="evenodd" clip-rule="evenodd" d="M55.616 14.3168C54.5808 16.7401 53.0409 17.6025 53.0409 17.6025C51.6933 14.0878 49.44 9.54697 49.44 9.54697L48.3672 8.64223C48.3672 8.64223 51.2538 7.29988 53.7766 8.79222L53.8242 8.82032C55.7137 9.94519 56.4796 12.2945 55.616 14.3168V14.3168Z" fill="white"/>
<path fill-rule="evenodd" clip-rule="evenodd" d="M53.5387 18.9832C52.6625 16.8609 51.8525 15.1738 50.8088 14.0243C49.8002 12.9144 48.5745 12.3034 46.8593 12.2834C44.5937 12.2563 42.9613 13.8158 42.0942 14.9129C41.8281 15.2441 41.5893 15.5964 41.38 15.9662C41.38 15.9662 40.4752 14.1381 39.6081 12.2572C39.6857 12.1328 39.7443 11.9975 39.7819 11.8558C39.7979 11.7937 39.8021 11.7291 39.7943 11.6653C39.6767 10.8487 40.68 9.64968 39.7614 9.7973C39.519 9.83682 39.1933 10.1259 38.8434 10.5316C38.8415 10.5342 38.8395 10.5366 38.8372 10.5387C38.7138 10.253 38.5991 9.9811 38.4972 9.7292L38.491 9.71539C38.4914 9.71448 38.4914 9.71345 38.491 9.71254V9.71254C38.4424 9.59381 38.3973 9.48016 38.3557 9.37159C38.2029 8.97494 38.0958 8.65495 38.0558 8.45209C37.9302 7.74391 37.8752 7.02501 37.8915 6.30596C37.9153 4.9798 38.1734 3.49651 38.9529 2.65415C40.2324 1.27323 44.7218 1.42514 47.8712 5.78359C50.9964 10.1078 53.4996 18.8471 53.5387 18.9832Z" fill="#6D378F"/>
<path fill-rule="evenodd" clip-rule="evenodd" d="M50.8082 14.0239C49.7997 12.9139 48.574 12.303 46.8588 12.283C44.5932 12.2558 42.9608 13.8153 42.0937 14.9124C41.9901 14.8455 41.8983 14.762 41.8218 14.6653C41.378 14.022 40.4695 12.7834 39.7828 11.8558C39.2843 11.1816 38.9038 10.6711 38.9038 10.6711L38.8443 10.533L38.4981 9.73208L38.4919 9.71827C38.4923 9.71736 38.4923 9.71633 38.4919 9.71541V9.71541C38.4628 9.59066 37.82 6.70787 40.5199 5.50838C43.2789 4.28175 47.7612 7.60357 50.623 13.6034C50.6925 13.7488 50.7543 13.889 50.8082 14.0239Z" fill="#582279"/>
<path fill-rule="evenodd" clip-rule="evenodd" d="M51.592 15.0473C51.5335 14.9578 48.7878 11.8541 46.5755 13.5941C44.4151 15.2926 40.5657 16.1583 39.0747 12.975C38.9666 12.7428 38.8753 12.5032 38.8014 12.2579C38.7771 12.1765 38.7562 12.0969 38.74 12.0198C38.5348 11.0432 38.9633 10.2913 39.7623 9.80082C41.0604 9.00369 44.057 9.51511 46.7593 10.8203C48.8607 11.8312 50.7844 13.3226 51.592 15.0473Z" fill="#72120C"/>
<path fill-rule="evenodd" clip-rule="evenodd" d="M45.2095 27.9543C45.2095 27.9543 46.4095 28.0582 47.8414 27.5348C47.8414 27.5348 48.6671 27.0496 47.9285 28.392C47.19 29.7343 45.1157 30.0267 45.1157 30.0267L45.2095 27.9543Z" fill="#F59D4E"/>
<path fill-rule="evenodd" clip-rule="evenodd" d="M42.5863 19.6111C42.6489 19.275 42.5534 18.9752 42.373 18.9416C42.1925 18.908 41.9954 19.1531 41.9328 19.4892C41.8701 19.8253 41.9656 20.125 42.1461 20.1587C42.3265 20.1923 42.5236 19.9471 42.5863 19.6111Z" fill="#72120C"/>
<path fill-rule="evenodd" clip-rule="evenodd" d="M46.9398 20.2071C47.0024 19.871 46.9069 19.5712 46.7265 19.5376C46.546 19.504 46.349 19.7491 46.2863 20.0852C46.2236 20.4213 46.3191 20.7211 46.4996 20.7547C46.68 20.7883 46.8771 20.5432 46.9398 20.2071Z" fill="#72120C"/>
<path fill-rule="evenodd" clip-rule="evenodd" d="M46.4031 17.5319C46.3865 17.4585 46.4912 17.4057 46.5765 17.389C46.8474 17.3352 47.526 17.2581 47.7193 17.77C47.8793 18.1909 47.6512 18.0914 47.6198 18.0252C47.5721 17.9228 47.4431 17.7057 47.2974 17.6228C46.9626 17.4285 46.4422 17.7 46.4031 17.5319Z" fill="#72120C"/>
<path fill-rule="evenodd" clip-rule="evenodd" d="M41.4276 17.6401C41.3653 17.5639 41.4343 17.4439 41.5067 17.3772C41.7376 17.1644 42.3524 16.6972 42.8652 17.1867C43.2876 17.5886 43.0014 17.5991 42.929 17.5391C42.8176 17.4467 42.5543 17.2648 42.36 17.2491C41.911 17.2115 41.5719 17.8143 41.4276 17.6401Z" fill="#72120C"/>
<path fill-rule="evenodd" clip-rule="evenodd" d="M43.9464 19.6812C43.9127 20.045 43.8546 20.4061 43.7726 20.7622C43.7369 20.9407 43.6878 21.116 43.6435 21.2926C43.5992 21.4693 43.5426 21.6426 43.4854 21.8164C43.454 21.904 43.4231 21.9902 43.384 22.0817C43.3731 22.1077 43.3609 22.1331 43.3473 22.1578L43.3364 22.1778L43.3312 22.1878C43.3312 22.1907 43.3264 22.1969 43.3283 22.194C43.3302 22.1912 43.3316 22.1855 43.3345 22.1774C43.3356 22.1704 43.3356 22.1633 43.3345 22.1564C43.3345 22.1526 43.3345 22.1521 43.3345 22.1497C43.3345 22.1474 43.3345 22.1455 43.3345 22.1459C43.3345 22.1464 43.3345 22.1459 43.3345 22.1459V22.1502L43.3392 22.1564C43.3583 22.1806 43.3806 22.202 43.4054 22.2202C43.4368 22.2434 43.4696 22.2648 43.5035 22.284C43.574 22.324 43.6507 22.3621 43.7292 22.3974C44.0579 22.5344 44.3992 22.639 44.7483 22.7097V22.7288C44.3842 22.7209 44.0236 22.6567 43.6792 22.5383C43.593 22.5086 43.5088 22.4731 43.4273 22.4321C43.3432 22.3929 43.267 22.3385 43.2026 22.2716C43.186 22.2535 43.1728 22.2325 43.1635 22.2097C43.1531 22.1856 43.1506 22.1587 43.1564 22.1331C43.1594 22.1203 43.1644 22.1081 43.1712 22.0969L43.1859 22.0674C43.1962 22.0478 43.2053 22.0276 43.2131 22.0069C43.2473 21.924 43.2764 21.8383 43.3054 21.7531C43.4216 21.4107 43.5259 21.0636 43.6288 20.7165C43.7316 20.3693 43.8307 20.0212 43.9283 19.6727L43.9464 19.6812Z" fill="#F59D4E"/>
<path fill-rule="evenodd" clip-rule="evenodd" d="M43.2432 24.5139C44.0437 24.6301 45.4527 24.6806 46.6988 23.9368C46.7164 23.926 46.7394 23.9308 46.7512 23.9477C46.763 23.9645 46.7597 23.9877 46.7436 24.0006C46.0436 24.5553 44.6794 25.3539 43.1865 24.7115C43.1393 24.6905 43.1148 24.6378 43.129 24.5881C43.1433 24.5384 43.192 24.5067 43.2432 24.5139V24.5139Z" fill="#F59D4E"/>
<path fill-rule="evenodd" clip-rule="evenodd" d="M47.5338 21.5783C47.6164 21.5783 47.6833 21.5113 47.6833 21.4288C47.6833 21.3462 47.6164 21.2792 47.5338 21.2792C47.4512 21.2792 47.3843 21.3462 47.3843 21.4288C47.3843 21.5113 47.4512 21.5783 47.5338 21.5783Z" fill="#F59D4E"/>
<path fill-rule="evenodd" clip-rule="evenodd" d="M42.1573 21.109C42.2399 21.109 42.3069 21.0421 42.3069 20.9595C42.3069 20.8769 42.2399 20.81 42.1573 20.81C42.0748 20.81 42.0078 20.8769 42.0078 20.9595C42.0078 21.0421 42.0748 21.109 42.1573 21.109Z" fill="#F59D4E"/>
<path fill-rule="evenodd" clip-rule="evenodd" d="M48.0945 21.8265C48.1529 21.8265 48.2002 21.7791 48.2002 21.7208C48.2002 21.6624 48.1529 21.6151 48.0945 21.6151C48.0361 21.6151 47.9888 21.6624 47.9888 21.7208C47.9888 21.7791 48.0361 21.8265 48.0945 21.8265Z" fill="#F59D4E"/>
<path fill-rule="evenodd" clip-rule="evenodd" d="M41.3396 20.5319C41.398 20.5319 41.4453 20.4846 41.4453 20.4262C41.4453 20.3678 41.398 20.3205 41.3396 20.3205C41.2812 20.3205 41.2339 20.3678 41.2339 20.4262C41.2339 20.4846 41.2812 20.5319 41.3396 20.5319Z" fill="#F59D4E"/>
<path fill-rule="evenodd" clip-rule="evenodd" d="M41.3904 21.8717C41.4488 21.8717 41.4961 21.8244 41.4961 21.766C41.4961 21.7076 41.4488 21.6603 41.3904 21.6603C41.332 21.6603 41.2847 21.7076 41.2847 21.766C41.2847 21.8244 41.332 21.8717 41.3904 21.8717Z" fill="#F59D4E"/>
<path fill-rule="evenodd" clip-rule="evenodd" d="M48.1882 21.3228C48.2466 21.3228 48.2939 21.2754 48.2939 21.217C48.2939 21.1587 48.2466 21.1113 48.1882 21.1113C48.1298 21.1113 48.0825 21.1587 48.0825 21.217C48.0825 21.2754 48.1298 21.3228 48.1882 21.3228Z" fill="#F59D4E"/>
<path fill-rule="evenodd" clip-rule="evenodd" d="M46.8888 22.0794C46.9714 22.0794 47.0383 22.0124 47.0383 21.9299C47.0383 21.8473 46.9714 21.7803 46.8888 21.7803C46.8062 21.7803 46.7393 21.8473 46.7393 21.9299C46.7393 22.0124 46.8062 22.0794 46.8888 22.0794Z" fill="#F59D4E"/>
<path fill-rule="evenodd" clip-rule="evenodd" d="M47.6577 22.4999C47.7632 22.4999 47.8487 22.4144 47.8487 22.309C47.8487 22.2035 47.7632 22.118 47.6577 22.118C47.5523 22.118 47.4668 22.2035 47.4668 22.309C47.4668 22.4144 47.5523 22.4999 47.6577 22.4999Z" fill="#F59D4E"/>
<path fill-rule="evenodd" clip-rule="evenodd" d="M41.5191 21.2715C41.6245 21.2715 41.71 21.1861 41.71 21.0806C41.71 20.9751 41.6245 20.8896 41.5191 20.8896C41.4136 20.8896 41.3281 20.9751 41.3281 21.0806C41.3281 21.1861 41.4136 21.2715 41.5191 21.2715Z" fill="#F59D4E"/>
<path fill-rule="evenodd" clip-rule="evenodd" d="M48.44 22.3223C48.5454 22.3223 48.6309 22.2368 48.6309 22.1314C48.6309 22.0259 48.5454 21.9404 48.44 21.9404C48.3345 21.9404 48.249 22.0259 48.249 22.1314C48.249 22.2368 48.3345 22.3223 48.44 22.3223Z" fill="#F59D4E"/>
<path opacity="0.67" fill-rule="evenodd" clip-rule="evenodd" d="M51.5928 15.0481C51.5342 14.9586 48.7886 11.8548 46.5762 13.5948C44.4158 15.2933 40.5664 16.159 39.0755 12.9758C38.9673 12.7436 38.876 12.5039 38.8021 12.2586C38.7779 12.1772 38.7569 12.0977 38.7407 12.0205C39.8502 13.5614 42.4254 13.701 43.7377 13.4424C46.0501 12.9877 46.7448 10.8672 46.76 10.821C48.8614 11.832 50.7852 13.3234 51.5928 15.0481Z" fill="#540200"/>
<path fill-rule="evenodd" clip-rule="evenodd" d="M44.3293 31.0849C44.3293 31.0849 46.5097 33.6401 47.0035 34.8834L47.3783 35.5814L47.8545 34.7129C47.8545 34.7129 51.5334 30.7606 52.2658 30.3525C52.2658 30.3525 52.4362 30.1992 52.6915 30.6254C52.9467 31.0516 55.5528 32.9539 55.5528 32.9539C55.5528 32.9539 53.441 33.231 52.0615 35.5814C50.682 37.9319 50.7668 37.949 50.7668 37.949C50.7668 37.949 50.0525 35.8371 47.8545 34.711L47.3783 35.5795L46.9293 34.741C46.9293 34.741 45.1131 35.4076 43.7674 38.2028C43.7674 38.2028 43.5631 38.3052 43.3584 37.3852C43.1536 36.4652 41.468 32.9906 40.8375 32.8377C40.207 32.6849 42.6075 31.8782 43.546 31.3558C44.2955 30.9401 44.3293 31.0849 44.3293 31.0849Z" fill="white"/>
<path fill-rule="evenodd" clip-rule="evenodd" d="M48.1626 72.5705C47.3402 73.3648 44.8332 74.201 43.1151 74.6605C42.3423 74.8667 41.7294 74.9967 41.5023 75.0124C40.7695 75.0638 37.3929 75.5495 36.6096 75.6004C35.8263 75.6514 34.8953 75.3533 35.0296 74.7743C35.1639 74.1952 36.3924 74.3486 37.4996 74.06C38.6067 73.7714 40.1223 72.8339 40.6166 72.3234C41.1109 71.8129 42.269 70.143 42.2004 69.752C42.1318 69.3611 42.4951 69.1559 41.1661 68.6278C39.8371 68.0997 39.4581 67.0273 39.6628 66.2431C39.8676 65.4588 40.0371 66.1926 41.2637 66.7035C42.4904 67.2145 44.346 67.2821 44.8236 68.1002C45.3013 68.9182 46.3398 69.2906 46.3398 69.2906C46.3398 69.2906 46.4788 69.3892 46.686 69.5549C47.4422 70.1611 49.0983 71.6658 48.1626 72.5705Z" fill="#FED194"/>
<path fill-rule="evenodd" clip-rule="evenodd" d="M48.1627 72.5691C47.3404 73.3634 44.8333 74.1996 43.1152 74.6591V74.6591C43.1152 74.6591 44.5685 74.04 45.6671 72.9924C46.7656 71.9449 46.3813 69.5944 46.3813 69.5944C46.4819 69.5728 46.5839 69.5587 46.6866 69.5521C47.4423 70.1597 49.0984 71.6644 48.1627 72.5691Z" fill="#F59D4E"/>
<path fill-rule="evenodd" clip-rule="evenodd" d="M72.5693 62.5451C71.7517 64.9988 56.2159 71.2844 54.7359 71.9468C53.256 72.6091 52.4874 71.9468 52.4874 71.9468L47.3271 73.3753C47.7866 72.0468 46.0366 68.9297 46.0366 68.9297C47.0366 68.4535 50.4056 67.2435 50.4056 67.2435C50.4056 66.3621 51.0955 65.2122 53.395 64.0632C54.6607 63.4303 57.2735 61.2875 59.3667 59.489C61.0758 58.0205 62.439 56.781 62.439 56.781C62.439 56.781 62.2091 54.9034 60.9062 50.4192C59.6034 45.9351 61.251 38.9224 61.251 36.8534C61.251 34.7844 62.4414 35.0915 62.4414 35.0915C62.4414 35.0915 64.0895 34.6444 67.1042 40.6228C70.1188 46.6012 73.3869 60.0942 72.5693 62.5451Z" fill="white"/>
<path opacity="0.54" fill-rule="evenodd" clip-rule="evenodd" d="M59.3682 59.491C61.0772 58.0225 62.4405 56.783 62.4405 56.783C62.4405 56.783 62.2105 54.9054 60.9076 50.4212C59.6048 45.9371 61.2524 38.9244 61.2524 36.8554C61.2524 34.7864 62.4428 35.0935 62.4428 35.0935C62.4428 35.0935 61.5381 36.1792 61.7405 38.9896C61.9429 41.8 62.7824 53.5074 67.0789 55.4435C71.3755 57.3796 59.3682 59.491 59.3682 59.491Z" fill="#D2D7DB"/>
<path fill-rule="evenodd" clip-rule="evenodd" d="M62.4393 56.783C62.4393 56.783 63.7978 56.0292 64.973 56.3611C66.1482 56.693 66.8468 56.783 66.8468 56.783C66.8468 56.783 67.9196 56.821 65.4159 55.4925C62.9121 54.164 62.1641 55.2949 62.1641 55.2949L62.4393 56.783Z" fill="#949A9B"/>
<path opacity="0.54" fill-rule="evenodd" clip-rule="evenodd" d="M50.4067 67.2448C50.4067 67.2448 51.5019 68.2329 52.029 69.919C52.5561 71.6052 52.4885 71.9456 52.4885 71.9456L47.3282 73.3742C47.3282 73.3742 47.6439 72.6423 47.0806 71.2599C47.0806 71.2599 50.1043 72.0628 50.5471 70.189C50.99 68.3153 50.4067 67.2448 50.4067 67.2448Z" fill="#D2D7DB"/>
<path fill-rule="evenodd" clip-rule="evenodd" d="M50.4069 67.2448C50.4069 67.2448 51.5021 68.6733 51.2459 70.0066C50.9897 71.3399 50.2388 72.5718 50.2388 72.5718L52.4887 71.948C52.4887 71.948 52.5139 69.4081 50.4069 67.2448Z" fill="#949A9B"/>
<path fill-rule="evenodd" clip-rule="evenodd" d="M15.734 70.5503C15.734 70.5503 14.4884 72.6874 16.3878 75.8325C16.3878 75.8325 17.5397 76.8954 17.8164 76.3644C18.093 75.8335 17.3573 75.533 17.2588 75.0311C17.1602 74.5292 16.815 72.8479 16.5445 72.1312C16.274 71.4146 15.734 70.5503 15.734 70.5503Z" fill="#FED194"/>
<path fill-rule="evenodd" clip-rule="evenodd" d="M50.7513 90.0866C50.3885 90.6918 49.8904 96.0522 49.5004 100.995C48.6068 101.004 47.7094 100.988 46.8081 100.948C47.4924 97.4559 48.3381 94.0503 48.8842 92.5408C50.1594 89.0138 50.7513 90.0866 50.7513 90.0866Z" fill="#59302A"/>
<path fill-rule="evenodd" clip-rule="evenodd" d="M69.7763 93.7826C69.7339 93.6564 69.6882 93.5078 69.6387 93.3345L69.7763 93.7826Z" fill="#59302A"/>
</svg>
