<svg width="20" height="20" viewBox="0 0 20 20" fill="none" xmlns="http://www.w3.org/2000/svg">
<path fill-rule="evenodd" clip-rule="evenodd" d="M14.1548 2H6.51185C5.8488 2 5.21292 2.26339 4.74408 2.73223L2.73223 4.74408C2.26339 5.21292 2 5.8488 2 6.51184V7.83333V16.1667C2 17.5474 3.11929 18.6667 4.5 18.6667H16.1667C17.5474 18.6667 18.6667 17.5474 18.6667 16.1667V7.83333V6.51185C18.6667 5.8488 18.4033 5.21292 17.9344 4.74408L15.9226 2.73223C15.4537 2.26339 14.8179 2 14.1548 2ZM16.1667 5.33333L14.7441 3.91074C14.5878 3.75446 14.3758 3.66667 14.1548 3.66667H6.51185C6.29083 3.66667 6.07887 3.75446 5.92259 3.91074L4.5 5.33333H16.1667ZM3.66667 7.83333V16.1667C3.66667 16.6269 4.03976 17 4.5 17H16.1667C16.6269 17 17 16.6269 17 16.1667V7.83333C17 7.3731 16.6269 7 16.1667 7H4.5C4.03976 7 3.66667 7.3731 3.66667 7.83333ZM5.33333 14.5C5.33333 14.0398 5.70643 13.6667 6.16667 13.6667H7.83333C8.29357 13.6667 8.66667 14.0398 8.66667 14.5C8.66667 14.9602 8.29357 15.3333 7.83333 15.3333H6.16667C5.70643 15.3333 5.33333 14.9602 5.33333 14.5ZM6.16667 11.1667C5.70643 11.1667 5.33333 11.5398 5.33333 12C5.33333 12.4602 5.70643 12.8333 6.16667 12.8333H9.5C9.96024 12.8333 10.3333 12.4602 10.3333 12C10.3333 11.5398 9.96024 11.1667 9.5 11.1667H6.16667Z" fill="#1C294D" fill-opacity="0.5"/>
</svg>
