<svg width="20" height="20" viewBox="0 0 20 20" fill="none" xmlns="http://www.w3.org/2000/svg">
<path fill-rule="evenodd" clip-rule="evenodd" d="M1.91807 1.91823C2.25349 1.58282 2.79732 1.58282 3.13274 1.91823L6.06376 4.84918C6.30825 4.73739 6.57309 4.66267 6.85095 4.63185L9.70843 4.31485C10.4863 4.22856 11.2612 4.50044 11.8146 5.05382L17.5785 10.8176C18.5847 11.8238 18.5847 13.4553 17.5785 14.4615L14.4612 17.5787C13.455 18.5849 11.8235 18.5849 10.8172 17.5787L4.82776 11.5893C4.22572 10.9873 3.95994 10.1268 4.11765 9.2901L4.60295 6.71551C4.64775 6.47781 4.72459 6.25231 4.82869 6.04342L1.91807 3.13287C1.58265 2.79746 1.58265 2.25365 1.91807 1.91823ZM7.03942 8.2541L6.21616 7.43085L5.80572 9.60828C5.75315 9.88716 5.84175 10.174 6.04243 10.3747L12.0319 16.364C12.3673 16.6994 12.9112 16.6994 13.2466 16.364L16.3638 13.2469C16.6992 12.9115 16.6992 12.3676 16.3638 12.0322L10.5999 6.26846C10.4154 6.084 10.1571 5.99337 9.89784 6.02213L7.50249 6.28787L8.27427 7.05964C8.88936 6.88473 9.5784 7.03941 10.0627 7.52366C10.7742 8.23518 10.7742 9.38878 10.0627 10.1003C9.35113 10.8118 8.1975 10.8118 7.48596 10.1003C6.98645 9.6008 6.8376 8.88344 7.03942 8.2541Z" fill="#FF283D"/>
</svg>
