<svg width="20" height="20" viewBox="0 0 20 20" fill="none" xmlns="http://www.w3.org/2000/svg">
<path fill-rule="evenodd" clip-rule="evenodd" d="M5.2481 3.49744L5.24866 3.49814L5.2481 3.49744ZM5.28393 3.55371L6.95438 6.18583C6.75252 6.37534 6.53235 6.56306 6.29539 6.76508C6.09173 6.93872 5.87567 7.12292 5.64819 7.32792C5.08439 7.83601 4.97549 8.65319 5.34038 9.28914C7.26992 12.652 9.90167 14.1823 11.0793 14.7317C11.7887 15.0627 12.5595 14.8015 12.9886 14.2606L14.1445 12.8034C14.1445 12.8034 14.1455 12.8026 14.1472 12.8023C14.149 12.802 14.1522 12.8023 14.1522 12.8023C14.1522 12.8023 14.1547 12.8029 14.1571 12.8044C14.8307 13.2161 15.7704 13.7755 16.6336 14.2492C16.4786 15.1761 16.1224 15.716 15.7298 16.0461C15.3175 16.3927 14.7843 16.5751 14.1896 16.641C13.0022 16.7725 11.7967 16.4158 11.5294 16.3289C11.2344 16.1795 9.61696 15.3364 7.889 13.9701C6.10719 12.5613 4.32053 10.6838 3.63722 8.53037C3.13784 6.9566 3.32614 5.84915 3.71865 5.08525C4.09809 4.34679 4.71212 3.84557 5.28393 3.55371ZM4.67966 1.99592C5.46686 1.62617 6.28086 2.01168 6.66001 2.60911L8.40753 5.36269C8.76082 5.91936 8.78504 6.73314 8.2107 7.29061C7.96455 7.52952 7.62209 7.82317 7.30342 8.09642C7.12849 8.24641 6.96073 8.39026 6.82 8.51554C8.48066 11.3792 10.7009 12.7041 11.7106 13.1885L12.8347 11.7715C13.3654 11.1025 14.3104 10.9462 15.03 11.386C15.6957 11.7929 16.616 12.3405 17.45 12.7977C18.0062 13.1027 18.404 13.7384 18.2913 14.4562C18.0889 15.7454 17.56 16.6843 16.8064 17.3179C16.0654 17.9409 15.1826 18.2052 14.374 18.2947C12.7835 18.4709 11.2622 17.9939 10.9844 17.9018C10.914 17.8785 10.8557 17.8538 10.7929 17.8223C10.4947 17.6722 8.73712 16.7647 6.85124 15.2736C4.98497 13.798 2.88027 11.6635 2.04527 9.03204C1.43192 7.09912 1.61336 5.53187 2.23249 4.3269C2.84078 3.14305 3.82586 2.39695 4.67966 1.99592Z" fill="#1C294D" fill-opacity="0.5"/>
<path fill-rule="evenodd" clip-rule="evenodd" d="M12.2586 1.74276C11.8396 1.55113 11.344 1.73432 11.1517 2.15192C10.9594 2.56952 11.1432 3.0634 11.5623 3.25503C13.5009 4.14158 15.7199 5.80835 16.7338 8.10838C16.9193 8.52904 17.4118 8.72024 17.8339 8.53543C18.256 8.35063 18.4479 7.85979 18.2625 7.43913C17.0239 4.62964 14.4059 2.72472 12.2586 1.74276ZM11.6405 4.69427C11.2282 4.48879 10.7267 4.65536 10.5205 5.06633C10.3143 5.47729 10.4815 5.97702 10.8938 6.1825C11.6783 6.57338 12.2212 6.94173 12.6596 7.37857C13.0979 7.81541 13.4676 8.35646 13.8598 9.13823C14.066 9.54919 14.5675 9.71576 14.9798 9.51028C15.3922 9.3048 15.5594 8.80507 15.3532 8.39411C14.9106 7.51199 14.4454 6.80511 13.8402 6.20202C13.235 5.59893 12.5257 5.13533 11.6405 4.69427Z" fill="#1C294D" fill-opacity="0.5"/>
</svg>
