<svg width="22" height="20" viewBox="0 0 22 20" fill="none" xmlns="http://www.w3.org/2000/svg">
<path fill-rule="evenodd" clip-rule="evenodd" d="M4.1665 3.33325C2.78579 3.33325 1.6665 4.45254 1.6665 5.83325V14.1666C1.6665 15.5473 2.78579 16.6666 4.1665 16.6666H15.8332C17.2139 16.6666 18.3332 15.5473 18.3332 14.1666V5.83325C18.3332 4.45254 17.2139 3.33325 15.8332 3.33325H4.1665ZM3.40927 5.48487C3.54118 5.19861 3.83064 4.99992 4.1665 4.99992H15.8332C16.169 4.99992 16.4585 5.19861 16.5904 5.48487L10.5115 10.2129C10.2105 10.447 9.78915 10.447 9.48822 10.2129L3.40927 5.48487ZM3.33317 7.53712V12.3874L6.34368 9.87862L3.33317 7.53712ZM3.40225 14.4993C3.53071 14.794 3.82456 14.9999 4.1665 14.9999H15.8332C16.1751 14.9999 16.469 14.794 16.5974 14.4993L12.3094 10.926L11.5347 11.5285C10.6319 12.2307 9.36776 12.2307 8.46499 11.5285L7.69028 10.926L3.40225 14.4993ZM16.6665 12.3874V7.53712L13.656 9.87862L16.6665 12.3874Z" fill="#1C294D" fill-opacity="0.5"/>
</svg>
