<svg width="20" height="20" viewBox="0 0 20 20" fill="none" xmlns="http://www.w3.org/2000/svg">
<path fill-rule="evenodd" clip-rule="evenodd" d="M9.99984 18.3333C5.39746 18.3333 1.6665 14.6024 1.6665 10C1.6665 5.39764 5.39746 1.66668 9.99984 1.66668C14.6022 1.66668 18.3332 5.39764 18.3332 10C18.3332 14.6024 14.6022 18.3333 9.99984 18.3333ZM9.99984 3.33335C6.31794 3.33335 3.33317 6.31811 3.33317 10C3.33317 13.6819 6.31794 16.6667 9.99984 16.6667C13.6817 16.6667 16.6665 13.6819 16.6665 10C16.6665 6.31811 13.6817 3.33335 9.99984 3.33335ZM9.99984 8.95835C10.5751 8.95835 11.0415 9.42472 11.0415 10V13.3333C11.0415 13.9086 10.5751 14.375 9.99984 14.375C9.42454 14.375 8.95817 13.9086 8.95817 13.3333V10C8.95817 9.42472 9.42454 8.95835 9.99984 8.95835ZM9.99984 5.83335C9.42454 5.83335 8.95817 6.29972 8.95817 6.87501C8.95817 7.45031 9.42454 7.91668 9.99984 7.91668C10.5751 7.91668 11.0415 7.45031 11.0415 6.87501C11.0415 6.29972 10.5751 5.83335 9.99984 5.83335Z" fill="#27AE60"/>
</svg>
