<svg width="22" height="20" viewBox="0 0 22 20" fill="none" xmlns="http://www.w3.org/2000/svg">
<path fill-rule="evenodd" clip-rule="evenodd" d="M4.1665 3.33333C2.78579 3.33333 1.6665 4.45262 1.6665 5.83333V14.1667C1.6665 15.5474 2.78579 16.6667 4.1665 16.6667H15.8332C17.2139 16.6667 18.3332 15.5474 18.3332 14.1667V5.83333C18.3332 4.45262 17.2139 3.33333 15.8332 3.33333H4.1665ZM3.40927 5.48495C3.54118 5.19869 3.83064 5 4.1665 5H15.8332C16.169 5 16.4585 5.19869 16.5904 5.48495L10.5115 10.213C10.2105 10.4471 9.78915 10.4471 9.48822 10.213L3.40927 5.48495ZM3.33317 7.5372V12.3875L6.34368 9.87871L3.33317 7.5372ZM3.40225 14.4994C3.53071 14.794 3.82456 15 4.1665 15H15.8332C16.1751 15 16.469 14.794 16.5974 14.4994L12.3094 10.9261L11.5347 11.5286C10.6319 12.2308 9.36776 12.2308 8.46499 11.5286L7.69028 10.9261L3.40225 14.4994ZM16.6665 12.3875V7.5372L13.656 9.87871L16.6665 12.3875Z" fill="#1C294D" fill-opacity="0.5"/>
</svg>
