<svg class="header__loupeIcon" width="20" height="20" viewBox="0 0 20 20" fill="none" xmlns="http://www.w3.org/2000/svg">
<path fill-rule="evenodd" clip-rule="evenodd" d="M1.66683 7.91667C1.66683 11.3684 4.46505 14.1667 7.91683 14.1667C9.35986 14.1667 10.6887 13.6776 11.7466 12.8562C11.7864 12.9405 11.8412 13.0195 11.9109 13.0893L16.9109 18.0893C17.2363 18.4147 17.764 18.4147 18.0894 18.0893C18.4149 17.7638 18.4149 17.2362 18.0894 16.9107L13.0894 11.9107C13.0197 11.841 12.9407 11.7862 12.8564 11.7464C13.6778 10.6885 14.1668 9.3597 14.1668 7.91667C14.1668 4.46489 11.3686 1.66667 7.91683 1.66667C4.46505 1.66667 1.66683 4.46489 1.66683 7.91667ZM3.3335 7.91667C3.3335 5.38536 5.38552 3.33333 7.91683 3.33333C10.4481 3.33333 12.5002 5.38536 12.5002 7.91667C12.5002 10.448 10.4481 12.5 7.91683 12.5C5.38552 12.5 3.3335 10.448 3.3335 7.91667Z" fill="#1C294D" fill-opacity="0.5"/>
</svg>
