<svg width="20" height="20" viewBox="0 0 20 20" fill="none" xmlns="http://www.w3.org/2000/svg">
<path d="M18.9801 4.66757C18.9558 4.63853 18.9156 4.62867 18.8813 4.64451C18.373 4.87248 17.8383 5.03636 17.2876 5.13318C17.8723 4.68852 18.3079 4.07275 18.5313 3.36668C18.5421 3.33288 18.5309 3.29591 18.5036 3.27391C18.4761 3.2519 18.438 3.24909 18.4078 3.26722C17.7493 3.66206 17.0362 3.94037 16.2871 4.09476C15.6234 3.39837 14.6966 3 13.7374 3C11.7866 3 10.1998 4.60438 10.1998 6.57649C10.1998 6.81501 10.2226 7.05125 10.2678 7.28062C7.56595 7.11198 5.03956 5.80053 3.32175 3.67034C3.30417 3.64851 3.27753 3.63636 3.24967 3.63918C3.22198 3.64129 3.19726 3.65714 3.18333 3.68125C2.86993 4.22485 2.70434 4.84677 2.70434 5.47944C2.70434 6.57596 3.19709 7.60118 4.03614 8.27768C3.60416 8.22522 3.18229 8.08774 2.80185 7.87421C2.77625 7.8596 2.74439 7.85978 2.7188 7.87474C2.6932 7.88953 2.67701 7.91699 2.67631 7.94691L2.67596 7.99268C2.67596 9.56748 3.70236 10.9502 5.16266 11.4093C4.77804 11.472 4.37897 11.4678 3.98669 11.3921C3.95779 11.3866 3.92749 11.3967 3.90764 11.4192C3.88797 11.4417 3.88135 11.4732 3.89041 11.5017C4.3283 12.8836 5.54501 13.8527 6.96125 13.9734C5.77989 14.8485 4.3835 15.3095 2.90806 15.3095C2.63627 15.3095 2.36256 15.2932 2.09442 15.2613C2.05612 15.2569 2.01816 15.28 2.00493 15.3171C1.9917 15.3546 2.0058 15.3965 2.03888 15.4178C3.6355 16.4531 5.48163 17 7.37791 17C13.5807 17 17.2872 11.9059 17.2872 6.98119C17.2872 6.84406 17.2846 6.70763 17.2792 6.57156C17.9483 6.07673 18.5228 5.47099 18.9859 4.76985C19.0066 4.73851 19.0044 4.69679 18.9801 4.66757Z" fill="#282F36" fill-opacity="0.3"/>
</svg>
