<svg width="20" height="20" viewBox="0 0 20 20" fill="none" xmlns="http://www.w3.org/2000/svg">
<path fill-rule="evenodd" clip-rule="evenodd" d="M9.99687 0.00634766C7.28187 0.00634766 6.94143 0.0178556 5.87516 0.0665064C4.81111 0.115038 4.0844 0.284046 3.44853 0.531189C2.79115 0.786625 2.23365 1.12845 1.67786 1.6842C1.1221 2.24 0.780278 2.7975 0.524841 3.45488C0.277698 4.09075 0.10869 4.81746 0.0601587 5.88151C0.0115079 6.94778 0 7.28821 0 10.0032C0 12.7182 0.0115079 13.0586 0.0601587 14.1249C0.10869 15.1889 0.277698 15.9156 0.524841 16.5515C0.780278 17.2089 1.1221 17.7664 1.67786 18.3222C2.23365 18.8779 2.79115 19.2198 3.44853 19.4752C4.0844 19.7223 4.81111 19.8913 5.87516 19.9399C6.94143 19.9885 7.28187 20 9.99687 20C12.7118 20 13.0523 19.9885 14.1185 19.9399C15.1826 19.8913 15.9093 19.7223 16.5452 19.4752C17.2025 19.2198 17.76 18.8779 18.3158 18.3222C18.8716 17.7664 19.2134 17.2089 19.4689 16.5515C19.716 15.9156 19.885 15.1889 19.9335 14.1249C19.9822 13.0586 19.9937 12.7182 19.9937 10.0032C19.9937 7.28821 19.9822 6.94778 19.9335 5.88151C19.885 4.81746 19.716 4.09075 19.4689 3.45488C19.2134 2.7975 18.8716 2.24 18.3158 1.6842C17.76 1.12845 17.2025 0.786625 16.5452 0.531189C15.9093 0.284046 15.1826 0.115038 14.1185 0.0665064C13.0523 0.0178556 12.7118 0.00634766 9.99687 0.00634766ZM9.99687 1.80758C12.6661 1.80758 12.9823 1.81778 14.0364 1.86587C15.0111 1.91032 15.5404 2.07317 15.8927 2.21008C16.3593 2.39143 16.6923 2.60805 17.0421 2.9579C17.392 3.3077 17.6086 3.64071 17.79 4.10734C17.9269 4.4596 18.0897 4.98893 18.1342 5.96361C18.1823 7.01774 18.1925 7.33393 18.1925 10.0032C18.1925 12.6725 18.1823 12.9886 18.1342 14.0428C18.0897 15.0175 17.9269 15.5468 17.79 15.899C17.6086 16.3657 17.392 16.6987 17.0421 17.0485C16.6923 17.3983 16.3593 17.615 15.8927 17.7963C15.5404 17.9332 15.0111 18.0961 14.0364 18.1405C12.9825 18.1886 12.6663 18.1988 9.99687 18.1988C7.32738 18.1988 7.01127 18.1886 5.95726 18.1405C4.98258 18.0961 4.45325 17.9332 4.10099 17.7963C3.63437 17.615 3.30135 17.3983 2.95155 17.0485C2.60175 16.6987 2.38508 16.3657 2.20373 15.899C2.06683 15.5468 1.90397 15.0175 1.85952 14.0428C1.81143 12.9886 1.80123 12.6725 1.80123 10.0032C1.80123 7.33393 1.81143 7.01774 1.85952 5.96361C1.90397 4.98893 2.06683 4.4596 2.20373 4.10734C2.38508 3.64071 2.60171 3.3077 2.95155 2.9579C3.30135 2.60805 3.63437 2.39143 4.10099 2.21008C4.45325 2.07317 4.98258 1.91032 5.95726 1.86587C7.01139 1.81778 7.32758 1.80758 9.99687 1.80758Z" fill="#282F36" fill-opacity="0.3"/>
<path fill-rule="evenodd" clip-rule="evenodd" d="M9.99681 13.3354C8.15642 13.3354 6.66451 11.8435 6.66451 10.0032C6.66451 8.16276 8.15642 6.67086 9.99681 6.67086C11.8372 6.67086 13.3291 8.16276 13.3291 10.0032C13.3291 11.8435 11.8372 13.3354 9.99681 13.3354ZM9.99681 4.86963C7.16161 4.86963 4.86328 7.16796 4.86328 10.0032C4.86328 12.8383 7.16161 15.1367 9.99681 15.1367C12.832 15.1367 15.1303 12.8383 15.1303 10.0032C15.1303 7.16796 12.832 4.86963 9.99681 4.86963Z" fill="#282F36" fill-opacity="0.3"/>
<path fill-rule="evenodd" clip-rule="evenodd" d="M16.533 4.66693C16.533 5.32947 15.9959 5.86653 15.3334 5.86653C14.6709 5.86653 14.1338 5.32947 14.1338 4.66693C14.1338 4.00439 14.6709 3.46729 15.3334 3.46729C15.9959 3.46729 16.533 4.00439 16.533 4.66693Z" fill="#282F36" fill-opacity="0.3"/>
</svg>
