<svg width="40" height="40" viewBox="0 0 40 40" fill="none" xmlns="http://www.w3.org/2000/svg">
<path fill-rule="evenodd" clip-rule="evenodd" d="M20 40C31.0457 40 40 31.0457 40 20C40 8.9543 31.0457 0 20 0C8.9543 0 0 8.9543 0 20C0 31.0457 8.9543 40 20 40Z" fill="#E4405F"/>
<path fill-rule="evenodd" clip-rule="evenodd" d="M19.9969 10.0063C17.2819 10.0063 16.9414 10.0179 15.8752 10.0665C14.8111 10.115 14.0844 10.284 13.4485 10.5312C12.7912 10.7866 12.2337 11.1285 11.6779 11.6842C11.1221 12.24 10.7803 12.7975 10.5248 13.4549C10.2777 14.0908 10.1087 14.8175 10.0602 15.8815C10.0115 16.9478 10 17.2882 10 20.0032C10 22.7182 10.0115 23.0586 10.0602 24.1249C10.1087 25.1889 10.2777 25.9156 10.5248 26.5515C10.7803 27.2089 11.1221 27.7664 11.6779 28.3222C12.2337 28.8779 12.7912 29.2198 13.4485 29.4752C14.0844 29.7223 14.8111 29.8913 15.8752 29.9399C16.9414 29.9885 17.2819 30 19.9969 30C22.7118 30 23.0523 29.9885 24.1185 29.9399C25.1826 29.8913 25.9093 29.7223 26.5452 29.4752C27.2025 29.2198 27.76 28.8779 28.3158 28.3222C28.8716 27.7664 29.2134 27.2089 29.4689 26.5515C29.716 25.9156 29.885 25.1889 29.9335 24.1249C29.9822 23.0586 29.9937 22.7182 29.9937 20.0032C29.9937 17.2882 29.9822 16.9478 29.9335 15.8815C29.885 14.8175 29.716 14.0908 29.4689 13.4549C29.2134 12.7975 28.8716 12.24 28.3158 11.6842C27.76 11.1285 27.2025 10.7866 26.5452 10.5312C25.9093 10.284 25.1826 10.115 24.1185 10.0665C23.0523 10.0179 22.7118 10.0063 19.9969 10.0063ZM19.9969 11.8076C22.6661 11.8076 22.9823 11.8178 24.0364 11.8659C25.0111 11.9103 25.5404 12.0732 25.8927 12.2101C26.3593 12.3914 26.6923 12.6081 27.0421 12.9579C27.392 13.3077 27.6086 13.6407 27.79 14.1073C27.9269 14.4596 28.0897 14.9889 28.1342 15.9636C28.1823 17.0177 28.1925 17.3339 28.1925 20.0032C28.1925 22.6725 28.1823 22.9886 28.1342 24.0428C28.0897 25.0175 27.9269 25.5468 27.79 25.899C27.6086 26.3657 27.392 26.6987 27.0421 27.0485C26.6923 27.3983 26.3593 27.615 25.8927 27.7963C25.5404 27.9332 25.0111 28.0961 24.0364 28.1405C22.9825 28.1886 22.6663 28.1988 19.9969 28.1988C17.3274 28.1988 17.0113 28.1886 15.9573 28.1405C14.9826 28.0961 14.4533 27.9332 14.101 27.7963C13.6344 27.615 13.3013 27.3983 12.9515 27.0485C12.6017 26.6987 12.3851 26.3657 12.2037 25.899C12.0668 25.5468 11.904 25.0175 11.8595 24.0428C11.8114 22.9886 11.8012 22.6725 11.8012 20.0032C11.8012 17.3339 11.8114 17.0177 11.8595 15.9636C11.904 14.9889 12.0668 14.4596 12.2037 14.1073C12.3851 13.6407 12.6017 13.3077 12.9515 12.9579C13.3013 12.6081 13.6344 12.3914 14.101 12.2101C14.4533 12.0732 14.9826 11.9103 15.9573 11.8659C17.0114 11.8178 17.3276 11.8076 19.9969 11.8076Z" fill="white"/>
<path fill-rule="evenodd" clip-rule="evenodd" d="M19.9968 23.3354C18.1564 23.3354 16.6645 21.8435 16.6645 20.0032C16.6645 18.1628 18.1564 16.6709 19.9968 16.6709C21.8372 16.6709 23.3291 18.1628 23.3291 20.0032C23.3291 21.8435 21.8372 23.3354 19.9968 23.3354ZM19.9968 14.8696C17.1616 14.8696 14.8633 17.168 14.8633 20.0032C14.8633 22.8383 17.1616 25.1367 19.9968 25.1367C22.832 25.1367 25.1303 22.8383 25.1303 20.0032C25.1303 17.168 22.832 14.8696 19.9968 14.8696Z" fill="white"/>
<path fill-rule="evenodd" clip-rule="evenodd" d="M26.533 14.6669C26.533 15.3295 25.9959 15.8665 25.3334 15.8665C24.6709 15.8665 24.1338 15.3295 24.1338 14.6669C24.1338 14.0044 24.6709 13.4673 25.3334 13.4673C25.9959 13.4673 26.533 14.0044 26.533 14.6669Z" fill="white"/>
</svg>
