<svg width="20" height="20" viewBox="0 0 20 20" fill="none" xmlns="http://www.w3.org/2000/svg">
<path fill-rule="evenodd" clip-rule="evenodd" d="M13.5842 9.87939L9.99984 15.7917L6.41545 9.87939C4.67691 7.01172 6.69686 3.30909 9.99984 3.30909C13.3028 3.30909 15.3228 7.01172 13.5842 9.87939ZM5.04781 10.7439C2.64593 6.78205 5.4366 1.66667 9.99984 1.66667C14.5631 1.66667 17.3537 6.78205 14.9519 10.7439L10.5354 18.0287C10.2892 18.4349 9.71052 18.4349 9.46426 18.0287L5.04781 10.7439ZM10 5.77272C9.11166 5.77272 8.39152 6.50806 8.39152 7.41515C8.39152 8.32223 9.11166 9.05757 10 9.05757C10.8883 9.05757 11.6085 8.32223 11.6085 7.41515C11.6085 6.50806 10.8883 5.77272 10 5.77272Z" fill="#1C294D" fill-opacity="0.5"/>
</svg>
