<svg width="20" height="20" viewBox="0 0 20 20" fill="none" xmlns="http://www.w3.org/2000/svg">
<path fill-rule="evenodd" clip-rule="evenodd" d="M5.2481 3.49736L5.24866 3.49806L5.2481 3.49736ZM5.28393 3.55363L6.95438 6.18575C6.75252 6.37526 6.53235 6.56298 6.29539 6.765C6.09173 6.93864 5.87567 7.12284 5.64819 7.32784C5.08439 7.83593 4.97549 8.6531 5.34038 9.28906C7.26992 12.652 9.90167 14.1822 11.0793 14.7316C11.7887 15.0626 12.5595 14.8014 12.9886 14.2605L14.1445 12.8034C14.1445 12.8034 14.1455 12.8025 14.1472 12.8022C14.149 12.8019 14.1522 12.8022 14.1522 12.8022C14.1522 12.8022 14.1547 12.8028 14.1571 12.8043C14.8307 13.216 15.7704 13.7754 16.6336 14.2491C16.4786 15.176 16.1224 15.7159 15.7298 16.046C15.3175 16.3926 14.7843 16.5751 14.1896 16.6409C13.0022 16.7724 11.7967 16.4157 11.5294 16.3288C11.2344 16.1794 9.61696 15.3363 7.889 13.97C6.10719 12.5612 4.32053 10.6837 3.63722 8.53028C3.13784 6.95652 3.32614 5.84907 3.71865 5.08517C4.09809 4.3467 4.71212 3.84548 5.28393 3.55363ZM4.67966 1.99584C5.46686 1.62609 6.28086 2.0116 6.66001 2.60903L8.40753 5.36261C8.76082 5.91928 8.78504 6.73306 8.2107 7.29053C7.96455 7.52944 7.62209 7.82309 7.30342 8.09634C7.12849 8.24633 6.96073 8.39018 6.82 8.51546C8.48066 11.3791 10.7009 12.704 11.7106 13.1884L12.8347 11.7715C13.3654 11.1025 14.3104 10.9461 15.03 11.3859C15.6957 11.7928 16.616 12.3404 17.45 12.7976C18.0062 13.1026 18.404 13.7383 18.2913 14.4561C18.0889 15.7453 17.56 16.6842 16.8064 17.3178C16.0654 17.9408 15.1826 18.2051 14.374 18.2946C12.7835 18.4708 11.2622 17.9938 10.9844 17.9017C10.914 17.8784 10.8557 17.8538 10.7929 17.8222C10.4947 17.6722 8.73712 16.7646 6.85124 15.2735C4.98497 13.7979 2.88027 11.6634 2.04527 9.03196C1.43192 7.09904 1.61336 5.53179 2.23249 4.32682C2.84078 3.14297 3.82586 2.39686 4.67966 1.99584Z" fill="#1C294D" fill-opacity="0.5"/>
<path fill-rule="evenodd" clip-rule="evenodd" d="M12.2586 1.74268C11.8396 1.55105 11.344 1.73424 11.1517 2.15184C10.9594 2.56944 11.1432 3.06332 11.5623 3.25495C13.5009 4.1415 15.7199 5.80827 16.7338 8.1083C16.9193 8.52896 17.4118 8.72016 17.8339 8.53535C18.256 8.35054 18.4479 7.85971 18.2625 7.43904C17.0239 4.62955 14.4059 2.72464 12.2586 1.74268ZM11.6405 4.69419C11.2282 4.48871 10.7267 4.65528 10.5205 5.06625C10.3143 5.47721 10.4815 5.97694 10.8938 6.18242C11.6783 6.5733 12.2212 6.94165 12.6596 7.37849C13.0979 7.81533 13.4676 8.35638 13.8598 9.13814C14.066 9.54911 14.5675 9.71568 14.9798 9.5102C15.3922 9.30472 15.5594 8.80499 15.3532 8.39403C14.9106 7.5119 14.4454 6.80503 13.8402 6.20194C13.235 5.59885 12.5257 5.13525 11.6405 4.69419Z" fill="#1C294D" fill-opacity="0.5"/>
</svg>
