<svg width="20" height="20" viewBox="0 0 20 20" fill="none" xmlns="http://www.w3.org/2000/svg">
<path fill-rule="evenodd" clip-rule="evenodd" d="M1.6665 10C1.6665 14.6024 5.39746 18.3333 9.99984 18.3333C14.6022 18.3333 18.3332 14.6024 18.3332 10C18.3332 5.39762 14.6022 1.66666 9.99984 1.66666C5.39746 1.66666 1.6665 5.39762 1.6665 10ZM3.33317 10C3.33317 6.3181 6.31794 3.33333 9.99984 3.33333C13.6817 3.33333 16.6665 6.3181 16.6665 10C16.6665 13.6819 13.6817 16.6667 9.99984 16.6667C6.31794 16.6667 3.33317 13.6819 3.33317 10ZM7.49984 10.8333C7.49984 10.3731 7.12674 10 6.6665 10C6.20627 10 5.83317 10.3731 5.83317 10.8333C5.83317 13.1345 7.69865 15 9.99984 15C12.301 15 14.1665 13.1345 14.1665 10.8333C14.1665 10.3731 13.7934 10 13.3332 10C12.8729 10 12.4998 10.3731 12.4998 10.8333C12.4998 12.214 11.3805 13.3333 9.99984 13.3333C8.61913 13.3333 7.49984 12.214 7.49984 10.8333ZM6.6665 8.33333C7.12674 8.33333 7.49984 7.96024 7.49984 7.5C7.49984 7.96024 7.87293 8.33333 8.33317 8.33333C8.79341 8.33333 9.1665 7.96024 9.1665 7.5C9.1665 6.57952 8.42031 5.83333 7.49984 5.83333C6.57936 5.83333 5.83317 6.57952 5.83317 7.5C5.83317 7.96024 6.20627 8.33333 6.6665 8.33333ZM12.4998 7.5C12.4998 7.96024 12.1267 8.33333 11.6665 8.33333C11.2063 8.33333 10.8332 7.96024 10.8332 7.5C10.8332 6.57952 11.5794 5.83333 12.4998 5.83333C13.4203 5.83333 14.1665 6.57952 14.1665 7.5C14.1665 7.96024 13.7934 8.33333 13.3332 8.33333C12.8729 8.33333 12.4998 7.96024 12.4998 7.5Z" fill="#1C294D" fill-opacity="0.5"/>
</svg>
